<?xml version="1.0" encoding="UTF-8" standalone="no"?>
<!DOCTYPE svg PUBLIC "-//W3C//DTD SVG 1.1//EN" "http://www.w3.org/Graphics/SVG/1.1/DTD/svg11.dtd">
<svg xmlns="http://www.w3.org/2000/svg" version="1.1" viewBox="0.00 0.00 300.00 288.00">
<path fill="currentColor" d="
  M 149.97 0.23
  C 166.50 0.23 184.31 5.87 199.05 13.25
  C 230.83 29.15 252.02 66.20 251.42 101.53
  Q 250.81 136.84 230.81 163.02
  Q 214.04 184.97 189.17 194.89
  Q 188.79 195.04 188.70 195.48
  A 1.27 1.25 -76.1 0 0 189.59 196.98
  C 235.72 209.23 274.04 236.74 297.96 278.03
  Q 299.90 281.39 299.62 283.16
  C 299.00 287.04 294.36 288.23 290.97 286.67
  Q 289.39 285.94 287.54 282.85
  Q 286.02 280.30 282.84 275.66
  C 252.32 231.12 204.41 204.11 150.01 204.12
  C 95.61 204.13 47.71 231.16 17.21 275.70
  Q 14.02 280.35 12.51 282.90
  Q 10.66 285.99 9.08 286.72
  C 5.69 288.28 1.05 287.09 0.43 283.21
  Q 0.14 281.44 2.08 278.08
  C 25.99 236.78 64.30 209.26 110.43 196.99
  A 1.27 1.25 76.1 0 0 111.31 195.49
  Q 111.22 195.05 110.84 194.90
  Q 85.97 184.99 69.19 163.05
  Q 49.18 136.88 48.56 101.57
  C 47.95 66.24 69.13 29.18 100.90 13.27
  C 115.64 5.88 133.44 0.24 149.97 0.23
  Z
  M 239.71 102.00
  A 89.71 89.71 0.0 0 0 150.00 12.29
  A 89.71 89.71 0.0 0 0 60.29 102.00
  A 89.71 89.71 0.0 0 0 150.00 191.71
  A 89.71 89.71 0.0 0 0 239.71 102.00
  Z"
/>
</svg>
