<?xml version="1.0" encoding="UTF-8" standalone="no"?>
<!DOCTYPE svg PUBLIC "-//W3C//DTD SVG 1.1//EN" "http://www.w3.org/Graphics/SVG/1.1/DTD/svg11.dtd">
<svg xmlns="http://www.w3.org/2000/svg" version="1.1" viewBox="0.00 0.00 800.00 800.00">
<path fill="currentColor" d="
  M 400.01 54.00
  Q 445.54 54.00 558.92 54.00
  A 1.09 1.09 0.0 0 1 560.01 55.09
  L 560.01 171.06
  A 0.94 0.94 0.0 0 0 560.95 172.00
  L 639.21 172.00
  A 0.79 0.79 0.0 0 1 640.00 172.79
  L 640.00 744.35
  A 0.59 0.59 0.0 0 1 639.42 744.94
  Q 634.95 745.00 399.99 745.00
  Q 165.04 744.99 160.56 744.93
  A 0.59 0.59 0.0 0 1 159.98 744.34
  L 160.01 172.78
  A 0.79 0.79 0.0 0 1 160.80 171.99
  L 239.06 171.99
  A 0.94 0.94 0.0 0 0 240.00 171.05
  L 240.00 55.08
  A 1.09 1.09 0.0 0 1 241.10 54.00
  Q 354.48 54.00 400.01 54.00
  Z
  M 534.00 80.82
  A 0.82 0.82 0.0 0 0 533.18 80.00
  L 266.82 80.00
  A 0.82 0.82 0.0 0 0 266.00 80.82
  L 266.00 171.18
  A 0.82 0.82 0.0 0 0 266.82 172.00
  L 533.18 172.00
  A 0.82 0.82 0.0 0 0 534.00 171.18
  L 534.00 80.82
  Z
  M 614.00 198.90
  A 0.90 0.90 0.0 0 0 613.10 198.00
  L 186.90 198.00
  A 0.90 0.90 0.0 0 0 186.00 198.90
  L 186.00 718.10
  A 0.90 0.90 0.0 0 0 186.90 719.00
  L 613.10 719.00
  A 0.90 0.90 0.0 0 0 614.00 718.10
  L 614.00 198.90
  Z"
/>
</svg>
