<?xml version="1.0" encoding="UTF-8" standalone="no"?>
<!DOCTYPE svg PUBLIC "-//W3C//DTD SVG 1.1//EN" "http://www.w3.org/Graphics/SVG/1.1/DTD/svg11.dtd">
<svg xmlns="http://www.w3.org/2000/svg" class="icon icon-plus" version="1.1" viewBox="0.00 0.00 1050.00 1136.00">
<path fill="#000000" d="
  M 667.66 0.00
  C 672.33 0.39 677.61 0.37 681.80 1.05
  Q 709.44 5.59 726.00 28.51
  Q 737.91 44.99 739.41 65.76
  Q 739.99 73.89 739.99 75.25
  Q 740.00 104.68 739.90 202.50
  Q 739.89 204.31 740.09 207.39
  A 0.73 0.72 88.3 0 0 740.81 208.08
  L 975.48 208.08
  A 0.52 0.52 0.0 0 1 976.00 208.60
  L 976.00 650.13
  A 0.86 0.86 0.0 0 1 975.14 650.99
  L 932.33 650.99
  A 0.44 0.43 0.0 0 1 931.89 650.56
  Q 931.94 610.75 931.91 256.76
  Q 931.91 252.00 927.50 252.00
  Q 492.56 251.99 48.50 252.00
  C 44.61 252.00 43.91 254.74 43.91 258.25
  Q 43.92 651.54 43.91 1085.42
  C 43.91 1089.04 44.39 1092.00 48.50 1092.00
  Q 316.56 1092.00 538.39 1092.00
  A 0.50 0.50 0.0 0 1 538.89 1092.50
  L 538.86 1136.00
  L 0.00 1136.00
  L 0.00 208.64
  L 235.45 207.99
  A 0.52 0.52 0.0 0 0 235.97 207.49
  Q 236.07 204.72 236.07 202.52
  Q 236.11 159.49 235.99 77.25
  Q 235.99 73.40 236.72 64.98
  C 238.50 44.25 248.03 26.33 264.33 13.76
  C 273.88 6.39 284.62 2.12 296.51 0.80
  Q 300.46 0.37 304.42 0.00
  L 667.66 0.00
  Z
  M 488.00 208.00
  Q 693.94 208.01 695.45 208.00
  A 0.58 0.58 0.0 0 0 696.03 207.41
  C 695.91 193.51 696.16 163.55 696.07 114.04
  C 696.00 76.18 666.34 43.97 627.75 43.81
  Q 575.99 43.61 490.25 43.92
  Q 489.13 43.93 488.01 43.93
  Q 486.88 43.93 485.77 43.92
  Q 400.03 43.60 348.27 43.80
  C 309.68 43.96 280.02 76.17 279.94 114.03
  C 279.85 163.54 280.10 193.50 279.98 207.40
  A 0.58 0.58 0.0 0 0 280.55 207.98
  Q 282.06 207.99 488.00 208.00
  Z"
/>
<path fill="#000000" d="
  M 1050.00 912.99
  L 1050.00 956.97
  L 903.57 957.01
  A 0.57 0.57 0.0 0 0 903.00 957.58
  L 903.00 1103.34
  A 0.66 0.66 0.0 0 1 902.34 1104.00
  L 859.49 1104.00
  A 0.49 0.49 0.0 0 1 859.00 1103.51
  L 859.00 958.20
  A 1.20 1.20 0.0 0 0 857.80 957.00
  L 711.82 957.00
  A 0.81 0.81 0.0 0 1 711.01 956.19
  L 711.01 913.90
  A 0.90 0.90 0.0 0 1 711.91 913.00
  L 857.80 913.00
  A 1.20 1.20 0.0 0 0 859.00 911.80
  L 859.00 765.72
  A 0.72 0.72 0.0 0 1 859.72 765.00
  L 902.29 765.00
  A 0.71 0.71 0.0 0 1 903.00 765.71
  L 903.00 911.77
  A 1.22 1.22 0.0 0 0 904.22 912.99
  L 1050.00 912.99
  Z"
/>
</svg>
