<?xml version="1.0" encoding="UTF-8" standalone="no"?>
<!DOCTYPE svg PUBLIC "-//W3C//DTD SVG 1.1//EN" "http://www.w3.org/Graphics/SVG/1.1/DTD/svg11.dtd">
<svg xmlns="http://www.w3.org/2000/svg" version="1.1" viewBox="0.00 0.00 976.00 1136.00">
<path fill="#000000" d="
  M 667.66 0.00
  C 672.33 0.39 677.66 0.36 681.79 1.05
  Q 709.54 5.65 726.05 28.56
  Q 737.83 44.93 739.36 65.32
  Q 740.03 74.22 740.03 75.75
  Q 739.88 154.06 739.93 202.25
  Q 739.93 204.56 740.07 207.35
  A 0.66 0.66 0.0 0 0 740.73 207.98
  L 976.00 208.20
  L 976.00 1136.00
  L 0.00 1136.00
  L 0.00 208.64
  L 235.45 207.99
  A 0.52 0.52 0.0 0 0 235.97 207.49
  Q 236.07 204.72 236.07 202.52
  Q 236.11 159.49 235.99 77.25
  Q 235.99 73.40 236.72 64.98
  C 238.50 44.25 248.03 26.33 264.33 13.76
  C 273.88 6.39 284.62 2.12 296.51 0.80
  Q 300.46 0.37 304.42 0.00
  L 667.66 0.00
  Z
  M 488.00 208.00
  Q 693.93 208.01 695.45 208.00
  A 0.61 0.61 0.0 0 0 696.06 207.39
  C 696.16 188.77 696.16 158.52 696.07 114.03
  C 695.99 76.11 666.34 44.05 627.75 43.76
  Q 597.99 43.53 490.25 43.92
  Q 489.14 43.93 488.01 43.93
  Q 486.88 43.93 485.77 43.92
  Q 378.03 43.52 348.27 43.75
  C 309.68 44.04 280.03 76.10 279.94 114.02
  C 279.85 158.51 279.85 188.76 279.95 207.38
  A 0.61 0.61 0.0 0 0 280.55 207.98
  Q 282.08 207.99 488.00 208.00
  Z
  M 931.92 256.35
  A 4.35 4.35 0.0 0 0 927.57 252.00
  L 48.27 252.00
  A 4.35 4.35 0.0 0 0 43.92 256.35
  L 43.92 1087.65
  A 4.35 4.35 0.0 0 0 48.27 1092.00
  L 927.57 1092.00
  A 4.35 4.35 0.0 0 0 931.92 1087.65
  L 931.92 256.35
  Z"
/>
</svg>
