<?xml version="1.0" encoding="UTF-8" standalone="no"?>
<!DOCTYPE svg PUBLIC "-//W3C//DTD SVG 1.1//EN" "http://www.w3.org/Graphics/SVG/1.1/DTD/svg11.dtd">
<svg xmlns="http://www.w3.org/2000/svg" version="1.1" viewBox="0.00 0.00 976.00 1136.00">
<path fill="currentColor" d="
  M 656.38 0.00
  C 660.01 0.35 664.06 0.29 667.24 0.66
  Q 693.35 3.72 712.33 21.21
  C 720.21 28.46 726.51 38.12 731.00 47.49
  Q 738.68 63.51 738.94 82.00
  Q 739.06 90.76 738.98 206.93
  A 1.05 1.04 -90.0 0 0 740.02 207.98
  L 976.00 208.20
  L 976.00 1136.00
  L 0.00 1136.00
  L 0.00 208.79
  L 234.36 208.08
  A 0.65 0.64 3.1 0 0 234.99 207.52
  Q 235.13 206.43 235.70 205.35
  A 2.21 2.20 -31.4 0 0 235.95 204.33
  Q 235.94 99.91 235.97 87.51
  Q 235.98 83.83 238.86 68.80
  C 242.90 47.77 254.10 27.75 271.24 15.03
  C 283.06 6.25 296.92 0.72 311.72 0.00
  L 656.38 0.00
  Z
  M 487.61 208.00
  Q 488.45 208.00 663.00 208.30
  Q 665.41 208.30 667.67 208.10
  A 0.57 0.56 -2.8 0 0 668.18 207.54
  Q 668.20 160.76 668.36 137.36
  Q 668.46 123.97 666.84 116.85
  C 660.82 90.27 638.61 71.81 611.25 71.77
  Q 539.02 71.68 487.77 71.62
  Q 436.51 71.56 364.28 71.49
  C 336.93 71.46 314.67 89.87 308.59 116.43
  Q 306.96 123.55 307.02 136.94
  Q 307.13 160.34 307.04 207.12
  A 0.57 0.56 2.9 0 0 307.55 207.68
  Q 309.81 207.88 312.22 207.89
  Q 486.76 208.00 487.61 208.00
  Z
  M 904.00 283.14
  A 3.14 3.14 0.0 0 0 900.86 280.00
  L 75.14 280.00
  A 3.14 3.14 0.0 0 0 72.00 283.14
  L 72.00 1060.86
  A 3.14 3.14 0.0 0 0 75.14 1064.00
  L 900.86 1064.00
  A 3.14 3.14 0.0 0 0 904.00 1060.86
  L 904.00 283.14
  Z"
/>
</svg>
