<?xml version="1.0" encoding="UTF-8" standalone="no"?>
<!DOCTYPE svg PUBLIC "-//W3C//DTD SVG 1.1//EN" "http://www.w3.org/Graphics/SVG/1.1/DTD/svg11.dtd">
<svg xmlns="http://www.w3.org/2000/svg" version="1.1" viewBox="0.00 0.00 1696.00 1854.00">
<path stroke="#fa8190" stroke-width="2.00" fill="none" stroke-linecap="butt" vector-effect="non-scaling-stroke" d="
  M 1403.70 448.23
  Q 1403.95 448.23 1404.16 448.12
  Q 1410.18 444.81 1415.77 440.83
  C 1416.61 440.23 1417.58 439.87 1418.51 439.26
  Q 1434.13 429.01 1448.13 418.39
  C 1497.87 380.62 1541.96 329.65 1551.02 265.76
  Q 1552.75 253.56 1552.57 245.82
  Q 1552.09 224.39 1538.92 207.73
  C 1530.10 196.58 1517.59 189.45 1503.77 186.36
  Q 1499.56 185.42 1493.51 185.32
  Q 1485.83 185.18 1483.12 185.63
  C 1469.87 187.79 1457.71 197.25 1448.63 207.85
  C 1438.09 220.15 1430.63 233.49 1418.86 252.37
  C 1415.47 257.81 1410.28 260.57 1403.83 260.56
  C 1397.38 260.56 1392.19 257.80 1388.81 252.35
  C 1377.07 233.45 1369.62 220.10 1359.10 207.79
  C 1350.04 197.18 1337.89 187.70 1324.64 185.52
  Q 1321.93 185.07 1314.25 185.20
  Q 1308.20 185.29 1303.99 186.22
  C 1290.17 189.29 1277.65 196.41 1268.81 207.54
  Q 1255.62 224.19 1255.11 245.62
  Q 1254.92 253.36 1256.63 265.56
  C 1265.60 329.46 1309.62 380.49 1359.31 418.33
  Q 1373.30 428.97 1388.90 439.24
  C 1389.83 439.85 1390.80 440.21 1391.64 440.81
  Q 1397.23 444.80 1403.25 448.12
  Q 1403.45 448.23 1403.70 448.23"
/>
<path fill="#ffffff" d="
  M 1404.26 183.89
  C 1408.48 178.19 1413.53 171.71 1418.93 166.68
  Q 1427.64 158.55 1436.03 153.03
  Q 1462.61 135.54 1494.59 135.70
  C 1498.51 135.72 1503.58 136.70 1507.15 136.78
  C 1510.91 136.87 1513.99 138.04 1518.35 138.94
  Q 1521.54 139.59 1524.75 140.78
  C 1527.57 141.82 1530.67 142.70 1533.18 143.72
  C 1559.88 154.58 1580.98 175.74 1592.42 202.09
  Q 1592.45 202.15 1593.58 205.26
  Q 1593.91 206.16 1594.68 207.60
  C 1596.21 210.47 1597.89 215.94 1598.62 219.93
  C 1600.15 228.36 1601.78 234.50 1601.79 241.74
  Q 1601.80 256.55 1601.60 259.27
  Q 1600.83 269.28 1596.91 289.40
  Q 1596.41 291.96 1595.60 294.83
  C 1594.28 299.49 1593.71 303.00 1592.10 307.33
  C 1591.06 310.14 1590.24 313.82 1589.08 316.78
  Q 1582.24 334.31 1579.05 340.81
  Q 1567.68 363.99 1551.42 385.18
  Q 1527.29 416.64 1496.97 442.47
  Q 1460.73 473.36 1419.43 496.32
  Q 1411.29 500.85 1407.50 501.21
  C 1400.74 501.86 1396.13 500.91 1389.63 497.23
  C 1356.66 478.58 1324.85 456.63 1298.19 431.16
  Q 1287.15 420.61 1273.19 405.64
  Q 1256.93 388.21 1241.13 363.18
  Q 1216.93 324.85 1209.10 280.04
  Q 1208.48 276.46 1207.34 269.76
  Q 1206.70 266.01 1206.63 263.26
  C 1206.55 260.38 1206.77 257.50 1206.28 254.62
  Q 1205.23 248.46 1206.03 242.92
  C 1206.72 238.15 1206.26 233.45 1207.02 229.29
  C 1211.82 203.03 1224.76 178.87 1245.03 161.59
  Q 1266.96 142.90 1295.92 137.45
  Q 1308.67 135.04 1320.32 135.94
  Q 1321.74 136.05 1328.15 136.60
  Q 1332.40 136.96 1335.86 137.74
  Q 1366.21 144.65 1388.78 166.68
  Q 1396.36 174.08 1403.62 183.89
  A 0.40 0.40 0.0 0 0 1404.26 183.89
  Z
  M 1403.70 448.23
  Q 1403.95 448.23 1404.16 448.12
  Q 1410.18 444.81 1415.77 440.83
  C 1416.61 440.23 1417.58 439.87 1418.51 439.26
  Q 1434.13 429.01 1448.13 418.39
  C 1497.87 380.62 1541.96 329.65 1551.02 265.76
  Q 1552.75 253.56 1552.57 245.82
  Q 1552.09 224.39 1538.92 207.73
  C 1530.10 196.58 1517.59 189.45 1503.77 186.36
  Q 1499.56 185.42 1493.51 185.32
  Q 1485.83 185.18 1483.12 185.63
  C 1469.87 187.79 1457.71 197.25 1448.63 207.85
  C 1438.09 220.15 1430.63 233.49 1418.86 252.37
  C 1415.47 257.81 1410.28 260.57 1403.83 260.56
  C 1397.38 260.56 1392.19 257.80 1388.81 252.35
  C 1377.07 233.45 1369.62 220.10 1359.10 207.79
  C 1350.04 197.18 1337.89 187.70 1324.64 185.52
  Q 1321.93 185.07 1314.25 185.20
  Q 1308.20 185.29 1303.99 186.22
  C 1290.17 189.29 1277.65 196.41 1268.81 207.54
  Q 1255.62 224.19 1255.11 245.62
  Q 1254.92 253.36 1256.63 265.56
  C 1265.60 329.46 1309.62 380.49 1359.31 418.33
  Q 1373.30 428.97 1388.90 439.24
  C 1389.83 439.85 1390.80 440.21 1391.64 440.81
  Q 1397.23 444.80 1403.25 448.12
  Q 1403.45 448.23 1403.70 448.23
  Z"
/>
<path fill="#f50321" d="
  M 1403.83 260.56
  C 1410.28 260.57 1415.47 257.81 1418.86 252.37
  C 1430.63 233.49 1438.09 220.15 1448.63 207.85
  C 1457.71 197.25 1469.87 187.79 1483.12 185.63
  Q 1485.83 185.18 1493.51 185.32
  Q 1499.56 185.42 1503.77 186.36
  C 1517.59 189.45 1530.10 196.58 1538.92 207.73
  Q 1552.09 224.39 1552.57 245.82
  Q 1552.75 253.56 1551.02 265.76
  C 1541.96 329.65 1497.87 380.62 1448.13 418.39
  Q 1434.13 429.01 1418.51 439.26
  C 1417.58 439.87 1416.61 440.23 1415.77 440.83
  Q 1410.18 444.81 1404.16 448.12
  Q 1403.95 448.23 1403.70 448.23
  Q 1403.45 448.23 1403.25 448.12
  Q 1397.23 444.80 1391.64 440.81
  C 1390.80 440.21 1389.83 439.85 1388.90 439.24
  Q 1373.30 428.97 1359.31 418.33
  C 1309.62 380.49 1265.60 329.46 1256.63 265.56
  Q 1254.92 253.36 1255.11 245.62
  Q 1255.62 224.19 1268.81 207.54
  C 1277.65 196.41 1290.17 189.29 1303.99 186.22
  Q 1308.20 185.29 1314.25 185.20
  Q 1321.93 185.07 1324.64 185.52
  C 1337.89 187.70 1350.04 197.18 1359.10 207.79
  C 1369.62 220.10 1377.07 233.45 1388.81 252.35
  C 1392.19 257.80 1397.38 260.56 1403.83 260.56
  Z"
/>
<path fill="#ffffff" d="
  M 1155.68 664.39
  Q 1155.69 664.84 1156.14 664.84
  Q 1167.25 664.84 1280.75 664.83
  Q 1284.09 664.83 1287.99 665.84
  C 1300.08 668.99 1303.37 678.32 1304.66 689.77
  Q 1342.81 1027.44 1387.79 1421.51
  C 1388.35 1426.41 1388.41 1431.72 1386.51 1436.21
  Q 1380.54 1450.29 1363.51 1450.29
  Q 443.43 1450.14 344.00 1450.50
  Q 336.79 1450.52 329.73 1449.56
  C 321.75 1448.48 316.00 1442.02 313.30 1435.01
  Q 312.09 1431.88 312.44 1425.85
  Q 312.90 1418.07 313.42 1413.50
  Q 356.28 1037.63 396.00 686.00
  C 397.01 677.12 400.47 669.67 409.03 666.18
  Q 412.31 664.84 419.16 664.84
  Q 541.20 664.83 554.49 664.85
  Q 555.24 664.85 555.24 664.10
  Q 555.12 610.62 555.30 594.00
  C 555.36 588.34 555.43 577.03 556.37 569.02
  Q 560.13 537.19 572.36 508.13
  Q 575.56 500.52 578.35 495.44
  C 581.42 489.85 583.52 484.71 587.06 478.88
  Q 595.96 464.27 609.05 449.06
  Q 631.30 423.19 660.46 405.69
  Q 662.71 404.34 670.66 399.90
  Q 675.65 397.11 679.88 395.30
  Q 682.25 394.29 689.36 391.20
  Q 712.83 381.02 741.11 376.87
  Q 748.92 375.72 756.40 375.52
  C 762.94 375.34 769.42 374.77 776.86 375.05
  Q 796.73 375.77 799.25 375.96
  C 812.75 376.98 828.99 379.96 843.70 384.83
  C 848.84 386.54 852.78 387.95 857.19 387.24
  Q 858.75 387.00 861.70 386.09
  Q 889.80 377.44 918.88 375.09
  C 927.98 374.35 937.45 374.55 947.47 374.59
  C 954.22 374.61 959.38 375.31 967.53 376.21
  Q 991.58 378.86 1014.11 387.66
  C 1019.62 389.81 1027.29 392.97 1033.34 396.14
  Q 1072.58 416.68 1102.57 450.18
  Q 1126.48 476.89 1139.70 510.53
  Q 1151.84 541.41 1154.83 571.17
  Q 1155.94 582.32 1156.52 603.26
  Q 1156.64 607.57 1156.33 616.26
  C 1156.09 622.97 1156.31 627.85 1156.02 633.60
  Q 1155.37 646.54 1155.68 664.39
  Z
  M 641.00 664.93
  Q 655.88 664.75 715.87 664.87
  A 0.57 0.56 -90.0 0 0 716.43 664.30
  Q 716.43 632.85 716.38 599.54
  Q 716.37 593.44 716.68 588.47
  Q 716.84 585.91 717.34 577.41
  Q 720.34 525.64 747.90 480.37
  Q 760.91 459.00 778.51 440.77
  Q 784.68 434.37 790.94 429.23
  C 793.45 427.17 796.07 424.46 797.70 422.77
  Q 798.65 421.78 797.28 421.85
  C 794.22 422.00 792.26 420.82 789.23 420.76
  Q 767.49 420.34 753.38 422.18
  Q 714.99 427.17 681.28 448.30
  Q 667.22 457.11 657.51 466.51
  C 652.80 471.06 646.64 477.03 642.05 482.68
  C 617.34 513.06 602.46 550.65 601.29 590.10
  C 600.55 615.01 600.94 637.91 600.82 665.25
  A 0.66 0.66 0.0 0 0 601.48 665.91
  L 638.96 665.91
  Q 639.45 665.91 639.81 665.58
  Q 640.52 664.93 641.00 664.93
  Z
  M 917.30 421.44
  C 915.57 421.98 914.53 421.83 912.97 421.84
  A 0.25 0.25 0.0 0 0 912.79 422.25
  C 916.88 427.01 923.14 431.79 926.30 434.79
  C 965.46 472.02 990.20 522.71 993.58 576.88
  Q 993.85 581.24 994.25 589.53
  Q 994.48 594.29 994.46 602.10
  Q 994.39 626.94 994.39 664.19
  A 0.65 0.65 0.0 0 0 995.04 664.84
  L 1109.22 664.84
  Q 1109.96 664.84 1109.96 664.10
  Q 1110.15 617.05 1110.05 608.77
  Q 1109.72 584.02 1107.26 567.76
  C 1104.95 552.51 1100.21 536.19 1093.18 521.79
  C 1089.84 514.95 1086.62 508.29 1083.01 502.48
  Q 1061.59 468.06 1027.87 447.25
  Q 994.34 426.55 956.38 422.01
  Q 940.98 420.17 920.34 420.88
  Q 918.97 420.92 917.30 421.44
  Z
  M 855.43 441.06
  A 1.22 1.22 0.0 0 0 854.42 441.12
  C 819.28 460.09 791.11 490.41 775.98 527.96
  Q 771.72 538.52 767.67 553.59
  Q 763.66 568.50 762.96 579.25
  Q 762.78 582.11 761.76 597.75
  C 761.34 604.28 761.78 610.93 761.78 617.76
  Q 761.79 627.14 761.97 632.74
  Q 762.37 645.51 762.01 664.06
  Q 761.99 664.84 762.77 664.84
  L 948.23 664.84
  A 0.53 0.53 0.0 0 0 948.76 664.31
  Q 948.68 625.74 948.76 601.00
  Q 948.80 588.63 947.95 581.05
  C 942.55 532.69 921.10 488.86 882.60 458.67
  Q 873.87 451.82 862.72 444.79
  Q 859.00 442.44 855.43 441.06
  Z
  M 440.68 710.52
  A 1.00 1.00 0.0 0 0 439.69 711.41
  L 361.08 1403.50
  A 1.00 1.00 0.0 0 0 362.07 1404.61
  L 553.98 1404.61
  A 1.00 1.00 0.0 0 0 554.98 1403.61
  L 557.58 711.52
  A 1.00 1.00 0.0 0 0 556.58 710.52
  L 440.68 710.52
  Z
  M 759.22 847.80
  A 3.30 3.26 26.9 0 1 757.42 848.38
  Q 736.88 848.65 720.73 848.37
  Q 716.46 848.29 716.45 844.06
  Q 716.35 785.04 716.46 711.19
  A 0.67 0.67 0.0 0 0 715.79 710.52
  L 604.44 710.52
  Q 603.16 710.52 603.08 711.80
  C 602.70 717.84 603.09 725.27 603.07 730.07
  Q 602.96 751.91 603.06 775.45
  C 603.10 783.96 602.13 792.88 602.39 800.71
  C 602.63 807.85 601.92 814.89 601.91 823.00
  Q 601.86 869.96 601.91 1074.51
  C 601.91 1083.70 600.98 1092.03 601.30 1099.46
  C 601.58 1105.83 600.83 1112.96 600.83 1119.75
  Q 600.86 1268.23 600.86 1378.26
  Q 600.86 1391.12 599.86 1403.36
  Q 599.75 1404.61 601.00 1404.61
  L 1338.34 1404.61
  Q 1338.93 1404.61 1338.95 1404.01
  Q 1339.04 1399.58 1338.66 1397.06
  Q 1336.29 1381.51 1335.24 1370.39
  Q 1334.86 1366.36 1332.55 1345.75
  Q 1320.43 1237.77 1320.00 1234.10
  Q 1315.93 1199.40 1278.52 870.64
  Q 1266.50 765.02 1261.35 717.97
  Q 1260.96 714.39 1260.49 711.97
  Q 1260.21 710.52 1258.73 710.52
  L 1156.20 710.52
  A 0.59 0.59 0.0 0 0 1155.61 711.11
  Q 1155.67 779.82 1155.59 841.75
  Q 1155.59 846.98 1151.71 848.09
  Q 1150.86 848.34 1145.27 848.42
  Q 1130.92 848.63 1116.57 848.37
  C 1111.79 848.28 1110.28 846.28 1110.12 841.71
  Q 1109.94 836.56 1110.07 813.25
  Q 1110.27 778.43 1109.98 713.81
  Q 1109.97 712.41 1109.96 711.49
  A 0.99 0.98 89.4 0 0 1108.98 710.52
  L 763.03 710.52
  Q 762.10 710.52 762.10 711.45
  Q 762.14 740.02 762.16 779.51
  Q 762.16 788.34 761.81 799.50
  Q 760.88 829.26 761.08 844.01
  Q 761.11 846.49 759.22 847.80
  Z"
/>
</svg>
