<?xml version="1.0" encoding="UTF-8" standalone="no"?>
<!DOCTYPE svg PUBLIC "-//W3C//DTD SVG 1.1//EN" "http://www.w3.org/Graphics/SVG/1.1/DTD/svg11.dtd">
<svg xmlns="http://www.w3.org/2000/svg" version="1.1" viewBox="0.00 0.00 245.00 240.00">
<path fill="#000000" d="
  M 227.61 240.00
  L 11.35 240.00
  C 6.17 239.33 1.99 238.76 0.48 233.82
  Q -0.04 232.11 0.47 228.15
  Q 17.52 95.48 19.12 84.35
  C 20.30 76.10 22.26 69.95 32.02 70.01
  Q 50.80 70.13 59.61 69.81
  A 2.42 2.41 89.3 0 0 61.94 67.41
  Q 62.01 59.49 62.00 44.51
  C 61.99 29.90 66.84 17.05 78.80 8.55
  C 91.08 -0.20 106.47 -1.60 120.28 4.30
  C 122.13 5.09 123.84 4.91 125.94 4.02
  Q 131.42 1.71 134.29 1.35
  C 141.57 0.45 149.79 0.49 156.58 3.18
  Q 176.33 11.01 182.03 31.96
  Q 182.77 34.67 183.08 44.51
  Q 183.28 50.97 182.92 63.26
  Q 182.88 64.40 183.44 67.82
  A 1.51 1.50 19.0 0 0 183.85 68.65
  Q 185.14 69.99 186.76 69.99
  Q 209.20 69.97 214.20 70.08
  C 223.92 70.28 225.24 78.01 226.39 86.70
  Q 236.07 159.78 244.85 229.25
  Q 245.41 233.68 243.74 236.82
  A 1.57 1.53 -0.4 0 1 243.05 237.50
  C 238.00 240.11 233.07 239.58 227.61 240.00
  Z
  M 72.23 69.55
  A 1.07 1.07 0.0 0 0 73.10 70.00
  L 98.41 70.00
  A 1.62 1.62 0.0 0 0 100.03 68.36
  Q 99.95 59.76 100.05 44.76
  Q 100.17 26.70 111.81 13.48
  A 1.44 1.44 0.0 0 0 110.97 11.11
  L 105.74 10.22
  A 10.88 10.24 -38.6 0 0 104.02 10.08
  Q 102.51 10.17 97.07 10.98
  C 85.52 12.70 76.85 21.45 73.34 32.23
  Q 72.36 35.24 71.99 40.30
  C 71.30 49.92 72.00 59.39 72.01 69.15
  A 0.27 0.24 30.1 0 0 72.06 69.30
  L 72.23 69.55
  Z
  M 173.95 69.26
  C 174.19 67.17 174.03 64.09 174.40 60.58
  Q 175.86 46.66 173.50 35.05
  C 171.29 24.21 162.31 13.81 151.50 11.73
  Q 144.12 10.30 136.59 11.23
  C 135.52 11.36 134.38 12.58 135.36 13.68
  C 141.63 20.76 145.19 29.39 146.32 39.62
  Q 147.69 52.02 146.22 65.26
  Q 145.97 67.48 146.75 68.93
  A 2.00 1.98 -13.9 0 0 148.51 69.98
  L 173.14 70.01
  A 0.81 0.81 0.0 0 0 173.95 69.26
  Z
  M 111.46 70.01
  L 134.56 70.01
  A 2.46 2.46 0.0 0 0 137.02 67.55
  L 137.02 45.95
  A 28.08 13.86 -90.0 0 0 123.16 17.87
  L 122.86 17.87
  A 28.08 13.86 90.0 0 0 109.00 45.95
  L 109.00 67.55
  A 2.46 2.46 0.0 0 0 111.46 70.01
  Z
  M 30.96 79.01
  A 1.55 1.55 0.0 0 0 29.42 80.36
  L 9.79 229.26
  A 1.55 1.55 0.0 0 0 11.33 231.01
  L 172.45 231.01
  A 1.55 1.55 0.0 0 0 174.00 229.46
  L 174.00 80.56
  A 1.55 1.55 0.0 0 0 172.45 79.01
  L 30.96 79.01
  Z
  M 233.86 231.06
  A 1.10 1.09 -88.9 0 0 234.95 230.00
  Q 235.09 226.11 234.64 222.67
  Q 225.45 153.20 216.40 83.38
  Q 216.12 81.26 215.67 80.29
  A 2.22 2.22 0.0 0 0 213.66 79.01
  L 184.88 78.98
  A 1.92 1.92 0.0 0 0 182.96 80.90
  Q 183.09 175.98 182.91 228.02
  C 182.90 231.43 185.09 230.96 188.02 230.97
  Q 220.84 231.10 233.86 231.06
  Z"
/>
</svg>
