<?xml version="1.0" encoding="UTF-8" standalone="no"?>
<!DOCTYPE svg PUBLIC "-//W3C//DTD SVG 1.1//EN" "http://www.w3.org/Graphics/SVG/1.1/DTD/svg11.dtd">
<svg xmlns="http://www.w3.org/2000/svg" version="1.1" viewBox="0.00 0.00 1000.00 1093.00">
<path fill="#000000" d="
  M 827.79 121.67
  Q 828.02 121.67 828.17 121.38
  Q 836.82 104.91 852.08 95.11
  Q 856.07 92.54 864.68 89.34
  Q 865.17 89.16 865.68 89.26
  Q 866.41 89.40 867.05 88.85
  Q 867.45 88.50 867.98 88.49
  Q 870.12 88.45 871.30 87.96
  Q 872.65 87.41 874.52 87.26
  Q 880.77 86.76 887.00 87.39
  C 888.55 87.55 889.44 88.41 890.99 88.36
  C 892.62 88.31 893.59 89.41 895.20 89.24
  Q 895.53 89.21 896.92 89.67
  Q 920.43 97.46 931.48 119.77
  Q 936.06 129.02 937.02 138.78
  Q 937.69 145.72 937.12 152.60
  Q 934.65 182.11 919.13 208.21
  C 910.30 223.07 898.36 236.81 885.80 248.55
  Q 860.64 272.06 829.74 288.44
  Q 829.01 288.83 827.62 288.83
  Q 826.24 288.83 825.51 288.44
  Q 794.64 271.99 769.53 248.43
  C 756.99 236.67 745.08 222.90 736.28 208.02
  Q 720.82 181.89 718.41 152.38
  Q 717.85 145.50 718.53 138.56
  Q 719.51 128.80 724.11 119.56
  Q 735.21 97.27 758.73 89.53
  Q 760.12 89.07 760.45 89.10
  C 762.06 89.28 763.04 88.18 764.67 88.23
  C 766.22 88.28 767.11 87.43 768.66 87.27
  Q 774.89 86.65 781.14 87.16
  Q 783.01 87.32 784.36 87.87
  Q 785.54 88.36 787.68 88.41
  Q 788.21 88.42 788.61 88.77
  Q 789.24 89.32 789.97 89.18
  Q 790.48 89.08 790.97 89.26
  Q 799.58 92.48 803.56 95.06
  Q 818.80 104.89 827.42 121.38
  Q 827.57 121.67 827.79 121.67
  Z
  M 771.02 102.44
  Q 759.08 103.73 749.77 111.06
  Q 737.37 120.82 734.07 136.10
  C 733.79 137.39 733.82 138.69 733.42 139.82
  Q 732.93 141.20 732.94 142.55
  Q 733.01 149.30 733.04 149.96
  C 733.13 151.98 733.78 153.58 733.78 155.81
  Q 733.78 157.45 734.37 160.22
  Q 736.36 169.59 737.25 172.83
  Q 739.38 180.62 743.80 190.01
  Q 750.91 205.10 762.47 219.11
  Q 764.58 221.66 768.68 226.34
  Q 771.98 230.10 775.19 233.19
  Q 798.46 255.61 827.06 272.23
  Q 827.46 272.47 827.88 272.24
  Q 846.10 262.19 865.39 246.40
  Q 884.36 230.86 895.91 215.43
  Q 904.65 203.76 907.07 199.09
  Q 911.74 190.11 912.92 187.42
  Q 917.53 176.99 920.09 165.79
  C 921.00 161.84 921.35 156.92 922.12 152.63
  Q 922.45 150.84 922.15 139.55
  Q 922.13 138.57 921.71 137.58
  Q 921.32 136.67 921.19 135.57
  Q 920.99 133.86 920.58 132.54
  Q 915.31 115.84 900.14 107.44
  C 898.59 106.58 896.39 105.90 894.68 104.84
  A 1.99 1.93 -27.5 0 0 893.74 104.56
  Q 892.51 104.51 891.92 103.93
  Q 891.52 103.55 890.98 103.65
  Q 890.02 103.83 888.89 103.19
  Q 888.44 102.93 887.93 102.92
  Q 885.26 102.84 884.06 102.41
  Q 882.15 101.75 880.49 101.94
  Q 878.55 102.16 875.72 101.89
  Q 875.33 101.85 875.27 101.89
  Q 875.04 102.01 874.87 102.20
  A 0.95 0.94 -70.7 0 1 874.32 102.47
  Q 867.22 103.29 860.78 107.53
  Q 856.91 110.09 855.92 110.92
  C 846.47 118.97 840.83 128.53 833.09 140.90
  Q 833.06 140.95 832.17 142.70
  C 831.17 144.66 829.18 147.32 826.67 146.74
  Q 825.54 146.48 824.42 144.52
  Q 818.44 134.11 810.34 122.51
  Q 801.37 109.67 788.36 104.15
  C 787.11 103.62 785.49 103.64 784.88 102.92
  A 0.72 0.71 65.1 0 0 784.23 102.68
  Q 782.69 102.91 781.50 102.36
  Q 780.47 101.89 779.16 101.91
  Q 776.02 101.95 772.50 101.88
  Q 772.16 101.87 771.88 102.09
  Q 771.50 102.38 771.02 102.44
  Z"
/>
<path fill="#ffffff" d="
  M 193.94 788.86
  Q 195.67 774.16 196.53 765.74
  Q 198.28 748.65 200.14 731.48
  Q 200.27 730.22 200.27 730.14
  Q 200.21 729.52 200.53 728.86
  C 201.30 727.29 201.00 725.13 201.19 723.72
  Q 201.96 718.15 202.11 712.53
  A 0.62 0.59 73.2 0 1 202.34 712.07
  Q 202.49 711.95 202.54 711.90
  Q 202.68 711.77 202.70 711.55
  Q 203.28 706.25 203.52 703.76
  Q 203.57 703.23 204.29 697.25
  Q 204.59 694.78 204.98 690.75
  Q 206.98 670.49 207.53 666.99
  Q 208.69 659.66 209.12 652.25
  Q 209.15 651.74 209.35 651.36
  Q 209.59 650.93 209.63 650.44
  L 210.92 635.75
  Q 210.96 635.33 211.21 635.00
  Q 211.38 634.78 211.41 634.49
  Q 214.38 606.87 214.49 605.93
  Q 215.88 593.80 215.98 592.25
  Q 216.13 589.70 216.82 585.93
  Q 217.20 583.87 217.55 579.56
  Q 217.76 577.00 218.42 572.49
  Q 219.14 567.49 219.04 565.34
  C 218.97 563.63 219.98 562.51 219.85 560.49
  Q 219.78 559.30 219.91 558.51
  C 222.05 545.11 223.35 526.95 225.42 510.58
  Q 226.81 499.60 227.74 490.43
  C 227.82 489.67 227.57 487.55 227.99 486.41
  Q 228.38 485.35 228.42 484.76
  Q 228.49 483.37 229.24 477.02
  Q 232.31 451.20 232.87 444.88
  Q 233.23 440.85 233.92 435.66
  Q 234.73 429.50 234.82 426.43
  C 234.85 425.09 235.62 424.42 235.51 422.96
  Q 235.45 422.11 235.53 421.52
  Q 236.35 415.33 236.55 409.92
  Q 236.57 409.40 236.88 408.99
  L 237.14 408.65
  Q 237.31 408.43 237.29 408.15
  Q 237.16 405.69 237.68 402.61
  C 237.98 400.83 239.06 399.74 239.84 397.80
  A 1.01 1.00 -83.8 0 1 240.58 397.20
  Q 242.37 396.86 243.49 396.17
  Q 244.11 395.79 246.72 395.79
  Q 308.01 395.81 326.77 395.75
  Q 328.72 395.74 330.10 394.18
  Q 330.44 393.79 330.44 393.27
  Q 330.45 392.35 330.92 391.80
  Q 331.24 391.43 331.24 390.94
  Q 331.27 366.81 331.24 345.86
  C 331.23 341.12 331.88 336.19 332.33 331.50
  Q 332.35 331.27 332.62 330.86
  Q 332.82 330.54 332.87 330.21
  Q 334.15 321.88 336.67 313.01
  Q 337.07 311.58 337.12 311.20
  Q 337.24 310.24 337.66 309.47
  C 338.68 307.61 339.06 304.94 340.08 302.99
  C 342.00 299.30 343.84 294.85 346.22 290.72
  C 346.98 289.41 347.16 287.79 347.90 286.70
  Q 350.79 282.43 353.61 278.15
  C 356.01 274.51 360.00 269.98 362.91 266.39
  Q 364.99 263.82 366.92 261.92
  Q 374.94 254.07 380.29 250.04
  Q 381.85 248.87 391.25 242.55
  C 393.87 240.79 396.77 239.89 399.50 237.73
  C 400.18 237.19 401.70 237.25 402.74 236.72
  Q 405.97 235.10 409.22 233.54
  C 411.53 232.44 414.40 231.96 417.09 230.45
  Q 417.54 230.19 418.04 230.28
  Q 419.53 230.51 420.11 229.82
  A 0.86 0.82 18.2 0 1 420.74 229.52
  Q 422.60 229.51 425.16 228.57
  Q 426.87 227.94 429.45 227.48
  Q 436.18 226.28 439.58 225.72
  Q 440.27 225.61 442.44 225.58
  C 443.80 225.55 445.03 225.07 446.29 225.07
  Q 456.01 225.02 465.73 225.05
  C 467.86 225.06 470.34 225.76 472.84 225.48
  Q 473.34 225.43 473.81 225.62
  C 475.08 226.16 476.35 225.75 477.51 226.25
  Q 478.59 226.72 479.10 226.75
  Q 479.58 226.77 484.61 227.49
  Q 486.28 227.73 489.26 228.67
  Q 490.29 228.99 492.40 229.42
  Q 493.72 229.69 495.53 230.33
  Q 497.80 231.14 501.27 232.13
  Q 503.65 232.81 506.77 232.00
  Q 511.13 230.86 512.61 230.35
  Q 516.65 228.96 520.26 228.65
  Q 520.73 228.61 521.22 228.04
  A 1.17 1.11 16.1 0 1 521.97 227.65
  L 530.37 226.75
  Q 530.58 226.73 530.75 226.61
  L 531.15 226.31
  Q 531.26 226.23 531.38 226.21
  Q 535.31 225.51 539.08 225.47
  C 539.89 225.46 540.59 224.99 541.68 225.02
  Q 546.84 225.13 548.76 225.01
  Q 548.94 225.00 549.19 224.71
  A 1.03 1.02 22.1 0 1 549.99 224.38
  Q 550.49 224.40 556.75 224.40
  Q 557.27 224.40 558.08 224.84
  Q 558.52 225.08 559.02 225.06
  Q 567.24 224.78 575.14 226.40
  Q 578.95 227.18 581.31 227.51
  Q 582.57 227.68 585.13 228.53
  Q 586.51 228.99 589.00 229.55
  Q 590.68 229.93 595.76 231.78
  Q 599.31 233.06 602.22 234.60
  C 605.21 236.17 608.06 237.05 611.19 238.92
  Q 622.71 245.80 626.83 249.26
  Q 632.17 253.77 635.30 256.00
  C 637.94 257.88 639.78 260.83 642.29 262.97
  C 644.91 265.19 646.68 267.49 648.84 270.01
  Q 656.46 278.94 662.44 289.38
  C 664.45 292.90 665.90 296.92 667.67 300.72
  Q 670.82 307.50 671.70 311.26
  Q 673.23 317.77 673.76 319.00
  Q 673.95 319.46 673.90 319.95
  C 673.74 321.39 674.55 322.06 674.76 323.17
  Q 675.55 327.20 675.83 329.67
  Q 675.86 329.91 676.05 330.05
  L 676.36 330.28
  A 0.26 0.25 17.2 0 1 676.46 330.46
  Q 676.92 336.73 677.17 338.25
  C 677.76 341.92 677.47 344.92 677.58 349.41
  C 677.61 350.64 678.35 351.65 678.33 352.68
  Q 678.21 360.54 678.19 368.40
  C 678.19 369.11 677.74 369.96 677.71 370.49
  Q 677.26 376.85 677.62 391.05
  Q 677.63 391.52 677.90 391.91
  Q 678.28 392.43 678.29 393.12
  Q 678.30 393.62 678.58 394.03
  Q 679.80 395.80 682.25 395.80
  Q 748.45 395.78 755.63 395.84
  Q 759.27 395.87 762.66 398.74
  Q 763.77 399.68 764.22 401.36
  Q 764.27 401.55 764.77 404.29
  Q 765.77 409.67 765.86 411.84
  C 765.92 413.02 766.39 414.64 766.28 416.49
  C 766.19 418.03 766.76 419.25 766.90 420.51
  Q 767.70 427.63 768.02 433.09
  C 768.09 434.25 768.64 435.19 768.71 436.50
  Q 769.10 444.00 770.44 452.04
  Q 770.70 453.62 771.14 458.01
  Q 771.49 461.49 771.59 464.03
  A 1.17 1.12 28.2 0 0 771.79 464.64
  C 772.55 465.76 772.15 466.97 772.25 468.03
  Q 773.00 475.57 773.36 478.97
  C 773.43 479.72 773.86 480.32 773.89 480.98
  Q 774.12 486.16 775.09 493.44
  Q 775.86 499.22 776.15 502.61
  C 776.56 507.27 777.17 511.22 777.46 514.89
  Q 778.25 524.79 779.99 535.44
  Q 780.04 535.78 780.11 538.59
  Q 780.15 540.36 780.74 541.33
  Q 781.00 541.77 780.98 542.27
  Q 780.86 544.61 781.10 546.11
  Q 781.58 549.12 781.50 549.97
  Q 781.36 551.41 781.77 552.60
  Q 782.15 553.68 782.25 555.06
  Q 782.67 561.15 783.65 567.13
  Q 784.14 570.19 784.38 574.22
  C 784.68 579.48 785.67 584.97 786.05 589.27
  Q 786.52 594.52 788.59 612.41
  Q 788.62 612.66 789.17 614.50
  Q 789.39 615.24 789.20 616.43
  Q 789.11 616.95 789.30 617.44
  C 790.20 619.68 789.13 622.20 790.10 624.42
  C 790.52 625.38 789.95 627.59 790.55 629.15
  Q 791.21 630.88 790.89 633.36
  Q 790.83 633.85 791.00 634.31
  C 791.85 636.65 791.43 639.31 792.06 642.16
  Q 792.56 644.41 792.74 646.39
  Q 795.03 670.54 797.23 688.98
  Q 797.29 689.47 797.57 689.88
  Q 797.73 690.11 797.90 690.46
  Q 798.05 690.77 798.02 691.08
  Q 797.75 694.26 798.36 696.39
  C 798.67 697.48 798.31 698.85 798.52 700.04
  Q 798.93 702.28 798.94 702.73
  C 798.99 704.03 798.69 705.11 799.38 706.34
  Q 799.82 707.12 799.81 708.78
  Q 799.80 710.82 799.84 711.21
  Q 802.28 731.63 805.97 766.28
  Q 806.02 766.77 806.28 767.07
  Q 806.59 767.40 806.62 767.84
  L 807.80 782.56
  Q 807.84 783.05 808.10 783.48
  C 808.84 784.70 808.39 786.40 808.53 787.52
  Q 808.97 791.09 809.37 795.66
  C 809.68 799.33 810.79 803.45 810.83 806.80
  C 810.86 808.95 811.71 810.67 811.39 812.82
  C 811.21 814.05 811.84 815.38 811.93 816.51
  Q 812.43 823.01 813.07 829.49
  Q 813.16 830.41 813.57 831.33
  Q 813.77 831.79 813.75 832.29
  Q 813.63 835.33 814.01 837.11
  C 814.40 838.96 814.81 843.08 814.11 844.81
  C 812.92 847.72 810.61 850.75 807.14 850.57
  Q 806.80 850.55 806.62 850.83
  Q 806.53 850.97 806.39 851.04
  Q 806.09 851.19 806.00 851.19
  L 196.77 851.19
  A 1.63 1.61 -29.0 0 1 195.92 850.95
  C 194.88 850.31 194.10 850.71 193.11 850.11
  C 190.56 848.57 190.04 847.11 188.36 845.20
  Q 188.03 844.81 188.03 844.30
  C 188.06 841.35 187.68 839.39 188.30 836.91
  C 189.22 833.30 189.09 828.20 189.72 824.06
  Q 191.09 815.06 191.62 806.33
  Q 191.64 806.04 191.83 805.70
  Q 192.07 805.27 192.09 805.07
  Q 192.88 797.01 193.39 789.75
  Q 193.40 789.51 193.63 789.36
  A 0.71 0.70 -13.4 0 0 193.94 788.86
  Z
  M 351.27 344.98
  C 350.91 345.76 350.73 346.37 350.72 347.27
  Q 350.47 368.53 350.48 390.79
  Q 350.48 394.49 353.09 395.97
  Q 354.47 396.76 358.14 396.76
  Q 359.61 396.76 376.07 396.74
  C 377.65 396.74 378.73 395.79 380.52 395.79
  Q 403.72 395.82 421.74 395.77
  C 423.24 395.77 425.17 395.08 425.62 393.50
  C 425.98 392.22 426.49 391.57 426.49 390.22
  Q 426.51 368.40 426.50 346.58
  Q 426.50 345.96 426.81 341.93
  Q 426.95 340.06 426.95 337.25
  Q 426.95 334.06 428.70 325.66
  Q 431.40 312.73 436.06 301.16
  Q 436.25 300.69 436.21 300.18
  Q 436.14 299.44 436.65 299.14
  Q 437.01 298.92 437.19 298.55
  C 440.73 291.45 442.57 287.33 446.28 282.18
  Q 447.92 279.90 450.60 275.85
  Q 453.52 271.41 457.59 267.09
  Q 459.85 264.69 465.66 258.33
  C 467.14 256.70 469.02 256.47 470.50 254.49
  Q 471.67 252.91 472.56 252.18
  Q 473.84 251.12 473.93 249.64
  Q 474.08 247.27 472.48 245.91
  Q 471.41 245.00 470.45 245.14
  Q 469.62 245.26 468.25 244.74
  Q 467.03 244.27 465.05 244.26
  C 462.29 244.25 453.51 243.89 447.49 244.48
  C 444.02 244.82 442.15 245.08 439.59 245.62
  Q 438.61 245.82 436.75 246.00
  Q 435.49 246.11 424.58 249.34
  Q 419.12 250.96 413.53 253.61
  Q 404.29 258.00 402.89 258.89
  Q 393.56 264.85 389.11 268.60
  Q 377.51 278.37 368.14 292.03
  Q 366.63 294.23 365.32 296.80
  C 364.06 299.26 363.22 301.27 362.13 302.73
  C 361.51 303.55 361.33 304.77 361.01 305.42
  C 359.28 308.91 358.14 310.94 357.18 314.17
  C 356.45 316.63 354.73 320.44 354.36 323.21
  Q 354.12 324.96 353.20 327.50
  C 351.95 330.99 352.03 335.39 351.18 339.28
  Q 350.60 341.96 351.31 344.01
  Q 351.48 344.50 351.27 344.98
  Z
  M 572.47 299.85
  Q 572.54 300.87 574.54 306.02
  Q 576.04 309.87 576.59 312.16
  Q 576.62 312.31 578.49 318.89
  Q 579.32 321.85 579.70 324.18
  Q 580.14 326.84 580.64 329.51
  Q 580.70 329.85 580.90 330.06
  Q 581.19 330.38 581.19 330.81
  C 581.18 333.44 581.92 335.96 581.79 338.13
  C 581.65 340.56 582.23 342.87 582.23 345.01
  Q 582.25 358.39 582.23 389.70
  Q 582.23 390.80 582.57 391.81
  C 583.35 394.16 583.98 395.77 587.01 395.77
  Q 625.06 395.84 653.23 395.76
  Q 658.13 395.75 658.17 391.19
  Q 658.29 376.17 658.26 348.52
  C 658.26 347.41 657.74 346.73 657.76 345.50
  Q 657.86 340.58 657.11 335.26
  Q 657.06 334.89 656.93 334.73
  Q 656.56 334.29 656.57 333.91
  Q 656.64 331.19 655.84 328.40
  Q 654.49 323.68 654.37 323.14
  Q 653.41 318.97 651.72 315.01
  C 651.31 314.05 651.31 312.70 650.75 311.56
  Q 647.96 305.90 644.62 299.18
  C 644.25 298.45 644.23 297.61 643.82 296.98
  Q 637.66 287.36 633.57 282.62
  Q 628.17 276.36 620.18 269.06
  Q 614.89 264.24 603.73 257.78
  Q 599.66 255.43 589.92 251.23
  C 586.72 249.85 583.50 249.18 580.14 247.96
  C 579.20 247.61 578.38 247.85 577.41 247.48
  C 575.54 246.77 574.18 246.55 572.43 246.13
  C 571.31 245.87 569.72 246.28 568.71 245.41
  Q 568.30 245.07 567.78 245.21
  C 566.66 245.51 566.02 244.87 564.92 244.77
  Q 555.96 243.93 542.94 244.34
  Q 541.56 244.38 540.85 244.65
  C 538.95 245.37 537.49 244.76 535.91 246.24
  Q 534.41 247.64 535.00 250.60
  A 1.32 1.32 0.0 0 0 535.49 251.41
  Q 536.83 252.47 538.07 254.20
  C 538.97 255.45 540.05 256.19 541.30 256.99
  Q 542.27 257.62 543.70 259.06
  Q 551.95 267.38 558.00 275.39
  C 558.82 276.48 559.30 277.84 560.23 279.03
  C 564.65 284.68 568.18 291.29 571.45 298.50
  Q 571.47 298.56 571.70 298.82
  Q 571.83 298.98 572.01 299.06
  Q 572.43 299.26 572.47 299.85
  Z
  M 448.44 327.52
  Q 447.30 329.87 447.51 332.03
  Q 447.57 332.55 447.19 332.91
  Q 446.83 333.24 446.71 334.04
  Q 445.28 343.90 445.81 354.46
  C 445.85 355.37 445.61 355.71 445.19 356.56
  Q 444.96 357.01 444.97 357.52
  Q 445.01 363.41 444.97 366.03
  C 444.94 367.28 445.74 367.89 445.73 369.20
  Q 445.67 382.46 445.77 392.74
  A 2.79 2.77 -86.8 0 0 448.20 395.47
  Q 450.31 395.73 451.55 395.74
  Q 536.20 395.94 558.12 395.71
  C 561.06 395.68 563.04 395.24 563.04 391.65
  Q 563.03 368.03 563.04 343.52
  Q 563.04 342.42 562.75 341.54
  C 562.24 339.96 562.67 338.35 562.29 336.51
  Q 561.58 333.09 561.49 332.61
  Q 561.07 330.55 560.45 328.81
  Q 559.37 325.82 559.22 323.93
  Q 558.96 320.82 558.09 319.00
  Q 557.79 318.36 556.06 313.11
  Q 555.00 309.90 553.77 307.38
  Q 550.73 301.12 547.86 295.82
  C 546.06 292.50 543.31 288.96 541.55 286.51
  Q 539.09 283.07 536.71 280.58
  Q 533.33 277.06 532.25 275.83
  C 529.90 273.14 527.10 271.33 524.68 269.06
  C 520.55 265.18 513.68 261.04 510.66 258.72
  C 508.74 257.24 505.92 256.48 504.31 255.98
  Q 503.84 255.83 503.42 256.10
  C 502.73 256.55 501.81 256.49 500.95 256.99
  Q 489.74 263.61 480.85 271.62
  Q 478.23 273.97 476.14 276.37
  C 473.73 279.16 470.24 281.90 468.19 285.00
  Q 466.45 287.62 465.18 289.10
  Q 462.90 291.76 460.95 295.42
  Q 459.64 297.88 455.27 306.44
  Q 453.79 309.34 452.29 313.88
  Q 451.09 317.48 449.78 321.50
  Q 449.70 321.73 449.31 324.58
  Q 449.08 326.19 448.44 327.52
  Z
  M 260.06 414.76
  A 4.69 4.69 0.0 0 0 255.40 418.92
  L 209.05 826.53
  A 4.69 4.69 0.0 0 0 213.71 831.75
  L 326.45 831.75
  A 4.69 4.69 0.0 0 0 331.14 827.07
  L 332.42 419.46
  A 4.69 4.69 0.0 0 0 327.73 414.76
  L 260.06 414.76
  Z
  M 426.53 495.92
  Q 426.46 466.75 426.50 420.02
  Q 426.50 416.76 423.81 415.41
  Q 422.46 414.73 419.08 414.74
  Q 418.99 414.74 358.29 414.75
  Q 355.24 414.75 353.93 415.57
  Q 351.73 416.94 351.74 420.00
  Q 351.76 442.03 351.74 470.77
  Q 351.74 471.24 351.49 471.65
  C 351.18 472.15 351.00 472.32 351.00 472.99
  Q 351.06 644.49 350.89 646.29
  C 350.80 647.32 350.53 648.50 350.53 649.28
  Q 350.55 734.16 350.52 819.04
  Q 350.51 821.10 350.09 823.94
  Q 349.77 826.09 350.12 828.86
  A 2.57 2.57 0.0 0 0 351.97 831.00
  C 352.98 831.28 354.35 831.75 355.73 831.75
  Q 625.54 831.75 788.69 831.75
  Q 790.58 831.75 792.18 830.42
  Q 793.40 829.42 793.37 827.31
  Q 793.33 823.22 793.10 822.49
  C 792.47 820.41 793.24 818.72 792.17 816.66
  A 1.69 1.65 -56.5 0 1 791.99 815.72
  Q 792.18 813.74 791.94 812.79
  Q 791.52 811.11 791.53 809.65
  Q 791.53 808.09 791.29 807.35
  C 790.74 805.66 791.21 803.93 790.84 802.08
  Q 790.34 799.59 790.29 799.12
  Q 787.21 771.24 786.81 766.75
  Q 786.55 763.79 786.50 763.60
  C 785.86 761.22 786.21 758.62 785.46 756.69
  C 784.69 754.68 785.39 752.42 784.82 750.71
  C 784.30 749.15 784.66 747.66 784.36 745.79
  Q 783.99 743.50 784.03 742.17
  C 784.10 740.33 783.12 739.11 783.31 737.69
  Q 783.34 737.40 783.17 736.02
  Q 782.23 728.70 780.90 716.27
  Q 780.82 715.53 780.48 713.83
  C 780.07 711.75 780.14 709.24 779.93 707.67
  C 779.39 703.55 779.21 699.96 778.63 695.93
  C 778.11 692.24 778.03 688.75 777.43 685.04
  Q 776.08 676.54 775.90 672.34
  Q 775.83 670.47 775.21 668.26
  C 774.86 667.01 775.54 664.23 774.73 662.83
  Q 774.49 662.40 774.52 661.90
  Q 774.67 659.55 774.17 657.22
  C 773.90 655.97 774.28 654.54 773.92 653.35
  Q 773.47 651.82 773.33 650.58
  Q 770.84 628.30 768.56 606.00
  Q 768.44 604.84 767.87 602.81
  C 767.29 600.70 767.83 598.56 767.11 596.38
  A 2.08 2.06 39.8 0 1 767.02 595.42
  Q 767.39 592.81 766.51 591.26
  Q 766.25 590.81 766.28 590.30
  Q 766.40 588.12 766.23 587.37
  Q 765.87 585.77 765.78 584.09
  Q 765.58 580.50 764.87 575.23
  Q 763.69 566.48 761.43 544.21
  Q 761.42 544.08 761.33 543.10
  Q 760.92 538.90 759.99 529.76
  C 759.79 527.83 758.73 525.28 758.76 523.67
  Q 758.82 520.96 758.46 519.52
  Q 758.16 518.35 758.31 515.28
  Q 758.36 514.44 757.85 513.79
  Q 757.56 513.40 757.53 512.91
  Q 757.23 507.37 756.32 499.01
  Q 756.29 498.75 756.08 498.58
  A 0.33 0.30 18.0 0 1 755.95 498.35
  L 750.14 443.75
  Q 750.08 443.23 749.86 442.75
  C 749.19 441.27 749.80 439.84 749.43 438.34
  Q 748.85 436.03 748.82 435.55
  Q 748.58 432.54 748.38 429.52
  Q 748.25 427.52 747.98 426.52
  Q 747.57 424.98 747.81 423.48
  C 747.97 422.50 747.58 421.81 747.14 420.72
  Q 746.95 420.25 747.00 419.76
  C 747.15 418.40 746.82 416.38 745.30 415.76
  C 743.84 415.17 742.87 414.74 741.22 414.74
  Q 711.78 414.76 686.13 414.74
  C 680.78 414.73 677.46 415.07 677.47 421.25
  Q 677.51 449.10 677.49 495.92
  Q 677.49 496.43 676.98 496.43
  L 658.80 496.43
  Q 658.29 496.43 658.29 495.92
  L 658.23 420.25
  C 658.23 415.47 655.32 414.76 651.08 414.76
  Q 536.11 414.74 449.74 414.76
  A 4.02 4.02 0.0 0 0 445.72 418.78
  L 445.72 474.25
  A 0.92 0.87 -22.6 0 1 445.43 474.90
  Q 445.31 475.01 445.23 475.08
  Q 444.99 475.28 444.99 475.59
  L 444.99 495.84
  A 0.63 0.62 -0.0 0 1 444.36 496.46
  L 427.08 496.46
  Q 426.54 496.46 426.53 495.92
  Z"
/>
</svg>
