<?xml version="1.0" encoding="UTF-8" standalone="no"?>
<!DOCTYPE svg PUBLIC "-//W3C//DTD SVG 1.1//EN" "http://www.w3.org/Graphics/SVG/1.1/DTD/svg11.dtd">
<svg xmlns="http://www.w3.org/2000/svg" version="1.1" viewBox="0.00 0.00 400.00 436.00">
<path fill="#ff2a4e" d="
  M 331.70 45.38
  L 336.66 39.15
  Q 337.02 38.71 337.59 38.66
  C 338.67 38.56 339.07 37.46 340.14 36.80
  Q 351.50 29.88 363.43 35.13
  Q 364.40 35.56 365.50 36.51
  C 366.57 37.45 367.50 37.45 368.59 38.49
  Q 378.23 47.67 377.48 60.30
  Q 376.61 75.07 366.93 88.82
  Q 365.30 91.14 364.10 92.29
  Q 363.08 93.29 362.15 94.55
  Q 361.52 95.41 360.17 96.77
  Q 348.31 108.76 333.79 116.54
  C 332.34 117.32 330.47 117.09 328.93 116.26
  Q 310.32 106.22 297.51 90.03
  C 288.10 78.14 280.39 56.59 290.94 42.91
  C 291.51 42.17 292.58 41.69 292.75 40.55
  A 0.94 0.94 0.0 0 1 293.25 39.85
  Q 293.53 39.70 293.84 39.68
  Q 294.37 39.64 294.66 39.20
  Q 295.82 37.44 297.49 36.46
  Q 308.68 29.87 320.63 35.25
  Q 321.64 35.70 322.36 36.43
  C 323.04 37.11 324.00 37.15 324.85 37.86
  Q 328.48 40.89 331.01 44.07
  Q 331.27 44.40 331.34 44.97
  Q 331.35 45.09 331.42 45.33
  Q 331.50 45.63 331.70 45.38
  Z
  M 319.34 46.15
  Q 313.87 40.99 306.61 43.13
  Q 301.33 44.68 298.32 49.36
  C 291.19 60.46 299.96 77.65 307.28 86.49
  Q 307.80 87.12 307.91 87.25
  Q 315.97 96.96 329.17 104.99
  C 330.76 105.96 331.74 106.40 333.50 105.34
  Q 347.83 96.67 356.73 85.77
  Q 364.69 76.01 367.59 62.40
  Q 368.18 59.64 367.72 57.16
  C 367.04 53.44 366.04 49.96 363.46 47.40
  Q 360.98 44.95 358.76 43.93
  Q 354.02 41.73 349.13 43.08
  Q 345.73 44.01 341.80 48.24
  Q 337.28 53.10 334.62 58.87
  A 1.35 1.35 0.0 0 1 333.94 59.55
  Q 331.73 60.58 329.26 59.41
  Q 328.77 59.18 328.57 58.68
  Q 326.23 52.88 321.95 48.74
  A 1.53 1.51 -72.8 0 1 321.51 47.89
  Q 321.35 46.79 320.22 46.59
  Q 319.72 46.51 319.34 46.15
  Z"
/>
<path fill="#000000" d="
  M 130.59 154.84
  Q 131.20 153.06 130.88 151.05
  Q 130.39 147.96 130.39 147.42
  C 130.36 144.74 130.35 142.53 130.69 139.51
  Q 130.93 137.38 131.03 136.02
  Q 132.70 114.10 149.27 99.58
  C 150.13 98.82 151.34 98.65 151.84 97.95
  Q 152.14 97.52 152.76 97.12
  Q 175.10 82.61 201.19 90.85
  Q 202.47 91.26 203.75 90.82
  C 207.28 89.61 210.17 89.15 214.12 88.57
  Q 232.87 85.80 248.95 95.35
  Q 249.81 95.86 250.72 96.74
  C 251.51 97.51 252.45 97.72 253.28 98.42
  Q 260.81 104.82 264.29 110.49
  Q 276.49 130.34 273.26 155.49
  Q 273.19 155.98 273.69 155.98
  Q 290.48 156.03 301.77 155.97
  Q 304.87 155.95 306.33 157.13
  Q 307.78 158.31 308.26 160.91
  Q 308.41 161.70 309.33 169.47
  Q 309.71 172.68 314.46 214.02
  Q 315.00 218.74 326.85 322.01
  C 327.04 323.62 326.96 324.86 327.30 326.34
  Q 328.17 330.13 328.02 335.90
  Q 327.95 338.57 326.59 339.79
  C 324.94 341.26 323.43 341.00 321.30 341.00
  Q 199.39 341.00 77.59 341.00
  A 2.74 2.73 72.1 0 1 75.37 339.86
  L 73.64 337.46
  A 2.90 2.86 30.9 0 1 73.12 335.45
  Q 82.03 258.04 89.78 191.00
  C 89.96 189.42 90.08 185.99 90.59 183.99
  C 91.27 181.33 90.94 178.82 91.47 175.94
  Q 91.89 173.67 92.02 171.43
  Q 92.21 168.08 92.57 166.87
  C 93.23 164.70 92.93 162.69 93.24 160.21
  Q 93.30 159.71 93.59 159.37
  Q 93.65 159.29 93.92 159.03
  Q 94.24 158.70 94.37 158.25
  Q 94.98 156.09 97.13 156.07
  Q 120.77 155.93 126.51 156.02
  Q 128.91 156.05 130.00 155.52
  Q 130.44 155.30 130.59 154.84
  Z
  M 145.36 124.77
  C 142.50 131.76 142.77 137.20 142.58 146.07
  C 142.53 148.51 141.71 151.76 142.11 154.70
  A 1.73 1.71 85.8 0 0 143.82 156.19
  Q 155.31 156.19 166.32 156.03
  Q 169.73 155.98 169.31 152.37
  Q 168.71 147.22 168.84 139.95
  Q 168.96 133.22 170.34 127.69
  Q 173.13 116.54 179.93 107.52
  Q 183.26 103.10 187.33 99.75
  Q 187.74 99.42 187.23 99.28
  C 184.53 98.54 181.88 99.54 179.97 99.70
  C 163.89 101.07 151.51 109.74 145.36 124.77
  Z
  M 258.70 124.72
  C 252.55 109.73 240.19 101.10 224.16 99.76
  C 222.25 99.60 219.61 98.60 216.92 99.34
  Q 216.41 99.49 216.82 99.81
  Q 220.88 103.15 224.21 107.55
  Q 231.00 116.54 233.79 127.66
  Q 235.18 133.17 235.30 139.88
  Q 235.44 147.13 234.85 152.27
  Q 234.43 155.87 237.83 155.91
  Q 248.81 156.06 260.27 156.05
  A 1.73 1.71 -85.9 0 0 261.98 154.56
  C 262.37 151.63 261.55 148.39 261.50 145.95
  C 261.30 137.11 261.56 131.68 258.70 124.72
  Z
  M 181.56 156.04
  L 222.62 155.96
  A 1.37 1.37 0.0 0 0 223.99 154.59
  L 223.99 150.81
  A 45.35 21.38 89.9 0 0 202.53 105.50
  L 201.49 105.50
  A 45.35 21.38 89.9 0 0 180.19 150.89
  L 180.19 154.67
  A 1.37 1.37 0.0 0 0 181.56 156.04
  Z
  M 105.32 167.00
  A 1.15 1.15 0.0 0 0 104.17 168.02
  L 85.65 328.72
  A 1.15 1.15 0.0 0 0 86.79 330.00
  L 129.85 330.00
  A 1.15 1.15 0.0 0 0 131.00 328.85
  L 131.00 168.15
  A 1.15 1.15 0.0 0 0 129.85 167.00
  L 105.32 167.00
  Z
  M 264.77 199.94
  C 262.56 199.95 262.08 198.35 262.04 196.50
  Q 262.01 194.49 261.99 168.23
  A 1.23 1.23 0.0 0 0 260.76 167.00
  L 181.08 167.00
  Q 180.62 167.00 180.62 167.45
  Q 180.59 171.72 180.60 196.75
  Q 180.60 197.45 179.41 198.96
  Q 178.68 199.89 177.36 199.97
  Q 173.66 200.19 170.77 199.64
  A 1.33 1.28 -11.6 0 1 169.95 199.12
  Q 169.02 197.85 169.02 196.72
  Q 169.01 191.10 168.99 167.97
  A 0.97 0.97 0.0 0 0 168.02 167.00
  L 143.25 167.00
  A 1.26 1.26 0.0 0 0 141.99 168.26
  L 141.99 328.79
  Q 141.99 330.00 143.21 330.00
  L 314.63 330.00
  Q 316.03 330.00 315.87 328.61
  L 297.35 167.65
  Q 297.28 166.99 296.62 166.99
  L 274.30 166.99
  A 0.48 0.47 -89.4 0 0 273.83 167.46
  Q 273.75 176.43 273.87 195.00
  Q 273.89 198.20 270.98 199.44
  Q 269.87 199.91 264.77 199.94
  Z"
/>
</svg>
