<?xml version="1.0" encoding="UTF-8" standalone="no"?>
<!DOCTYPE svg PUBLIC "-//W3C//DTD SVG 1.1//EN" "http://www.w3.org/Graphics/SVG/1.1/DTD/svg11.dtd">
<svg xmlns="http://www.w3.org/2000/svg" version="1.1" viewBox="0.00 0.00 1212.00 1180.00">
<path fill="#000000" d="
  M 334.91 345.67
  Q 335.13 311.07 334.92 277.02
  Q 334.81 259.20 338.04 241.99
  Q 344.87 205.64 363.65 173.15
  C 372.47 157.89 383.61 144.01 396.39 131.14
  Q 398.95 128.56 406.59 122.15
  Q 413.00 116.78 417.22 113.70
  Q 459.80 82.64 512.67 76.07
  C 514.19 75.88 517.34 75.78 519.63 75.40
  Q 521.22 75.13 522.40 75.11
  Q 543.74 74.72 550.20 75.12
  Q 580.63 77.05 608.83 87.50
  Q 611.62 88.54 615.20 87.37
  C 638.44 79.83 661.75 75.18 686.27 74.51
  Q 736.68 73.14 780.44 96.25
  Q 808.27 110.96 832.28 134.54
  C 855.26 157.12 871.84 184.79 881.41 215.64
  Q 886.77 232.91 889.63 251.13
  C 890.92 259.36 890.76 267.30 891.50 275.92
  C 892.30 285.12 892.23 295.46 891.67 304.06
  C 890.76 317.94 890.98 332.63 890.96 345.90
  A 2.10 2.10 0.0 0 0 893.06 348.00
  Q 956.72 347.99 1006.00 348.01
  C 1011.36 348.01 1017.16 347.98 1021.47 350.14
  Q 1029.74 354.28 1030.84 364.00
  Q 1095.34 932.53 1106.53 1029.05
  Q 1108.11 1042.65 1109.60 1056.95
  Q 1110.16 1062.30 1109.19 1065.47
  C 1106.26 1074.98 1098.11 1078.11 1088.75 1078.11
  Q 618.76 1077.90 129.75 1078.00
  C 124.87 1078.00 120.56 1078.05 116.64 1076.39
  Q 109.01 1073.14 106.79 1065.49
  Q 105.83 1062.19 106.65 1054.98
  Q 130.54 845.05 154.34 635.21
  Q 155.55 624.53 156.62 613.84
  Q 156.73 612.72 159.25 590.93
  Q 162.30 564.53 165.31 538.12
  Q 182.26 389.48 182.31 387.93
  Q 182.31 387.91 183.57 377.24
  Q 184.80 366.70 184.86 366.02
  Q 185.49 359.06 187.82 355.25
  Q 190.44 350.95 195.59 349.12
  Q 198.52 348.07 204.99 348.06
  Q 256.12 347.97 332.55 348.02
  A 2.36 2.36 0.0 0 0 334.91 345.67
  Z
  M 571.63 111.45
  A 0.19 0.18 52.1 0 0 571.66 111.20
  Q 571.09 110.41 570.05 110.27
  C 565.50 109.66 563.26 109.09 559.64 108.76
  Q 538.98 106.91 521.97 108.43
  Q 471.89 112.88 431.90 143.91
  C 425.50 148.88 417.55 156.57 412.31 162.30
  Q 399.21 176.60 390.02 193.27
  C 386.94 198.86 382.44 207.69 379.95 214.29
  C 375.35 226.50 371.47 239.25 369.99 252.42
  Q 368.35 266.96 368.17 276.53
  Q 367.85 292.83 368.06 347.03
  A 1.98 1.97 -0.1 0 0 370.05 349.00
  Q 388.20 348.91 410.56 348.92
  C 412.38 348.92 413.49 348.02 415.32 348.01
  Q 450.01 347.97 486.12 348.02
  A 0.91 0.91 0.0 0 0 487.04 347.11
  Q 487.07 318.42 486.91 283.77
  Q 486.83 264.19 489.37 247.09
  C 495.42 206.29 514.37 167.90 542.65 137.73
  Q 548.03 132.00 556.80 124.23
  Q 567.00 115.19 571.63 111.45
  Z
  M 830.34 183.56
  Q 830.16 183.27 829.33 182.05
  Q 792.35 128.10 728.74 112.38
  Q 712.70 108.41 695.28 107.94
  Q 688.09 107.75 673.78 108.10
  C 667.84 108.25 660.91 109.66 655.39 110.31
  A 0.74 0.74 0.0 0 0 654.96 111.57
  C 661.53 117.88 671.08 125.40 677.66 131.90
  Q 698.75 152.73 713.29 178.74
  Q 733.64 215.15 737.50 255.03
  Q 737.61 256.14 738.47 264.39
  Q 738.98 269.22 738.98 273.77
  Q 739.03 308.46 738.93 347.46
  A 0.54 0.54 0.0 0 0 739.47 348.00
  L 857.29 348.00
  A 0.74 0.74 0.0 0 0 858.03 347.26
  Q 858.07 302.08 858.04 281.91
  Q 858.04 275.93 857.64 272.14
  C 856.92 265.36 856.91 259.13 855.95 252.21
  Q 854.89 244.58 854.37 242.14
  Q 847.90 211.65 830.34 183.56
  Z
  M 705.53 348.00
  Q 706.03 348.00 706.03 347.51
  Q 705.99 310.81 706.05 283.01
  Q 706.08 270.24 705.37 263.04
  Q 701.65 225.31 684.14 193.20
  C 668.87 165.21 644.31 142.38 616.11 126.92
  C 614.20 125.87 612.30 125.39 610.44 126.42
  C 592.41 136.35 575.80 149.21 561.53 165.27
  Q 542.02 187.22 531.54 215.29
  C 524.51 234.14 519.98 254.87 520.02 274.35
  Q 520.03 281.47 519.49 288.77
  Q 519.11 293.95 519.53 303.12
  Q 520.04 314.20 520.01 319.47
  Q 519.94 333.45 519.99 347.55
  Q 519.99 348.00 520.45 348.00
  L 705.53 348.00
  Z
  M 143.04 1045.02
  L 334.67 1045.02
  Q 335.10 1045.02 335.10 1044.59
  Q 335.03 1029.01 334.95 1018.50
  Q 334.81 1000.69 334.97 875.64
  C 334.99 860.27 335.99 847.00 336.00 830.92
  Q 336.11 713.35 336.00 593.26
  C 335.99 579.24 337.04 565.22 337.02 551.24
  Q 336.86 416.10 336.89 381.87
  A 0.89 0.88 -90.0 0 0 336.01 380.98
  L 216.80 380.98
  A 0.84 0.82 87.7 0 0 215.98 381.88
  Q 216.14 383.70 215.91 385.74
  Q 212.46 416.27 142.23 1035.70
  Q 141.91 1038.49 141.09 1042.66
  A 1.99 1.98 5.5 0 0 143.04 1045.02
  Z
  M 486.90 510.46
  L 486.90 381.47
  A 0.48 0.48 0.0 0 0 486.42 380.99
  L 370.27 380.99
  A 0.34 0.34 0.0 0 0 369.93 381.33
  Q 369.96 397.00 370.01 447.89
  C 370.03 464.14 369.01 478.65 369.00 494.17
  Q 368.92 608.31 369.02 729.16
  C 369.04 741.02 368.05 755.53 368.02 765.50
  Q 367.81 823.01 368.04 1009.69
  C 368.05 1020.91 367.52 1031.93 367.11 1042.99
  A 1.93 1.93 0.0 0 0 369.04 1045.00
  L 1074.45 1045.00
  Q 1074.88 1045.00 1074.83 1044.58
  L 999.66 383.00
  Q 999.44 380.99 997.41 380.99
  L 891.49 380.99
  A 0.52 0.52 0.0 0 0 890.97 381.51
  L 890.97 508.98
  A 2.00 1.99 -90.0 0 1 888.98 510.98
  L 860.14 510.98
  A 2.12 2.11 90.0 0 1 858.03 508.86
  L 858.03 382.01
  A 1.02 1.01 0.0 0 0 857.01 381.00
  L 520.27 381.00
  A 0.33 0.33 0.0 0 0 519.94 381.33
  Q 520.03 424.72 520.04 455.02
  Q 520.04 462.96 519.56 475.02
  Q 518.80 493.84 519.00 510.18
  A 0.79 0.79 0.0 0 1 518.21 510.98
  L 487.41 510.98
  A 0.52 0.51 90.0 0 1 486.90 510.46
  Z"
/>
</svg>
