<?xml version="1.0" encoding="UTF-8" standalone="no"?>
<!DOCTYPE svg PUBLIC "-//W3C//DTD SVG 1.1//EN" "http://www.w3.org/Graphics/SVG/1.1/DTD/svg11.dtd">
<svg xmlns="http://www.w3.org/2000/svg" version="1.1" viewBox="0.00 0.00 1696.00 1854.00">
<path fill="#000000" d="
  M 1404.10 183.95
  Q 1404.83 183.03 1406.98 180.23
  Q 1426.73 154.52 1455.25 142.98
  Q 1473.46 135.61 1494.19 135.73
  C 1498.89 135.76 1502.04 136.44 1506.50 136.72
  Q 1510.24 136.96 1513.90 137.92
  C 1517.40 138.84 1520.45 139.10 1523.62 140.33
  C 1527.32 141.77 1532.47 143.27 1536.46 145.08
  C 1557.91 154.83 1575.50 170.84 1587.17 191.61
  Q 1591.88 199.99 1592.81 202.70
  Q 1593.68 205.20 1594.34 206.77
  C 1596.10 210.91 1597.76 215.20 1598.57 219.65
  C 1600.13 228.25 1601.78 234.47 1601.79 241.84
  Q 1601.81 256.54 1601.58 259.51
  Q 1600.84 268.97 1597.14 288.25
  Q 1596.34 292.45 1595.29 295.96
  C 1594.23 299.48 1593.78 302.78 1592.54 306.14
  Q 1591.31 309.46 1589.76 315.02
  Q 1589.13 317.28 1582.20 333.52
  C 1574.38 351.84 1563.45 369.54 1551.75 384.76
  C 1535.82 405.48 1517.89 424.54 1499.28 440.52
  C 1474.83 461.51 1448.62 479.98 1420.00 496.00
  Q 1411.37 500.83 1407.57 501.26
  Q 1402.83 501.79 1398.15 500.86
  Q 1394.91 500.22 1389.60 497.22
  C 1356.57 478.52 1324.75 456.55 1298.04 431.01
  Q 1287.09 420.54 1273.18 405.63
  Q 1257.01 388.30 1241.24 363.36
  Q 1216.74 324.61 1209.22 280.22
  Q 1208.51 275.98 1207.35 269.71
  C 1206.64 265.88 1206.55 262.70 1206.61 258.93
  Q 1206.65 256.60 1206.28 254.61
  Q 1205.23 248.93 1206.03 242.99
  C 1206.63 238.54 1206.28 233.48 1206.90 229.93
  C 1211.01 206.56 1221.90 184.10 1238.76 167.38
  Q 1262.64 143.69 1296.10 137.42
  Q 1308.89 135.02 1320.31 135.94
  Q 1321.59 136.04 1328.00 136.59
  Q 1332.12 136.94 1335.58 137.71
  C 1363.73 143.94 1386.91 160.65 1403.61 183.94
  A 0.31 0.31 0.0 0 0 1404.10 183.95
  Z
  M 1403.70 448.13
  Q 1404.40 448.13 1405.48 447.46
  Q 1422.93 436.62 1436.93 426.65
  C 1479.63 396.26 1519.24 357.16 1539.56 307.87
  Q 1550.21 282.01 1552.39 253.01
  C 1555.23 215.09 1527.71 184.79 1489.45 185.16
  Q 1482.67 185.23 1476.77 187.28
  C 1456.26 194.42 1443.77 212.76 1431.64 231.89
  Q 1426.81 239.51 1419.89 250.88
  C 1416.08 257.13 1411.24 260.59 1403.83 260.59
  C 1396.42 260.58 1391.58 257.11 1387.79 250.86
  Q 1380.88 239.48 1376.06 231.85
  C 1363.96 212.70 1351.50 194.34 1331.00 187.18
  Q 1325.10 185.12 1318.32 185.04
  C 1280.06 184.61 1252.50 214.87 1255.28 252.80
  Q 1257.42 281.80 1268.04 307.68
  C 1288.28 356.99 1327.84 396.15 1370.49 426.60
  Q 1384.48 436.59 1401.92 447.46
  Q 1402.99 448.13 1403.70 448.13
  Z"
/>
<path fill="#ffffff" d="
  M 1155.68 664.39
  Q 1155.69 664.84 1156.14 664.84
  Q 1167.25 664.84 1280.75 664.83
  Q 1284.09 664.83 1287.99 665.84
  C 1300.08 668.99 1303.37 678.32 1304.66 689.77
  Q 1342.81 1027.44 1387.79 1421.51
  C 1388.35 1426.41 1388.41 1431.72 1386.51 1436.21
  Q 1380.54 1450.29 1363.51 1450.29
  Q 443.43 1450.14 344.00 1450.50
  Q 336.79 1450.52 329.73 1449.56
  C 321.75 1448.48 316.00 1442.02 313.30 1435.01
  Q 312.09 1431.88 312.44 1425.85
  Q 312.90 1418.07 313.42 1413.50
  Q 356.28 1037.63 396.00 686.00
  C 397.01 677.12 400.47 669.67 409.03 666.18
  Q 412.31 664.84 419.16 664.84
  Q 541.20 664.83 554.49 664.85
  Q 555.24 664.85 555.24 664.10
  Q 555.12 610.62 555.30 594.00
  C 555.36 588.34 555.43 577.03 556.37 569.02
  Q 560.13 537.19 572.36 508.13
  Q 575.56 500.52 578.35 495.44
  C 581.42 489.85 583.52 484.71 587.06 478.88
  Q 595.96 464.27 609.05 449.06
  Q 631.30 423.19 660.46 405.69
  Q 662.71 404.34 670.66 399.90
  Q 675.65 397.11 679.88 395.30
  Q 682.25 394.29 689.36 391.20
  Q 712.83 381.02 741.11 376.87
  Q 748.92 375.72 756.40 375.52
  C 762.94 375.34 769.42 374.77 776.86 375.05
  Q 796.73 375.77 799.25 375.96
  C 812.75 376.98 828.99 379.96 843.70 384.83
  C 848.84 386.54 852.78 387.95 857.19 387.24
  Q 858.75 387.00 861.70 386.09
  Q 889.80 377.44 918.88 375.09
  C 927.98 374.35 937.45 374.55 947.47 374.59
  C 954.22 374.61 959.38 375.31 967.53 376.21
  Q 991.58 378.86 1014.11 387.66
  C 1019.62 389.81 1027.29 392.97 1033.34 396.14
  Q 1072.58 416.68 1102.57 450.18
  Q 1126.48 476.89 1139.70 510.53
  Q 1151.84 541.41 1154.83 571.17
  Q 1155.94 582.32 1156.52 603.26
  Q 1156.64 607.57 1156.33 616.26
  C 1156.09 622.97 1156.31 627.85 1156.02 633.60
  Q 1155.37 646.54 1155.68 664.39
  Z
  M 641.00 664.93
  Q 655.88 664.75 715.87 664.87
  A 0.57 0.56 -90.0 0 0 716.43 664.30
  Q 716.43 632.85 716.38 599.54
  Q 716.37 593.44 716.68 588.47
  Q 716.84 585.91 717.34 577.41
  Q 720.34 525.64 747.90 480.37
  Q 760.91 459.00 778.51 440.77
  Q 784.68 434.37 790.94 429.23
  C 793.45 427.17 796.07 424.46 797.70 422.77
  Q 798.65 421.78 797.28 421.85
  C 794.22 422.00 792.26 420.82 789.23 420.76
  Q 767.49 420.34 753.38 422.18
  Q 714.99 427.17 681.28 448.30
  Q 667.22 457.11 657.51 466.51
  C 652.80 471.06 646.64 477.03 642.05 482.68
  C 617.34 513.06 602.46 550.65 601.29 590.10
  C 600.55 615.01 600.94 637.91 600.82 665.25
  A 0.66 0.66 0.0 0 0 601.48 665.91
  L 638.96 665.91
  Q 639.45 665.91 639.81 665.58
  Q 640.52 664.93 641.00 664.93
  Z
  M 917.30 421.44
  C 915.57 421.98 914.53 421.83 912.97 421.84
  A 0.25 0.25 0.0 0 0 912.79 422.25
  C 916.88 427.01 923.14 431.79 926.30 434.79
  C 965.46 472.02 990.20 522.71 993.58 576.88
  Q 993.85 581.24 994.25 589.53
  Q 994.48 594.29 994.46 602.10
  Q 994.39 626.94 994.39 664.19
  A 0.65 0.65 0.0 0 0 995.04 664.84
  L 1109.22 664.84
  Q 1109.96 664.84 1109.96 664.10
  Q 1110.15 617.05 1110.05 608.77
  Q 1109.72 584.02 1107.26 567.76
  C 1104.95 552.51 1100.21 536.19 1093.18 521.79
  C 1089.84 514.95 1086.62 508.29 1083.01 502.48
  Q 1061.59 468.06 1027.87 447.25
  Q 994.34 426.55 956.38 422.01
  Q 940.98 420.17 920.34 420.88
  Q 918.97 420.92 917.30 421.44
  Z
  M 855.43 441.06
  A 1.22 1.22 0.0 0 0 854.42 441.12
  C 819.28 460.09 791.11 490.41 775.98 527.96
  Q 771.72 538.52 767.67 553.59
  Q 763.66 568.50 762.96 579.25
  Q 762.78 582.11 761.76 597.75
  C 761.34 604.28 761.78 610.93 761.78 617.76
  Q 761.79 627.14 761.97 632.74
  Q 762.37 645.51 762.01 664.06
  Q 761.99 664.84 762.77 664.84
  L 948.23 664.84
  A 0.53 0.53 0.0 0 0 948.76 664.31
  Q 948.68 625.74 948.76 601.00
  Q 948.80 588.63 947.95 581.05
  C 942.55 532.69 921.10 488.86 882.60 458.67
  Q 873.87 451.82 862.72 444.79
  Q 859.00 442.44 855.43 441.06
  Z
  M 440.68 710.52
  A 1.00 1.00 0.0 0 0 439.69 711.41
  L 361.08 1403.50
  A 1.00 1.00 0.0 0 0 362.07 1404.61
  L 553.98 1404.61
  A 1.00 1.00 0.0 0 0 554.98 1403.61
  L 557.58 711.52
  A 1.00 1.00 0.0 0 0 556.58 710.52
  L 440.68 710.52
  Z
  M 759.22 847.80
  A 3.30 3.26 26.9 0 1 757.42 848.38
  Q 736.88 848.65 720.73 848.37
  Q 716.46 848.29 716.45 844.06
  Q 716.35 785.04 716.46 711.19
  A 0.67 0.67 0.0 0 0 715.79 710.52
  L 604.44 710.52
  Q 603.16 710.52 603.08 711.80
  C 602.70 717.84 603.09 725.27 603.07 730.07
  Q 602.96 751.91 603.06 775.45
  C 603.10 783.96 602.13 792.88 602.39 800.71
  C 602.63 807.85 601.92 814.89 601.91 823.00
  Q 601.86 869.96 601.91 1074.51
  C 601.91 1083.70 600.98 1092.03 601.30 1099.46
  C 601.58 1105.83 600.83 1112.96 600.83 1119.75
  Q 600.86 1268.23 600.86 1378.26
  Q 600.86 1391.12 599.86 1403.36
  Q 599.75 1404.61 601.00 1404.61
  L 1338.34 1404.61
  Q 1338.93 1404.61 1338.95 1404.01
  Q 1339.04 1399.58 1338.66 1397.06
  Q 1336.29 1381.51 1335.24 1370.39
  Q 1334.86 1366.36 1332.55 1345.75
  Q 1320.43 1237.77 1320.00 1234.10
  Q 1315.93 1199.40 1278.52 870.64
  Q 1266.50 765.02 1261.35 717.97
  Q 1260.96 714.39 1260.49 711.97
  Q 1260.21 710.52 1258.73 710.52
  L 1156.20 710.52
  A 0.59 0.59 0.0 0 0 1155.61 711.11
  Q 1155.67 779.82 1155.59 841.75
  Q 1155.59 846.98 1151.71 848.09
  Q 1150.86 848.34 1145.27 848.42
  Q 1130.92 848.63 1116.57 848.37
  C 1111.79 848.28 1110.28 846.28 1110.12 841.71
  Q 1109.94 836.56 1110.07 813.25
  Q 1110.27 778.43 1109.98 713.81
  Q 1109.97 712.41 1109.96 711.49
  A 0.99 0.98 89.4 0 0 1108.98 710.52
  L 763.03 710.52
  Q 762.10 710.52 762.10 711.45
  Q 762.14 740.02 762.16 779.51
  Q 762.16 788.34 761.81 799.50
  Q 760.88 829.26 761.08 844.01
  Q 761.11 846.49 759.22 847.80
  Z"
/>
</svg>
