<?xml version="1.0" encoding="UTF-8" standalone="no"?>
<!DOCTYPE svg PUBLIC "-//W3C//DTD SVG 1.1//EN" "http://www.w3.org/Graphics/SVG/1.1/DTD/svg11.dtd">
<svg xmlns="http://www.w3.org/2000/svg" version="1.1" viewBox="0.00 0.00 3630.00 865.00">
<path fill="#000000" d="
  M 0.00 794.49
  L 0.00 84.96
  L 691.56 84.83
  A 0.49 0.49 0.0 0 1 692.05 85.32
  L 692.05 793.95
  A 0.42 0.41 0.0 0 1 691.63 794.36
  L 0.00 794.49
  Z
  M 227.57 293.91
  A 26.83 26.83 0.0 0 0 200.74 267.08
  A 26.83 26.83 0.0 0 0 173.91 293.91
  A 26.83 26.83 0.0 0 0 200.74 320.74
  A 26.83 26.83 0.0 0 0 227.57 293.91
  Z
  M 324.43 294.04
  A 26.86 26.86 0.0 0 0 297.57 267.18
  A 26.86 26.86 0.0 0 0 270.71 294.04
  A 26.86 26.86 0.0 0 0 297.57 320.90
  A 26.86 26.86 0.0 0 0 324.43 294.04
  Z
  M 421.61 293.93
  A 26.91 26.91 0.0 0 0 394.70 267.02
  A 26.91 26.91 0.0 0 0 367.79 293.93
  A 26.91 26.91 0.0 0 0 394.70 320.84
  A 26.91 26.91 0.0 0 0 421.61 293.93
  Z
  M 518.67 293.86
  A 26.80 26.80 0.0 0 0 491.87 267.06
  A 26.80 26.80 0.0 0 0 465.07 293.86
  A 26.80 26.80 0.0 0 0 491.87 320.66
  A 26.80 26.80 0.0 0 0 518.67 293.86
  Z
  M 421.78 390.38
  A 26.91 26.91 0.0 0 0 394.87 363.47
  A 26.91 26.91 0.0 0 0 367.96 390.38
  A 26.91 26.91 0.0 0 0 394.87 417.29
  A 26.91 26.91 0.0 0 0 421.78 390.38
  Z
  M 227.62 390.73
  A 26.94 26.94 0.0 0 0 200.68 363.79
  A 26.94 26.94 0.0 0 0 173.74 390.73
  A 26.94 26.94 0.0 0 0 200.68 417.67
  A 26.94 26.94 0.0 0 0 227.62 390.73
  Z
  M 324.33 390.37
  A 26.75 26.75 0.0 0 0 297.58 363.62
  A 26.75 26.75 0.0 0 0 270.83 390.37
  A 26.75 26.75 0.0 0 0 297.58 417.12
  A 26.75 26.75 0.0 0 0 324.33 390.37
  Z
  M 227.81 487.08
  A 27.11 27.11 0.0 0 0 200.70 459.97
  A 27.11 27.11 0.0 0 0 173.59 487.08
  A 27.11 27.11 0.0 0 0 200.70 514.19
  A 27.11 27.11 0.0 0 0 227.81 487.08
  Z
  M 324.35 487.26
  A 26.77 26.77 0.0 0 0 297.58 460.49
  A 26.77 26.77 0.0 0 0 270.81 487.26
  A 26.77 26.77 0.0 0 0 297.58 514.03
  A 26.77 26.77 0.0 0 0 324.35 487.26
  Z
  M 421.91 487.30
  A 26.91 26.91 0.0 0 0 395.00 460.39
  A 26.91 26.91 0.0 0 0 368.09 487.30
  A 26.91 26.91 0.0 0 0 395.00 514.21
  A 26.91 26.91 0.0 0 0 421.91 487.30
  Z
  M 227.31 583.73
  A 26.81 26.81 0.0 0 0 200.50 556.92
  A 26.81 26.81 0.0 0 0 173.69 583.73
  A 26.81 26.81 0.0 0 0 200.50 610.54
  A 26.81 26.81 0.0 0 0 227.31 583.73
  Z
  M 324.51 583.74
  A 26.81 26.81 0.0 0 0 297.70 556.93
  A 26.81 26.81 0.0 0 0 270.89 583.74
  A 26.81 26.81 0.0 0 0 297.70 610.55
  A 26.81 26.81 0.0 0 0 324.51 583.74
  Z
  M 421.80 583.66
  A 26.96 26.96 0.0 0 0 394.84 556.70
  A 26.96 26.96 0.0 0 0 367.88 583.66
  A 26.96 26.96 0.0 0 0 394.84 610.62
  A 26.96 26.96 0.0 0 0 421.80 583.66
  Z
  M 518.73 583.80
  A 26.87 26.87 0.0 0 0 491.86 556.93
  A 26.87 26.87 0.0 0 0 464.99 583.80
  A 26.87 26.87 0.0 0 0 491.86 610.67
  A 26.87 26.87 0.0 0 0 518.73 583.80
  Z"
/>
<path fill="#000000" d="
  M 1039.62 438.00
  Q 1039.62 488.65 1039.79 505.59
  A 0.83 0.83 0.0 0 0 1040.62 506.41
  L 1156.78 506.41
  A 0.80 0.80 0.0 0 0 1157.58 505.61
  L 1157.58 481.57
  A 0.31 0.31 0.0 0 1 1157.89 481.26
  L 1232.69 481.26
  A 0.38 0.38 0.0 0 1 1233.07 481.64
  L 1233.07 570.50
  A 0.40 0.39 90.0 0 1 1232.68 570.90
  L 976.03 570.90
  A 0.86 0.85 0.0 0 1 975.17 570.05
  Q 975.13 560.14 975.13 438.00
  Q 975.13 315.86 975.18 305.96
  A 0.86 0.85 -0.0 0 1 976.04 305.10
  L 1232.69 305.12
  A 0.40 0.39 -90.0 0 1 1233.08 305.52
  L 1233.07 394.38
  A 0.38 0.38 0.0 0 1 1232.69 394.76
  L 1157.89 394.75
  A 0.31 0.31 0.0 0 1 1157.58 394.44
  L 1157.58 370.40
  A 0.80 0.80 0.0 0 0 1156.78 369.60
  L 1040.62 369.60
  A 0.83 0.83 0.0 0 0 1039.79 370.42
  Q 1039.62 387.36 1039.62 438.00
  Z"
/>
<path fill="#000000" d="
  M 1447.75 405.77
  Q 1505.42 405.77 1509.42 405.75
  A 0.46 0.46 0.0 0 0 1509.88 405.29
  L 1509.88 305.49
  A 0.38 0.37 90.0 0 1 1510.25 305.11
  L 1574.09 305.11
  A 0.26 0.25 0.5 0 1 1574.34 305.36
  Q 1574.36 341.70 1574.36 438.00
  Q 1574.36 534.31 1574.35 570.65
  A 0.26 0.25 -0.5 0 1 1574.09 570.90
  L 1510.25 570.90
  A 0.38 0.37 90.0 0 1 1509.88 570.52
  L 1509.88 470.72
  A 0.46 0.46 0.0 0 0 1509.42 470.26
  Q 1505.42 470.24 1447.75 470.24
  Q 1390.09 470.24 1386.09 470.26
  A 0.46 0.46 0.0 0 0 1385.63 470.72
  L 1385.63 570.52
  A 0.38 0.37 -90.0 0 1 1385.26 570.90
  L 1321.42 570.90
  A 0.26 0.25 0.5 0 1 1321.16 570.65
  Q 1321.15 534.31 1321.15 438.01
  Q 1321.14 341.70 1321.16 305.36
  A 0.26 0.25 -0.5 0 1 1321.42 305.11
  L 1385.26 305.11
  A 0.38 0.37 90.0 0 1 1385.63 305.49
  L 1385.63 405.29
  A 0.46 0.46 0.0 0 0 1386.09 405.75
  Q 1390.09 405.77 1447.75 405.77
  Z"
/>
<path fill="#000000" d="
  M 1863.76 438.00
  Q 1863.76 454.05 1863.69 469.59
  A 0.66 0.66 0.0 0 1 1863.03 470.24
  L 1731.95 470.24
  A 0.51 0.51 0.0 0 0 1731.44 470.75
  L 1731.44 505.98
  A 0.44 0.44 0.0 0 0 1731.88 506.42
  L 1921.52 506.42
  A 0.44 0.44 0.0 0 1 1921.96 506.86
  L 1921.96 570.45
  A 0.45 0.45 0.0 0 1 1921.51 570.90
  L 1667.60 570.92
  A 0.45 0.44 0.9 0 1 1667.15 570.47
  Q 1667.16 570.09 1667.15 438.02
  Q 1667.13 305.95 1667.13 305.56
  A 0.45 0.44 -0.9 0 1 1667.57 305.11
  L 1921.48 305.08
  A 0.45 0.45 0.0 0 1 1921.93 305.53
  L 1921.95 369.12
  A 0.44 0.44 0.0 0 1 1921.51 369.56
  L 1731.87 369.60
  A 0.44 0.44 0.0 0 0 1731.43 370.04
  L 1731.43 405.27
  A 0.51 0.51 0.0 0 0 1731.94 405.78
  L 1863.02 405.75
  A 0.66 0.66 0.0 0 1 1863.68 406.40
  Q 1863.75 421.94 1863.76 438.00
  Z"
/>
<path fill="#000000" d="
  M 2112.22 413.79
  Q 2112.48 413.52 2112.49 413.49
  Q 2144.85 359.45 2163.60 328.27
  Q 2168.59 319.97 2170.74 317.00
  Q 2174.46 311.86 2178.37 306.09
  A 1.27 1.26 -74.9 0 1 2179.30 305.55
  C 2181.05 305.40 2183.63 305.87 2185.29 305.23
  A 1.89 1.87 -54.9 0 1 2185.95 305.11
  L 2235.47 305.11
  A 4.01 3.59 48.1 0 1 2236.29 305.20
  Q 2238.84 305.74 2241.52 305.46
  A 0.49 0.49 0.0 0 1 2242.00 306.19
  Q 2201.44 374.87 2156.90 447.68
  Q 2143.94 468.87 2142.63 494.80
  Q 2142.57 495.98 2142.57 496.00
  C 2142.84 504.11 2142.12 517.35 2142.13 523.68
  Q 2142.15 548.50 2142.14 570.55
  A 0.35 0.35 0.0 0 1 2141.79 570.90
  L 2081.18 570.90
  A 0.36 0.36 0.0 0 1 2080.82 570.54
  Q 2080.81 546.59 2080.81 518.00
  Q 2080.81 516.92 2080.47 515.41
  A 5.70 5.63 -51.0 0 1 2080.33 513.99
  Q 2080.94 492.59 2078.26 474.41
  C 2076.73 464.04 2072.03 455.03 2066.08 445.26
  Q 2023.34 375.13 1982.52 306.23
  A 0.74 0.74 0.0 0 1 1983.16 305.11
  L 2045.28 305.11
  A 1.59 1.58 -15.4 0 1 2046.64 305.88
  L 2111.61 413.72
  A 0.38 0.38 0.0 0 0 2112.22 413.79
  Z"
/>
<path fill="#000000" d="
  M 2303.36 438.02
  Q 2303.34 305.97 2303.33 305.58
  A 0.45 0.44 -0.9 0 1 2303.78 305.13
  L 2557.66 305.08
  A 0.45 0.45 0.0 0 1 2558.11 305.53
  L 2558.12 369.11
  A 0.44 0.44 0.0 0 1 2557.68 369.55
  L 2368.07 369.61
  A 0.44 0.44 0.0 0 0 2367.63 370.05
  L 2367.64 405.27
  A 0.51 0.51 0.0 0 0 2368.15 405.78
  L 2499.21 405.75
  A 0.66 0.66 0.0 0 1 2499.87 406.40
  Q 2499.94 421.94 2499.94 437.99
  Q 2499.95 454.04 2499.88 469.58
  A 0.66 0.66 0.0 0 1 2499.22 470.23
  L 2368.16 470.24
  A 0.51 0.51 0.0 0 0 2367.65 470.75
  L 2367.65 505.97
  A 0.44 0.44 0.0 0 0 2368.09 506.41
  L 2557.71 506.40
  A 0.44 0.44 0.0 0 1 2558.14 506.84
  L 2558.15 570.42
  A 0.45 0.45 0.0 0 1 2557.70 570.87
  L 2303.82 570.91
  A 0.45 0.44 0.9 0 1 2303.37 570.45
  Q 2303.38 570.07 2303.36 438.02
  Z"
/>
<path fill="#000000" d="
  M 2851.44 306.68
  L 2914.00 306.68
  A 0.36 0.36 0.0 0 1 2914.36 307.04
  L 2914.36 570.53
  A 0.36 0.36 0.0 0 1 2914.00 570.89
  L 2851.59 570.89
  A 0.36 0.36 0.0 0 1 2851.31 570.76
  L 2721.56 420.05
  A 0.36 0.36 0.0 0 0 2720.93 420.28
  L 2720.93 570.52
  A 0.36 0.36 0.0 0 1 2720.57 570.88
  L 2659.95 570.88
  A 0.36 0.36 0.0 0 1 2659.59 570.52
  L 2659.59 305.47
  A 0.36 0.36 0.0 0 1 2659.95 305.11
  L 2721.58 305.11
  A 0.36 0.36 0.0 0 1 2721.85 305.23
  L 2850.45 453.27
  A 0.36 0.36 0.0 0 0 2851.08 453.04
  L 2851.08 307.04
  A 0.36 0.36 0.0 0 1 2851.44 306.68
  Z"
/>
<path fill="#000000" d="
  M 3209.23 453.49
  A 0.25 0.25 0.0 0 0 3209.67 453.33
  L 3209.67 307.18
  A 0.50 0.50 0.0 0 1 3210.17 306.68
  L 3272.54 306.66
  A 0.43 0.43 0.0 0 1 3272.97 307.09
  L 3272.98 570.57
  A 0.35 0.34 -0.0 0 1 3272.63 570.91
  L 3210.55 570.91
  A 1.12 1.10 -19.7 0 1 3209.70 570.52
  L 3080.36 420.30
  A 0.48 0.48 0.0 0 0 3079.52 420.61
  L 3079.53 570.57
  A 0.35 0.35 0.0 0 1 3079.18 570.92
  L 3018.64 570.92
  A 0.47 0.47 0.0 0 1 3018.17 570.45
  L 3018.16 305.54
  A 0.43 0.43 0.0 0 1 3018.59 305.11
  L 3079.19 305.11
  A 2.48 2.47 -20.5 0 1 3081.06 305.96
  L 3209.23 453.49
  Z"
/>
<path fill="#000000" d="
  M 3630.00 305.10
  L 3630.00 369.55
  L 3441.12 369.60
  A 0.80 0.80 0.0 0 0 3440.32 370.40
  L 3440.32 405.35
  A 0.43 0.43 0.0 0 0 3440.75 405.78
  L 3571.78 405.78
  A 0.81 0.81 0.0 0 1 3572.59 406.59
  L 3572.59 469.46
  A 0.79 0.78 0.0 0 1 3571.80 470.24
  L 3440.71 470.24
  A 0.48 0.48 0.0 0 0 3440.23 470.72
  L 3440.23 505.78
  A 0.67 0.67 0.0 0 0 3440.90 506.45
  L 3630.00 506.38
  L 3630.00 570.89
  L 3376.33 570.91
  A 0.33 0.32 0.0 0 1 3376.00 570.59
  L 3376.00 305.46
  A 0.33 0.33 0.0 0 1 3376.33 305.13
  L 3630.00 305.10
  Z"
/>
</svg>
