<?xml version="1.0" encoding="UTF-8" standalone="no"?>
<!DOCTYPE svg PUBLIC "-//W3C//DTD SVG 1.1//EN" "http://www.w3.org/Graphics/SVG/1.1/DTD/svg11.dtd">
<svg xmlns="http://www.w3.org/2000/svg" version="1.1" viewBox="0.00 0.00 400.00 436.00">
<path fill="#fefefe" d="
  M 331.75 45.65
  Q 332.02 45.65 332.19 44.97
  Q 332.29 44.54 332.49 44.27
  Q 337.51 37.37 344.39 34.70
  Q 357.14 29.74 368.16 38.25
  Q 369.98 39.65 372.44 42.83
  C 382.94 56.42 375.52 77.63 366.08 89.83
  Q 353.70 105.81 333.56 116.64
  Q 332.90 117.00 331.60 116.99
  Q 330.29 116.99 329.63 116.64
  Q 309.54 105.72 297.23 89.68
  C 287.84 77.44 280.51 56.20 291.06 42.66
  Q 293.54 39.49 295.36 38.10
  Q 306.42 29.63 319.15 34.65
  Q 326.02 37.35 331.01 44.27
  Q 331.21 44.54 331.31 44.97
  Q 331.47 45.65 331.75 45.65
  Z
  M 328.66 58.85
  Q 328.48 58.42 326.76 54.76
  Q 326.56 54.33 326.17 54.06
  Q 325.50 53.61 325.42 52.80
  Q 325.36 52.25 324.96 51.86
  L 321.68 48.57
  A 0.81 0.78 -67.2 0 1 321.44 47.95
  Q 321.50 46.75 320.10 46.57
  A 1.49 1.42 69.9 0 1 319.25 46.15
  Q 314.09 41.07 306.81 43.08
  Q 302.81 44.18 300.25 46.95
  Q 297.15 50.29 296.35 53.86
  Q 294.80 60.84 297.32 68.48
  Q 300.55 78.28 306.98 86.03
  Q 307.36 86.48 307.54 86.83
  Q 307.77 87.28 308.03 87.58
  Q 316.96 97.61 329.14 104.98
  Q 330.47 105.79 331.64 105.99
  Q 332.12 106.07 332.54 105.83
  C 349.65 96.16 363.95 81.50 367.71 61.73
  Q 368.12 59.61 367.73 57.34
  C 366.80 51.80 364.92 47.50 359.94 44.59
  Q 354.88 41.64 349.50 42.96
  Q 345.77 43.88 341.53 48.53
  Q 337.62 52.81 334.86 58.36
  C 333.86 60.37 332.18 60.14 330.34 59.79
  Q 328.94 59.53 328.66 58.85
  Z"
/>
<path fill="#fefefe" d="
  M 130.61 154.83
  Q 131.22 153.00 130.86 150.93
  C 130.18 146.96 130.05 142.61 130.82 138.97
  C 131.24 137.01 130.92 134.49 131.38 132.14
  Q 132.92 124.26 134.59 120.07
  Q 138.32 110.69 144.92 103.77
  Q 151.23 97.15 160.35 92.90
  Q 179.34 84.03 201.06 90.81
  Q 202.47 91.25 203.75 90.81
  C 207.24 89.61 210.19 89.15 214.12 88.57
  Q 232.77 85.81 248.90 95.30
  Q 249.94 95.91 250.67 96.69
  C 251.49 97.56 252.45 97.69 253.43 98.51
  Q 269.67 111.96 273.09 134.55
  Q 274.88 146.34 273.14 155.43
  Q 273.03 155.99 273.60 155.99
  Q 289.96 156.05 301.78 155.94
  Q 305.90 155.89 307.65 158.74
  Q 308.48 160.09 308.82 163.96
  Q 309.27 168.95 309.28 169.03
  Q 326.87 322.04 326.89 322.26
  Q 327.12 324.62 327.22 325.22
  Q 328.20 331.52 328.03 335.89
  Q 327.93 338.60 326.59 339.80
  C 324.95 341.26 323.43 341.00 321.30 341.00
  Q 199.39 341.00 77.59 341.00
  A 2.74 2.73 72.1 0 1 75.37 339.86
  L 73.64 337.46
  A 2.90 2.86 30.9 0 1 73.12 335.45
  Q 82.03 258.04 89.78 191.00
  C 89.96 189.42 90.08 185.99 90.59 183.99
  C 91.27 181.33 90.94 178.82 91.47 175.94
  Q 91.89 173.67 92.02 171.43
  Q 92.21 168.08 92.57 166.87
  C 93.23 164.70 92.93 162.69 93.24 160.21
  Q 93.30 159.71 93.59 159.37
  Q 93.65 159.29 93.92 159.03
  Q 94.24 158.70 94.37 158.25
  Q 94.98 156.09 97.13 156.07
  Q 120.77 155.93 126.51 156.02
  Q 128.90 156.05 130.01 155.51
  Q 130.45 155.30 130.61 154.83
  Z
  M 145.36 124.77
  C 142.50 131.76 142.77 137.20 142.58 146.07
  C 142.53 148.50 141.71 151.76 142.11 154.71
  A 1.72 1.70 85.8 0 0 143.81 156.19
  Q 155.32 156.19 166.32 156.03
  Q 169.73 155.98 169.31 152.37
  Q 168.71 147.26 168.84 139.95
  Q 168.96 133.30 170.34 127.69
  Q 173.07 116.64 179.94 107.52
  Q 183.30 103.06 187.33 99.75
  Q 187.73 99.42 187.23 99.28
  C 184.52 98.54 181.87 99.54 179.97 99.70
  C 163.89 101.07 151.51 109.74 145.36 124.77
  Z
  M 258.70 124.72
  C 252.55 109.73 240.19 101.10 224.16 99.76
  C 222.26 99.60 219.62 98.60 216.92 99.34
  Q 216.42 99.49 216.82 99.81
  Q 220.84 103.11 224.20 107.55
  Q 231.06 116.64 233.79 127.66
  Q 235.18 133.25 235.30 139.88
  Q 235.44 147.17 234.85 152.27
  Q 234.43 155.87 237.83 155.91
  Q 248.80 156.06 260.28 156.05
  A 1.72 1.70 -85.8 0 0 261.98 154.57
  C 262.37 151.63 261.55 148.38 261.50 145.95
  C 261.30 137.11 261.56 131.68 258.70 124.72
  Z
  M 181.56 156.04
  L 222.62 155.96
  A 1.37 1.37 0.0 0 0 223.99 154.59
  L 223.99 150.82
  A 45.36 21.38 89.9 0 0 202.53 105.50
  L 201.49 105.50
  A 45.36 21.38 89.9 0 0 180.19 150.90
  L 180.19 154.67
  A 1.37 1.37 0.0 0 0 181.56 156.04
  Z
  M 105.32 167.00
  A 1.15 1.15 0.0 0 0 104.17 168.02
  L 85.65 328.72
  A 1.15 1.15 0.0 0 0 86.79 330.00
  L 129.85 330.00
  A 1.15 1.15 0.0 0 0 131.00 328.85
  L 131.00 168.15
  A 1.15 1.15 0.0 0 0 129.85 167.00
  L 105.32 167.00
  Z
  M 269.02 199.74
  C 265.70 200.07 262.17 200.99 262.04 196.50
  Q 262.01 195.49 261.99 168.23
  A 1.23 1.23 0.0 0 0 260.76 167.00
  L 181.08 167.00
  Q 180.62 167.00 180.62 167.45
  Q 180.59 171.71 180.60 196.75
  Q 180.60 197.45 179.41 198.96
  Q 178.68 199.89 177.36 199.97
  Q 173.66 200.19 170.77 199.64
  A 1.33 1.28 -11.6 0 1 169.95 199.12
  Q 169.02 197.85 169.02 196.72
  Q 169.01 191.07 168.99 167.98
  A 0.98 0.98 0.0 0 0 168.01 167.00
  L 143.26 167.00
  A 1.27 1.27 0.0 0 0 141.99 168.27
  L 141.99 328.79
  Q 141.99 330.00 143.21 330.00
  L 314.62 330.00
  Q 316.02 330.00 315.86 328.61
  L 297.35 167.66
  Q 297.28 166.99 296.60 166.99
  L 274.31 166.99
  Q 273.81 166.99 273.81 167.49
  Q 273.78 182.58 273.83 195.01
  Q 273.84 197.36 272.27 198.68
  Q 271.27 199.52 269.02 199.74
  Z"
/>
</svg>
