<?xml version="1.0" encoding="UTF-8" standalone="no"?>
<!DOCTYPE svg PUBLIC "-//W3C//DTD SVG 1.1//EN" "http://www.w3.org/Graphics/SVG/1.1/DTD/svg11.dtd">
<svg xmlns="http://www.w3.org/2000/svg" version="1.1" viewBox="0.00 0.00 3630.00 865.00">
<path fill="#63b1bc" d="
  M 0.00 794.49
  L 0.00 84.96
  L 691.51 84.83
  A 0.53 0.53 0.0 0 1 692.04 85.36
  L 692.04 793.88
  Q 692.04 794.37 691.56 794.37
  L 0.00 794.49
  Z
  M 227.58 293.91
  A 26.84 26.84 0.0 0 0 200.74 267.07
  A 26.84 26.84 0.0 0 0 173.90 293.91
  A 26.84 26.84 0.0 0 0 200.74 320.75
  A 26.84 26.84 0.0 0 0 227.58 293.91
  Z
  M 324.44 294.04
  A 26.86 26.86 0.0 0 0 297.58 267.18
  A 26.86 26.86 0.0 0 0 270.72 294.04
  A 26.86 26.86 0.0 0 0 297.58 320.90
  A 26.86 26.86 0.0 0 0 324.44 294.04
  Z
  M 421.62 293.94
  A 26.92 26.92 0.0 0 0 394.70 267.02
  A 26.92 26.92 0.0 0 0 367.78 293.94
  A 26.92 26.92 0.0 0 0 394.70 320.86
  A 26.92 26.92 0.0 0 0 421.62 293.94
  Z
  M 518.67 293.86
  A 26.80 26.80 0.0 0 0 491.87 267.06
  A 26.80 26.80 0.0 0 0 465.07 293.86
  A 26.80 26.80 0.0 0 0 491.87 320.66
  A 26.80 26.80 0.0 0 0 518.67 293.86
  Z
  M 421.78 390.38
  A 26.91 26.91 0.0 0 0 394.87 363.47
  A 26.91 26.91 0.0 0 0 367.96 390.38
  A 26.91 26.91 0.0 0 0 394.87 417.29
  A 26.91 26.91 0.0 0 0 421.78 390.38
  Z
  M 227.62 390.73
  A 26.94 26.94 0.0 0 0 200.68 363.79
  A 26.94 26.94 0.0 0 0 173.74 390.73
  A 26.94 26.94 0.0 0 0 200.68 417.67
  A 26.94 26.94 0.0 0 0 227.62 390.73
  Z
  M 324.34 390.37
  A 26.76 26.76 0.0 0 0 297.58 363.61
  A 26.76 26.76 0.0 0 0 270.82 390.37
  A 26.76 26.76 0.0 0 0 297.58 417.13
  A 26.76 26.76 0.0 0 0 324.34 390.37
  Z
  M 227.81 487.08
  A 27.11 27.11 0.0 0 0 200.70 459.97
  A 27.11 27.11 0.0 0 0 173.59 487.08
  A 27.11 27.11 0.0 0 0 200.70 514.19
  A 27.11 27.11 0.0 0 0 227.81 487.08
  Z
  M 324.35 487.26
  A 26.77 26.77 0.0 0 0 297.58 460.49
  A 26.77 26.77 0.0 0 0 270.81 487.26
  A 26.77 26.77 0.0 0 0 297.58 514.03
  A 26.77 26.77 0.0 0 0 324.35 487.26
  Z
  M 421.91 487.30
  A 26.91 26.91 0.0 0 0 395.00 460.39
  A 26.91 26.91 0.0 0 0 368.09 487.30
  A 26.91 26.91 0.0 0 0 395.00 514.21
  A 26.91 26.91 0.0 0 0 421.91 487.30
  Z
  M 227.30 583.72
  A 26.81 26.81 0.0 0 0 200.49 556.91
  A 26.81 26.81 0.0 0 0 173.68 583.72
  A 26.81 26.81 0.0 0 0 200.49 610.53
  A 26.81 26.81 0.0 0 0 227.30 583.72
  Z
  M 324.50 583.74
  A 26.81 26.81 0.0 0 0 297.69 556.93
  A 26.81 26.81 0.0 0 0 270.88 583.74
  A 26.81 26.81 0.0 0 0 297.69 610.55
  A 26.81 26.81 0.0 0 0 324.50 583.74
  Z
  M 421.80 583.66
  A 26.96 26.96 0.0 0 0 394.84 556.70
  A 26.96 26.96 0.0 0 0 367.88 583.66
  A 26.96 26.96 0.0 0 0 394.84 610.62
  A 26.96 26.96 0.0 0 0 421.80 583.66
  Z
  M 518.73 583.80
  A 26.87 26.87 0.0 0 0 491.86 556.93
  A 26.87 26.87 0.0 0 0 464.99 583.80
  A 26.87 26.87 0.0 0 0 491.86 610.67
  A 26.87 26.87 0.0 0 0 518.73 583.80
  Z"
/>
<path fill="#63b1bc" d="
  M 1039.61 438.00
  Q 1039.61 490.36 1039.78 505.34
  Q 1039.79 506.41 1040.86 506.41
  L 1156.85 506.41
  A 0.73 0.73 0.0 0 0 1157.58 505.68
  L 1157.58 481.84
  Q 1157.58 481.26 1158.16 481.26
  L 1232.79 481.26
  Q 1233.07 481.26 1233.07 481.54
  L 1233.07 570.41
  Q 1233.07 570.90 1232.58 570.90
  L 976.11 570.90
  Q 975.18 570.90 975.18 569.97
  Q 975.13 504.15 975.13 438.00
  Q 975.13 371.85 975.18 306.04
  Q 975.18 305.11 976.11 305.11
  L 1232.58 305.11
  Q 1233.07 305.11 1233.07 305.60
  L 1233.07 394.47
  Q 1233.07 394.75 1232.79 394.75
  L 1158.16 394.75
  Q 1157.58 394.75 1157.58 394.17
  L 1157.58 370.33
  A 0.73 0.73 0.0 0 0 1156.85 369.60
  L 1040.86 369.60
  Q 1039.79 369.60 1039.78 370.66
  Q 1039.62 385.65 1039.61 438.00
  Z"
/>
<path fill="#63b1bc" d="
  M 1447.75 405.78
  Q 1503.78 405.78 1509.55 405.79
  A 0.33 0.33 0.0 0 0 1509.88 405.46
  L 1509.88 305.44
  A 0.33 0.33 0.0 0 1 1510.21 305.11
  L 1573.99 305.11
  A 0.38 0.37 0.2 0 1 1574.36 305.49
  Q 1574.36 348.77 1574.36 438.01
  Q 1574.36 527.25 1574.37 570.53
  A 0.38 0.37 -0.2 0 1 1573.99 570.91
  L 1510.21 570.91
  A 0.33 0.33 0.0 0 1 1509.88 570.58
  L 1509.88 470.56
  A 0.33 0.33 0.0 0 0 1509.55 470.23
  Q 1503.78 470.24 1447.75 470.24
  Q 1391.73 470.24 1385.96 470.23
  A 0.33 0.33 0.0 0 0 1385.63 470.56
  L 1385.63 570.58
  A 0.33 0.33 0.0 0 1 1385.30 570.91
  L 1321.52 570.91
  A 0.38 0.37 0.2 0 1 1321.14 570.53
  Q 1321.14 527.25 1321.14 438.01
  Q 1321.14 348.77 1321.14 305.49
  A 0.38 0.37 -0.2 0 1 1321.52 305.11
  L 1385.30 305.11
  A 0.33 0.33 0.0 0 1 1385.63 305.44
  L 1385.63 405.46
  A 0.33 0.33 0.0 0 0 1385.96 405.79
  Q 1391.73 405.78 1447.75 405.78
  Z"
/>
<path fill="#63b1bc" d="
  M 1921.95 506.82
  L 1921.95 570.49
  A 0.42 0.42 0.0 0 1 1921.53 570.91
  L 1667.57 570.91
  A 0.42 0.42 0.0 0 1 1667.15 570.49
  L 1667.15 305.53
  A 0.42 0.42 0.0 0 1 1667.57 305.11
  L 1921.53 305.11
  A 0.42 0.42 0.0 0 1 1921.95 305.53
  L 1921.95 369.18
  A 0.42 0.42 0.0 0 1 1921.53 369.60
  L 1731.65 369.60
  A 0.42 0.42 0.0 0 0 1731.23 370.02
  L 1731.23 405.36
  A 0.42 0.42 0.0 0 0 1731.65 405.78
  L 1863.33 405.78
  A 0.42 0.42 0.0 0 1 1863.75 406.20
  L 1863.75 469.82
  A 0.42 0.42 0.0 0 1 1863.33 470.24
  L 1732.06 470.24
  A 0.42 0.42 0.0 0 0 1731.64 470.66
  L 1731.64 505.98
  A 0.42 0.42 0.0 0 0 1732.06 506.40
  L 1921.53 506.40
  A 0.42 0.42 0.0 0 1 1921.95 506.82
  Z"
/>
<path fill="#63b1bc" d="
  M 2111.60 413.72
  A 0.46 0.46 0.0 0 0 2112.39 413.72
  Q 2134.75 376.25 2165.08 325.83
  C 2169.60 318.31 2174.03 312.67 2178.41 305.95
  Q 2178.69 305.52 2179.21 305.54
  Q 2181.55 305.66 2183.79 305.43
  Q 2186.90 305.12 2188.28 305.12
  Q 2206.12 305.11 2233.76 305.11
  C 2236.42 305.11 2238.91 305.76 2241.56 305.46
  A 0.47 0.47 0.0 0 1 2242.02 306.16
  Q 2201.23 375.17 2159.57 443.31
  Q 2153.43 453.36 2150.51 460.00
  Q 2143.26 476.54 2142.84 494.62
  Q 2142.83 494.89 2142.63 495.40
  Q 2142.46 495.79 2142.47 496.18
  Q 2142.60 506.74 2142.50 509.74
  Q 2142.16 520.36 2142.16 523.27
  Q 2142.12 545.20 2142.16 570.53
  Q 2142.16 570.90 2141.78 570.90
  L 2081.32 570.90
  Q 2080.73 570.90 2080.73 570.31
  L 2080.73 508.07
  Q 2080.73 503.41 2080.45 498.75
  Q 2079.67 485.92 2079.14 480.84
  Q 2078.28 472.65 2076.60 467.05
  Q 2073.93 458.16 2068.03 448.48
  Q 2025.50 378.75 1982.53 306.19
  Q 1982.27 305.74 1982.43 305.49
  A 0.95 0.83 14.5 0 1 1983.19 305.11
  L 2045.28 305.11
  Q 2046.17 305.11 2046.64 305.88
  L 2111.60 413.72
  Z"
/>
<path fill="#63b1bc" d="
  M 2367.84 505.74
  Q 2367.84 506.40 2368.50 506.40
  L 2557.73 506.40
  A 0.41 0.40 0.0 0 1 2558.14 506.80
  L 2558.13 570.47
  Q 2558.13 570.89 2557.70 570.89
  L 2303.71 570.89
  Q 2303.35 570.89 2303.35 570.53
  L 2303.37 305.44
  A 0.33 0.33 0.0 0 1 2303.70 305.11
  L 2557.94 305.11
  A 0.21 0.21 0.0 0 1 2558.15 305.32
  L 2558.14 369.21
  A 0.39 0.39 0.0 0 1 2557.75 369.60
  L 2367.91 369.60
  Q 2367.44 369.60 2367.44 370.07
  L 2367.44 405.25
  A 0.53 0.53 0.0 0 0 2367.97 405.78
  L 2499.22 405.78
  A 0.73 0.73 0.0 0 1 2499.95 406.51
  L 2499.94 469.50
  A 0.74 0.74 0.0 0 1 2499.20 470.24
  L 2368.16 470.24
  Q 2367.84 470.24 2367.84 470.56
  L 2367.84 505.74
  Z"
/>
<path fill="#63b1bc" d="
  M 2721.12 420.17
  Q 2720.97 420.38 2720.97 420.75
  Q 2720.92 558.68 2720.90 570.43
  Q 2720.90 570.89 2720.44 570.89
  L 2659.82 570.89
  A 0.22 0.22 0.0 0 1 2659.60 570.67
  L 2659.60 305.45
  Q 2659.60 305.11 2659.93 305.11
  L 2721.17 305.11
  Q 2721.73 305.11 2722.10 305.54
  L 2850.56 453.40
  A 0.30 0.29 24.7 0 0 2851.08 453.21
  L 2851.08 307.32
  Q 2851.08 306.68 2851.71 306.68
  L 2914.20 306.68
  A 0.18 0.17 90.0 0 1 2914.37 306.86
  L 2914.37 570.28
  Q 2914.37 570.90 2913.75 570.90
  L 2851.88 570.90
  Q 2851.43 570.90 2851.14 570.56
  L 2721.66 420.16
  A 0.35 0.34 43.6 0 0 2721.12 420.17
  Z"
/>
<path fill="#63b1bc" d="
  M 3079.70 420.17
  Q 3079.55 420.38 3079.55 420.75
  Q 3079.51 558.70 3079.49 570.45
  Q 3079.49 570.91 3079.03 570.91
  L 3018.40 570.91
  A 0.22 0.22 0.0 0 1 3018.18 570.69
  L 3018.17 305.45
  Q 3018.17 305.11 3018.50 305.11
  L 3079.75 305.10
  Q 3080.31 305.10 3080.68 305.53
  L 3209.16 453.40
  A 0.30 0.29 24.7 0 0 3209.68 453.21
  L 3209.67 307.31
  Q 3209.67 306.67 3210.30 306.67
  L 3272.80 306.66
  A 0.18 0.17 90.0 0 1 3272.97 306.84
  L 3272.98 570.29
  Q 3272.98 570.91 3272.36 570.91
  L 3210.48 570.91
  Q 3210.03 570.91 3209.74 570.57
  L 3080.24 420.16
  A 0.35 0.34 43.6 0 0 3079.70 420.17
  Z"
/>
<path fill="#63b1bc" d="
  M 3630.00 305.09
  L 3630.00 369.55
  L 3440.75 369.62
  A 0.50 0.50 0.0 0 0 3440.25 370.12
  L 3440.25 405.24
  Q 3440.25 405.78 3440.80 405.78
  L 3571.81 405.78
  A 0.79 0.78 90.0 0 1 3572.59 406.57
  L 3572.59 469.31
  Q 3572.59 470.24 3571.67 470.24
  L 3440.63 470.24
  A 0.34 0.33 -90.0 0 0 3440.30 470.58
  L 3440.30 505.80
  A 0.66 0.65 0.0 0 0 3440.96 506.45
  L 3630.00 506.37
  L 3630.00 570.90
  L 3376.20 570.90
  A 0.20 0.20 0.0 0 1 3376.00 570.70
  L 3376.00 305.55
  Q 3376.00 305.07 3376.48 305.07
  L 3630.00 305.09
  Z"
/>
</svg>
