<?xml version="1.0" encoding="UTF-8" standalone="no"?>
<!DOCTYPE svg PUBLIC "-//W3C//DTD SVG 1.1//EN" "http://www.w3.org/Graphics/SVG/1.1/DTD/svg11.dtd">
<svg xmlns="http://www.w3.org/2000/svg" version="1.1" viewBox="0.00 0.00 3630.00 865.00">
<g stroke-width="2.00" fill="none" stroke-linecap="butt">
<path stroke="#808080" vector-effect="non-scaling-stroke" d="
  M 227.58 293.91
  A 26.84 26.84 0.0 0 0 200.74 267.07
  A 26.84 26.84 0.0 0 0 173.90 293.91
  A 26.84 26.84 0.0 0 0 200.74 320.75
  A 26.84 26.84 0.0 0 0 227.58 293.91"
/>
<path stroke="#808080" vector-effect="non-scaling-stroke" d="
  M 324.44 294.04
  A 26.86 26.86 0.0 0 0 297.58 267.18
  A 26.86 26.86 0.0 0 0 270.72 294.04
  A 26.86 26.86 0.0 0 0 297.58 320.90
  A 26.86 26.86 0.0 0 0 324.44 294.04"
/>
<path stroke="#808080" vector-effect="non-scaling-stroke" d="
  M 421.63 293.93
  A 26.92 26.92 0.0 0 0 394.71 267.01
  A 26.92 26.92 0.0 0 0 367.79 293.93
  A 26.92 26.92 0.0 0 0 394.71 320.85
  A 26.92 26.92 0.0 0 0 421.63 293.93"
/>
<path stroke="#808080" vector-effect="non-scaling-stroke" d="
  M 518.67 293.86
  A 26.80 26.80 0.0 0 0 491.87 267.06
  A 26.80 26.80 0.0 0 0 465.07 293.86
  A 26.80 26.80 0.0 0 0 491.87 320.66
  A 26.80 26.80 0.0 0 0 518.67 293.86"
/>
<path stroke="#808080" vector-effect="non-scaling-stroke" d="
  M 421.78 390.37
  A 26.91 26.91 0.0 0 0 394.87 363.46
  A 26.91 26.91 0.0 0 0 367.96 390.37
  A 26.91 26.91 0.0 0 0 394.87 417.28
  A 26.91 26.91 0.0 0 0 421.78 390.37"
/>
<path stroke="#808080" vector-effect="non-scaling-stroke" d="
  M 227.62 390.73
  A 26.94 26.94 0.0 0 0 200.68 363.79
  A 26.94 26.94 0.0 0 0 173.74 390.73
  A 26.94 26.94 0.0 0 0 200.68 417.67
  A 26.94 26.94 0.0 0 0 227.62 390.73"
/>
<path stroke="#808080" vector-effect="non-scaling-stroke" d="
  M 324.34 390.37
  A 26.76 26.76 0.0 0 0 297.58 363.61
  A 26.76 26.76 0.0 0 0 270.82 390.37
  A 26.76 26.76 0.0 0 0 297.58 417.13
  A 26.76 26.76 0.0 0 0 324.34 390.37"
/>
<path stroke="#808080" vector-effect="non-scaling-stroke" d="
  M 227.81 487.07
  A 27.11 27.11 0.0 0 0 200.70 459.96
  A 27.11 27.11 0.0 0 0 173.59 487.07
  A 27.11 27.11 0.0 0 0 200.70 514.18
  A 27.11 27.11 0.0 0 0 227.81 487.07"
/>
<path stroke="#808080" vector-effect="non-scaling-stroke" d="
  M 324.35 487.26
  A 26.77 26.77 0.0 0 0 297.58 460.49
  A 26.77 26.77 0.0 0 0 270.81 487.26
  A 26.77 26.77 0.0 0 0 297.58 514.03
  A 26.77 26.77 0.0 0 0 324.35 487.26"
/>
<path stroke="#808080" vector-effect="non-scaling-stroke" d="
  M 421.91 487.30
  A 26.91 26.91 0.0 0 0 395.00 460.39
  A 26.91 26.91 0.0 0 0 368.09 487.30
  A 26.91 26.91 0.0 0 0 395.00 514.21
  A 26.91 26.91 0.0 0 0 421.91 487.30"
/>
<path stroke="#808080" vector-effect="non-scaling-stroke" d="
  M 227.30 583.72
  A 26.81 26.81 0.0 0 0 200.49 556.91
  A 26.81 26.81 0.0 0 0 173.68 583.72
  A 26.81 26.81 0.0 0 0 200.49 610.53
  A 26.81 26.81 0.0 0 0 227.30 583.72"
/>
<path stroke="#808080" vector-effect="non-scaling-stroke" d="
  M 324.50 583.74
  A 26.81 26.81 0.0 0 0 297.69 556.93
  A 26.81 26.81 0.0 0 0 270.88 583.74
  A 26.81 26.81 0.0 0 0 297.69 610.55
  A 26.81 26.81 0.0 0 0 324.50 583.74"
/>
<path stroke="#808080" vector-effect="non-scaling-stroke" d="
  M 421.80 583.66
  A 26.96 26.96 0.0 0 0 394.84 556.70
  A 26.96 26.96 0.0 0 0 367.88 583.66
  A 26.96 26.96 0.0 0 0 394.84 610.62
  A 26.96 26.96 0.0 0 0 421.80 583.66"
/>
<path stroke="#808080" vector-effect="non-scaling-stroke" d="
  M 518.73 583.80
  A 26.87 26.87 0.0 0 0 491.86 556.93
  A 26.87 26.87 0.0 0 0 464.99 583.80
  A 26.87 26.87 0.0 0 0 491.86 610.67
  A 26.87 26.87 0.0 0 0 518.73 583.80"
/>
</g>
<path fill="#000000" d="
  M 0.00 794.49
  L 0.00 84.96
  L 691.43 84.83
  Q 692.05 84.83 692.05 85.45
  L 692.05 793.83
  Q 692.05 794.36 691.52 794.36
  L 0.00 794.49
  Z
  M 227.58 293.91
  A 26.84 26.84 0.0 0 0 200.74 267.07
  A 26.84 26.84 0.0 0 0 173.90 293.91
  A 26.84 26.84 0.0 0 0 200.74 320.75
  A 26.84 26.84 0.0 0 0 227.58 293.91
  Z
  M 324.44 294.04
  A 26.86 26.86 0.0 0 0 297.58 267.18
  A 26.86 26.86 0.0 0 0 270.72 294.04
  A 26.86 26.86 0.0 0 0 297.58 320.90
  A 26.86 26.86 0.0 0 0 324.44 294.04
  Z
  M 421.63 293.93
  A 26.92 26.92 0.0 0 0 394.71 267.01
  A 26.92 26.92 0.0 0 0 367.79 293.93
  A 26.92 26.92 0.0 0 0 394.71 320.85
  A 26.92 26.92 0.0 0 0 421.63 293.93
  Z
  M 518.67 293.86
  A 26.80 26.80 0.0 0 0 491.87 267.06
  A 26.80 26.80 0.0 0 0 465.07 293.86
  A 26.80 26.80 0.0 0 0 491.87 320.66
  A 26.80 26.80 0.0 0 0 518.67 293.86
  Z
  M 421.78 390.37
  A 26.91 26.91 0.0 0 0 394.87 363.46
  A 26.91 26.91 0.0 0 0 367.96 390.37
  A 26.91 26.91 0.0 0 0 394.87 417.28
  A 26.91 26.91 0.0 0 0 421.78 390.37
  Z
  M 227.62 390.73
  A 26.94 26.94 0.0 0 0 200.68 363.79
  A 26.94 26.94 0.0 0 0 173.74 390.73
  A 26.94 26.94 0.0 0 0 200.68 417.67
  A 26.94 26.94 0.0 0 0 227.62 390.73
  Z
  M 324.34 390.37
  A 26.76 26.76 0.0 0 0 297.58 363.61
  A 26.76 26.76 0.0 0 0 270.82 390.37
  A 26.76 26.76 0.0 0 0 297.58 417.13
  A 26.76 26.76 0.0 0 0 324.34 390.37
  Z
  M 227.81 487.07
  A 27.11 27.11 0.0 0 0 200.70 459.96
  A 27.11 27.11 0.0 0 0 173.59 487.07
  A 27.11 27.11 0.0 0 0 200.70 514.18
  A 27.11 27.11 0.0 0 0 227.81 487.07
  Z
  M 324.35 487.26
  A 26.77 26.77 0.0 0 0 297.58 460.49
  A 26.77 26.77 0.0 0 0 270.81 487.26
  A 26.77 26.77 0.0 0 0 297.58 514.03
  A 26.77 26.77 0.0 0 0 324.35 487.26
  Z
  M 421.91 487.30
  A 26.91 26.91 0.0 0 0 395.00 460.39
  A 26.91 26.91 0.0 0 0 368.09 487.30
  A 26.91 26.91 0.0 0 0 395.00 514.21
  A 26.91 26.91 0.0 0 0 421.91 487.30
  Z
  M 227.30 583.72
  A 26.81 26.81 0.0 0 0 200.49 556.91
  A 26.81 26.81 0.0 0 0 173.68 583.72
  A 26.81 26.81 0.0 0 0 200.49 610.53
  A 26.81 26.81 0.0 0 0 227.30 583.72
  Z
  M 324.50 583.74
  A 26.81 26.81 0.0 0 0 297.69 556.93
  A 26.81 26.81 0.0 0 0 270.88 583.74
  A 26.81 26.81 0.0 0 0 297.69 610.55
  A 26.81 26.81 0.0 0 0 324.50 583.74
  Z
  M 421.80 583.66
  A 26.96 26.96 0.0 0 0 394.84 556.70
  A 26.96 26.96 0.0 0 0 367.88 583.66
  A 26.96 26.96 0.0 0 0 394.84 610.62
  A 26.96 26.96 0.0 0 0 421.80 583.66
  Z
  M 518.73 583.80
  A 26.87 26.87 0.0 0 0 491.86 556.93
  A 26.87 26.87 0.0 0 0 464.99 583.80
  A 26.87 26.87 0.0 0 0 491.86 610.67
  A 26.87 26.87 0.0 0 0 518.73 583.80
  Z"
/>
<circle fill="#ffffff" cx="200.74" cy="293.91" r="26.84"/>
<circle fill="#ffffff" cx="297.58" cy="294.04" r="26.86"/>
<circle fill="#ffffff" cx="394.71" cy="293.93" r="26.92"/>
<circle fill="#ffffff" cx="491.87" cy="293.86" r="26.80"/>
<path fill="#000000" d="
  M 1040.27 506.41
  L 1156.77 506.41
  A 0.81 0.80 0.0 0 0 1157.58 505.61
  L 1157.58 481.71
  Q 1157.58 481.26 1158.03 481.26
  L 1232.66 481.26
  A 0.41 0.41 0.0 0 1 1233.07 481.67
  L 1233.07 570.54
  Q 1233.07 570.90 1232.71 570.90
  L 975.97 570.90
  A 0.84 0.84 0.0 0 1 975.13 570.06
  L 975.13 306.06
  Q 975.13 305.11 976.08 305.11
  L 1232.71 305.11
  Q 1233.07 305.11 1233.07 305.47
  L 1233.07 394.34
  A 0.42 0.41 -90.0 0 1 1232.66 394.76
  L 1158.16 394.76
  Q 1157.58 394.76 1157.58 394.17
  L 1157.58 370.51
  Q 1157.58 369.60 1156.66 369.60
  L 1040.95 369.60
  A 1.31 1.30 0.0 0 0 1039.64 370.90
  L 1039.64 505.79
  Q 1039.64 506.41 1040.27 506.41
  Z"
/>
<path fill="#000000" d="
  M 1447.75 405.77
  Q 1478.62 405.77 1509.41 405.75
  A 0.47 0.46 -0.2 0 0 1509.88 405.29
  L 1509.88 305.52
  A 0.41 0.41 0.0 0 1 1510.29 305.11
  L 1573.91 305.11
  A 0.43 0.43 0.0 0 1 1574.34 305.54
  Q 1574.36 316.27 1574.36 438.00
  Q 1574.37 559.74 1574.35 570.47
  A 0.43 0.43 0.0 0 1 1573.91 570.90
  L 1510.29 570.90
  A 0.41 0.41 0.0 0 1 1509.88 570.49
  L 1509.88 470.72
  A 0.47 0.46 0.2 0 0 1509.41 470.26
  Q 1478.62 470.24 1447.75 470.24
  Q 1416.89 470.24 1386.10 470.26
  A 0.47 0.46 -0.2 0 0 1385.63 470.72
  L 1385.63 570.49
  A 0.41 0.41 0.0 0 1 1385.22 570.90
  L 1321.60 570.90
  A 0.43 0.43 0.0 0 1 1321.17 570.47
  Q 1321.15 559.74 1321.15 438.01
  Q 1321.14 316.27 1321.16 305.54
  A 0.43 0.43 0.0 0 1 1321.60 305.11
  L 1385.22 305.11
  A 0.41 0.41 0.0 0 1 1385.63 305.52
  L 1385.63 405.29
  A 0.47 0.46 0.2 0 0 1386.10 405.75
  Q 1416.89 405.77 1447.75 405.77
  Z"
/>
<path fill="#000000" d="
  M 1863.77 438.00
  Q 1863.77 453.63 1863.72 469.51
  A 0.73 0.73 0.0 0 1 1862.99 470.24
  L 1731.79 470.24
  A 0.34 0.34 0.0 0 0 1731.45 470.58
  L 1731.45 505.89
  A 0.52 0.51 90.0 0 0 1731.96 506.41
  L 1921.55 506.41
  A 0.40 0.40 0.0 0 1 1921.95 506.81
  L 1921.95 570.47
  Q 1921.95 570.90 1921.53 570.90
  L 1667.59 570.90
  A 0.45 0.44 89.9 0 1 1667.15 570.45
  Q 1667.16 504.27 1667.15 438.02
  Q 1667.15 371.76 1667.12 305.58
  A 0.45 0.44 -89.9 0 1 1667.56 305.13
  L 1921.50 305.08
  Q 1921.92 305.08 1921.92 305.51
  L 1921.94 369.17
  A 0.40 0.40 0.0 0 1 1921.54 369.57
  L 1731.95 369.61
  A 0.52 0.51 90.0 0 0 1731.44 370.13
  L 1731.44 405.44
  A 0.34 0.34 0.0 0 0 1731.78 405.78
  L 1862.98 405.75
  A 0.73 0.73 0.0 0 1 1863.71 406.48
  Q 1863.76 422.36 1863.77 438.00
  Z"
/>
<path fill="#000000" d="
  M 2111.99 413.93
  A 0.76 0.76 0.0 0 0 2112.48 413.58
  Q 2127.27 388.75 2163.59 328.27
  Q 2168.58 319.96 2170.74 316.99
  Q 2174.39 311.99 2178.42 305.98
  Q 2178.72 305.54 2179.25 305.53
  C 2181.06 305.46 2183.27 305.81 2184.68 305.39
  Q 2185.67 305.11 2186.57 305.11
  Q 2218.69 305.12 2233.81 305.11
  C 2236.43 305.10 2238.92 305.75 2241.55 305.48
  A 0.47 0.47 0.0 0 1 2242.00 306.19
  Q 2201.01 375.56 2156.91 447.69
  Q 2143.74 469.23 2142.64 494.82
  Q 2142.60 495.78 2142.60 496.01
  Q 2142.69 505.36 2142.50 509.84
  C 2141.66 529.35 2142.14 549.00 2142.14 570.49
  A 0.41 0.41 0.0 0 1 2141.73 570.90
  L 2081.13 570.90
  A 0.32 0.31 90.0 0 1 2080.82 570.58
  Q 2080.81 551.69 2080.82 518.00
  C 2080.82 516.61 2080.30 515.07 2080.34 513.67
  Q 2080.94 491.98 2078.23 474.42
  C 2076.60 463.84 2072.31 455.54 2066.09 445.32
  Q 2023.95 376.09 1982.51 306.23
  A 0.74 0.74 0.0 0 1 1983.15 305.11
  L 2045.27 305.11
  A 1.59 1.58 -15.4 0 1 2046.63 305.88
  Q 2079.07 359.69 2111.62 413.64
  Q 2111.82 413.97 2111.99 413.93
  Z"
/>
<path fill="#000000" d="
  M 2367.85 405.78
  L 2499.51 405.78
  A 0.42 0.42 0.0 0 1 2499.93 406.20
  L 2499.93 469.83
  A 0.42 0.42 0.0 0 1 2499.51 470.25
  L 2368.26 470.25
  A 0.42 0.42 0.0 0 0 2367.84 470.67
  L 2367.84 505.99
  A 0.42 0.42 0.0 0 0 2368.26 506.41
  L 2557.72 506.41
  A 0.42 0.42 0.0 0 1 2558.14 506.83
  L 2558.14 570.48
  A 0.42 0.42 0.0 0 1 2557.72 570.90
  L 2303.77 570.90
  A 0.42 0.42 0.0 0 1 2303.35 570.48
  L 2303.35 305.53
  A 0.42 0.42 0.0 0 1 2303.77 305.11
  L 2557.73 305.11
  A 0.42 0.42 0.0 0 1 2558.15 305.53
  L 2558.15 369.18
  A 0.42 0.42 0.0 0 1 2557.73 369.60
  L 2367.85 369.60
  A 0.42 0.42 0.0 0 0 2367.43 370.02
  L 2367.43 405.36
  A 0.42 0.42 0.0 0 0 2367.85 405.78
  Z"
/>
<path fill="#000000" d="
  M 2851.44 306.68
  L 2914.00 306.68
  A 0.36 0.36 0.0 0 1 2914.36 307.04
  L 2914.36 570.53
  A 0.36 0.36 0.0 0 1 2914.00 570.89
  L 2851.59 570.89
  A 0.36 0.36 0.0 0 1 2851.31 570.76
  L 2721.56 420.05
  A 0.36 0.36 0.0 0 0 2720.93 420.28
  L 2720.93 570.52
  A 0.36 0.36 0.0 0 1 2720.57 570.88
  L 2659.95 570.88
  A 0.36 0.36 0.0 0 1 2659.59 570.52
  L 2659.59 305.47
  A 0.36 0.36 0.0 0 1 2659.95 305.11
  L 2721.58 305.11
  A 0.36 0.36 0.0 0 1 2721.85 305.23
  L 2850.45 453.27
  A 0.36 0.36 0.0 0 0 2851.08 453.04
  L 2851.08 307.04
  A 0.36 0.36 0.0 0 1 2851.44 306.68
  Z"
/>
<path fill="#000000" d="
  M 3209.08 453.32
  A 0.34 0.34 0.0 0 0 3209.67 453.10
  L 3209.67 307.19
  A 0.51 0.51 0.0 0 1 3210.18 306.68
  L 3272.56 306.66
  A 0.41 0.41 0.0 0 1 3272.97 307.07
  L 3272.98 570.52
  A 0.39 0.39 0.0 0 1 3272.59 570.91
  L 3210.55 570.91
  Q 3210.04 570.91 3209.70 570.52
  L 3080.75 420.76
  Q 3079.52 419.33 3079.52 421.21
  L 3079.53 570.50
  A 0.42 0.42 0.0 0 1 3079.11 570.92
  L 3018.60 570.92
  A 0.43 0.43 0.0 0 1 3018.17 570.49
  L 3018.16 305.52
  A 0.42 0.41 -0.0 0 1 3018.58 305.11
  L 3079.11 305.11
  A 2.65 2.64 -20.4 0 1 3081.11 306.02
  L 3209.08 453.32
  Z"
/>
<path fill="#000000" d="
  M 3630.00 305.11
  L 3630.00 369.59
  L 3440.52 369.59
  A 0.43 0.43 0.0 0 0 3440.09 370.02
  L 3440.09 405.42
  A 0.36 0.36 0.0 0 0 3440.45 405.78
  L 3571.69 405.78
  A 0.91 0.90 -90.0 0 1 3572.59 406.69
  L 3572.59 469.45
  A 0.80 0.80 0.0 0 1 3571.79 470.25
  L 3440.98 470.25
  A 0.51 0.51 0.0 0 0 3440.47 470.76
  L 3440.47 505.50
  A 0.92 0.92 0.0 0 0 3441.39 506.42
  L 3630.00 506.41
  L 3630.00 570.90
  L 3376.20 570.90
  A 0.20 0.20 0.0 0 1 3376.00 570.70
  L 3376.00 305.50
  Q 3376.00 305.12 3376.38 305.12
  L 3630.00 305.11
  Z"
/>
<circle fill="#ffffff" cx="394.87" cy="390.37" r="26.91"/>
<circle fill="#ffffff" cx="200.68" cy="390.73" r="26.94"/>
<circle fill="#ffffff" cx="297.58" cy="390.37" r="26.76"/>
<circle fill="#ffffff" cx="200.70" cy="487.07" r="27.11"/>
<circle fill="#ffffff" cx="297.58" cy="487.26" r="26.77"/>
<circle fill="#ffffff" cx="395.00" cy="487.30" r="26.91"/>
<circle fill="#ffffff" cx="200.49" cy="583.72" r="26.81"/>
<circle fill="#ffffff" cx="297.69" cy="583.74" r="26.81"/>
<circle fill="#ffffff" cx="394.84" cy="583.66" r="26.96"/>
<circle fill="#ffffff" cx="491.86" cy="583.80" r="26.87"/>
</svg>
