<?xml version="1.0" encoding="UTF-8" standalone="no"?>
<!DOCTYPE svg PUBLIC "-//W3C//DTD SVG 1.1//EN" "http://www.w3.org/Graphics/SVG/1.1/DTD/svg11.dtd">
<svg xmlns="http://www.w3.org/2000/svg" version="1.1" viewBox="0.00 0.00 400.00 436.00">
<path fill="#ff6f61" d="
  M 331.82 45.37
  C 333.13 43.34 335.95 39.20 337.93 38.58
  C 338.79 38.32 339.32 37.27 340.42 36.62
  Q 351.65 29.95 363.43 35.13
  Q 364.47 35.59 365.51 36.49
  C 366.59 37.43 367.60 37.55 368.60 38.51
  Q 378.31 47.74 377.46 60.32
  Q 376.32 77.35 364.96 91.25
  Q 354.18 104.43 338.00 114.24
  C 336.89 114.91 335.92 115.16 334.90 115.91
  Q 332.08 117.98 328.86 116.24
  Q 312.07 107.18 299.51 92.54
  Q 289.04 80.35 286.26 64.56
  Q 285.74 61.58 286.14 55.07
  Q 286.61 47.61 292.37 41.34
  A 1.45 1.43 73.9 0 0 292.71 40.71
  Q 292.92 39.82 293.88 39.65
  Q 294.39 39.56 294.68 39.13
  Q 295.80 37.45 297.45 36.48
  Q 309.24 29.59 321.19 35.62
  Q 326.43 38.27 331.21 44.35
  Q 331.46 44.67 331.49 45.27
  Q 331.51 45.85 331.82 45.37
  Z"
/>
<path fill="#000000" d="
  M 130.61 154.83
  Q 131.22 153.00 130.86 150.93
  C 130.18 146.96 130.05 142.61 130.82 138.97
  C 131.24 137.01 130.92 134.49 131.38 132.14
  Q 132.91 124.28 134.59 120.07
  Q 138.35 110.63 144.92 103.76
  Q 151.26 97.13 160.35 92.89
  Q 179.39 84.01 201.09 90.83
  Q 202.23 91.18 203.04 90.95
  Q 210.91 88.66 217.99 88.12
  Q 234.84 86.85 249.08 95.43
  Q 249.45 95.65 250.73 96.78
  C 251.61 97.56 252.60 97.82 253.44 98.51
  Q 269.66 111.94 273.09 134.55
  Q 274.88 146.32 273.13 155.42
  Q 273.02 155.99 273.60 155.99
  Q 289.95 156.05 301.77 155.94
  Q 305.91 155.90 307.65 158.74
  Q 308.48 160.09 308.82 163.96
  Q 309.27 168.95 309.28 169.03
  Q 326.87 322.04 326.89 322.26
  Q 327.16 325.00 327.20 325.22
  Q 328.19 331.47 328.04 335.89
  Q 327.94 338.58 326.59 339.79
  C 324.94 341.26 323.43 341.00 321.30 341.00
  Q 199.39 341.00 77.59 341.00
  A 2.74 2.73 72.1 0 1 75.37 339.86
  L 73.64 337.46
  A 2.90 2.86 30.9 0 1 73.12 335.45
  Q 82.03 258.04 89.78 191.00
  C 89.96 189.42 90.08 185.99 90.59 183.99
  C 91.27 181.33 90.94 178.82 91.47 175.94
  Q 91.89 173.67 92.02 171.43
  Q 92.21 168.08 92.57 166.87
  C 93.23 164.70 92.93 162.69 93.24 160.21
  Q 93.30 159.71 93.59 159.37
  Q 93.65 159.29 93.92 159.03
  Q 94.24 158.70 94.37 158.25
  Q 94.98 156.09 97.13 156.07
  Q 120.77 155.93 126.51 156.02
  Q 128.90 156.05 130.01 155.51
  Q 130.45 155.30 130.61 154.83
  Z
  M 145.36 124.77
  C 142.51 131.78 142.77 137.19 142.58 146.07
  C 142.53 148.52 141.71 151.76 142.11 154.71
  A 1.75 1.74 -4.0 0 0 143.84 156.21
  Q 159.07 156.22 166.89 155.94
  Q 169.59 155.85 169.30 152.63
  C 168.55 144.43 168.40 135.71 170.31 127.87
  Q 174.38 111.15 187.27 99.70
  Q 187.65 99.36 187.16 99.24
  C 184.51 98.57 181.81 99.55 179.95 99.71
  C 163.90 101.07 151.49 109.75 145.36 124.77
  Z
  M 258.70 124.72
  C 252.57 109.74 240.19 101.10 224.18 99.77
  C 222.32 99.61 219.63 98.63 216.99 99.30
  Q 216.50 99.43 216.88 99.76
  Q 229.75 111.17 233.82 127.84
  C 235.74 135.65 235.60 144.35 234.86 152.53
  Q 234.57 155.74 237.27 155.82
  Q 245.06 156.09 260.25 156.07
  A 1.74 1.74 0.0 0 0 261.98 154.57
  C 262.37 151.63 261.55 148.40 261.50 145.95
  C 261.30 137.10 261.55 131.70 258.70 124.72
  Z
  M 181.56 156.04
  L 222.62 155.96
  A 1.37 1.37 0.0 0 0 223.99 154.59
  L 223.99 150.82
  A 45.36 21.38 89.9 0 0 202.53 105.50
  L 201.49 105.50
  A 45.36 21.38 89.9 0 0 180.19 150.90
  L 180.19 154.67
  A 1.37 1.37 0.0 0 0 181.56 156.04
  Z
  M 105.32 167.00
  A 1.15 1.15 0.0 0 0 104.17 168.02
  L 85.65 328.72
  A 1.15 1.15 0.0 0 0 86.79 330.00
  L 129.85 330.00
  A 1.15 1.15 0.0 0 0 131.00 328.85
  L 131.00 168.15
  A 1.15 1.15 0.0 0 0 129.85 167.00
  L 105.32 167.00
  Z
  M 269.02 199.74
  C 265.70 200.07 262.17 200.99 262.04 196.50
  Q 262.01 195.49 261.99 168.23
  A 1.23 1.23 0.0 0 0 260.76 167.00
  L 181.08 167.00
  Q 180.62 167.00 180.62 167.45
  Q 180.59 171.72 180.60 196.75
  Q 180.60 197.45 179.41 198.96
  Q 178.68 199.89 177.36 199.97
  Q 173.66 200.19 170.77 199.64
  A 1.33 1.28 -11.6 0 1 169.95 199.12
  Q 169.02 197.85 169.02 196.72
  Q 169.01 191.23 168.99 167.97
  A 0.97 0.97 0.0 0 0 168.02 167.00
  L 143.25 167.00
  A 1.26 1.26 0.0 0 0 141.99 168.26
  L 141.99 328.79
  Q 141.99 330.00 143.21 330.00
  L 314.62 330.00
  Q 316.02 330.00 315.86 328.62
  L 297.35 167.65
  Q 297.28 166.99 296.61 166.99
  L 274.31 166.99
  Q 273.83 166.99 273.82 167.47
  Q 273.77 174.95 273.84 195.00
  Q 273.85 197.35 272.27 198.68
  Q 271.28 199.52 269.02 199.74
  Z"
/>
</svg>
