<?xml version="1.0" encoding="UTF-8" standalone="no"?>
<!DOCTYPE svg PUBLIC "-//W3C//DTD SVG 1.1//EN" "http://www.w3.org/Graphics/SVG/1.1/DTD/svg11.dtd">
<svg xmlns="http://www.w3.org/2000/svg" version="1.1" viewBox="0.00 0.00 3785.00 830.00">
<g stroke-width="2.00" fill="none" stroke-linecap="butt">
<path stroke="#b2d9df" vector-effect="non-scaling-stroke" d="
  M 81.71 72.25
  Q 81.98 71.98 82.50 71.98
  Q 143.96 72.00 202.76 71.98
  Q 203.83 71.98 203.83 70.91
  L 203.83 67.12
  Q 203.83 66.08 202.79 66.08
  Q 137.52 66.15 76.05 66.04
  Q 75.86 66.04 75.70 66.20
  Q 75.52 66.38 75.52 66.57
  Q 75.63 128.04 75.55 193.31
  Q 75.55 194.35 76.59 194.35
  L 80.39 194.35
  Q 81.46 194.35 81.46 193.28
  Q 81.47 134.48 81.46 73.02
  Q 81.46 72.50 81.71 72.25"
/>
<path stroke="#b2d9df" vector-effect="non-scaling-stroke" d="
  M 3703.40 72.26
  Q 3703.65 72.51 3703.65 73.03
  Q 3703.63 134.46 3703.64 193.24
  Q 3703.64 194.31 3704.71 194.31
  L 3708.50 194.31
  Q 3709.54 194.31 3709.54 193.27
  Q 3709.47 128.03 3709.59 66.58
  Q 3709.59 66.39 3709.41 66.21
  Q 3709.25 66.05 3709.06 66.05
  Q 3647.61 66.15 3582.37 66.07
  Q 3581.33 66.07 3581.33 67.11
  L 3581.33 70.90
  Q 3581.33 71.97 3582.40 71.97
  Q 3641.18 71.99 3702.61 71.99
  Q 3703.13 71.99 3703.40 72.26"
/>
<path stroke="#b2d9df" vector-effect="non-scaling-stroke" d="
  M 618.82 420.30
  Q 618.82 519.26 618.87 547.20
  A 0.58 0.58 0.0 0 0 619.45 547.78
  L 865.86 547.78
  A 0.37 0.37 0.0 0 0 866.23 547.41
  L 866.23 462.06
  A 0.22 0.22 0.0 0 0 866.01 461.84
  L 794.19 461.84
  A 0.33 0.33 0.0 0 0 793.86 462.17
  L 793.86 485.37
  A 0.61 0.61 0.0 0 1 793.25 485.98
  L 681.29 485.98
  A 0.48 0.47 -0.3 0 1 680.81 485.51
  C 680.57 470.13 680.57 453.07 680.57 420.31
  C 680.58 387.54 680.58 370.48 680.82 355.10
  A 0.48 0.47 0.3 0 1 681.29 354.63
  L 793.25 354.64
  A 0.61 0.61 0.0 0 1 793.86 355.25
  L 793.86 378.45
  A 0.33 0.33 0.0 0 0 794.19 378.78
  L 866.01 378.79
  A 0.22 0.22 0.0 0 0 866.23 378.57
  L 866.24 293.22
  A 0.37 0.37 0.0 0 0 865.87 292.85
  L 619.46 292.83
  A 0.58 0.58 0.0 0 0 618.88 293.41
  Q 618.83 321.35 618.82 420.30"
/>
<path stroke="#b2d9df" vector-effect="non-scaling-stroke" d="
  M 950.82 420.29
  Q 950.81 540.06 950.84 547.39
  A 0.39 0.38 89.7 0 0 951.22 547.77
  L 1012.05 547.77
  Q 1012.61 547.77 1012.61 547.21
  L 1012.61 451.59
  A 0.37 0.37 0.0 0 1 1012.97 451.22
  Q 1042.59 451.17 1072.27 451.17
  Q 1101.95 451.17 1131.56 451.23
  A 0.37 0.37 0.0 0 1 1131.92 451.59
  L 1131.92 547.21
  Q 1131.92 547.77 1132.48 547.77
  L 1193.31 547.78
  A 0.39 0.38 -89.7 0 0 1193.69 547.39
  Q 1193.71 540.07 1193.72 420.30
  Q 1193.72 300.53 1193.70 293.20
  A 0.39 0.38 89.7 0 0 1193.31 292.82
  L 1132.48 292.82
  Q 1131.92 292.82 1131.92 293.38
  L 1131.92 389.00
  A 0.37 0.37 0.0 0 1 1131.56 389.36
  Q 1101.95 389.42 1072.27 389.42
  Q 1042.59 389.42 1012.98 389.36
  A 0.37 0.37 0.0 0 1 1012.61 389.00
  L 1012.62 293.38
  Q 1012.62 292.82 1012.06 292.82
  L 951.23 292.81
  A 0.39 0.38 -89.7 0 0 950.84 293.19
  Q 950.82 300.52 950.82 420.29"
/>
<path stroke="#b2d9df" vector-effect="non-scaling-stroke" d="
  M 1344.78 389.39
  A 0.55 0.55 0.0 0 1 1344.23 388.84
  L 1344.23 355.18
  A 0.55 0.55 0.0 0 1 1344.78 354.63
  L 1526.72 354.63
  A 0.55 0.55 0.0 0 0 1527.27 354.08
  L 1527.27 293.39
  A 0.55 0.55 0.0 0 0 1526.72 292.84
  L 1283.41 292.84
  A 0.55 0.55 0.0 0 0 1282.86 293.39
  L 1282.86 547.25
  A 0.55 0.55 0.0 0 0 1283.41 547.80
  L 1526.72 547.80
  A 0.55 0.55 0.0 0 0 1527.27 547.25
  L 1527.27 486.52
  A 0.55 0.55 0.0 0 0 1526.72 485.97
  L 1345.17 485.97
  A 0.55 0.55 0.0 0 1 1344.62 485.42
  L 1344.62 451.68
  A 0.55 0.55 0.0 0 1 1345.17 451.13
  L 1470.85 451.13
  A 0.55 0.55 0.0 0 0 1471.40 450.58
  L 1471.40 389.94
  A 0.55 0.55 0.0 0 0 1470.85 389.39
  L 1344.78 389.39"
/>
<path stroke="#b2d9df" vector-effect="non-scaling-stroke" d="
  M 1709.11 396.86
  L 1647.10 293.90
  A 2.20 2.19 -15.5 0 0 1645.22 292.84
  L 1586.00 292.84
  A 0.67 0.67 0.0 0 0 1585.42 293.86
  Q 1631.74 371.63 1668.96 432.82
  Q 1675.94 444.31 1677.60 456.87
  Q 1679.00 467.59 1679.23 477.01
  Q 1680.01 509.31 1679.72 547.02
  Q 1679.71 547.81 1680.50 547.81
  L 1737.58 547.81
  A 1.01 1.01 0.0 0 0 1738.59 546.79
  Q 1738.31 512.24 1738.99 476.23
  Q 1739.46 450.84 1753.88 427.44
  Q 1788.42 371.38 1834.24 293.92
  A 0.67 0.67 0.0 0 0 1833.67 292.91
  L 1774.94 292.91
  A 1.61 1.60 18.2 0 0 1773.65 293.56
  Q 1765.48 304.49 1758.55 316.05
  Q 1726.39 369.70 1710.16 396.86
  A 0.61 0.61 0.0 0 1 1709.11 396.86"
/>
<path stroke="#b2d9df" vector-effect="non-scaling-stroke" d="
  M 1893.30 420.32
  Q 1893.32 518.49 1893.32 547.14
  A 0.64 0.64 0.0 0 0 1893.96 547.78
  L 2137.37 547.78
  Q 2137.76 547.78 2137.76 547.38
  L 2137.76 486.62
  A 0.65 0.65 0.0 0 0 2137.11 485.97
  L 1955.28 485.97
  A 0.39 0.39 0.0 0 1 1954.89 485.58
  L 1954.89 451.76
  A 0.59 0.58 -90.0 0 1 1955.47 451.17
  L 2081.27 451.17
  A 0.52 0.51 -89.7 0 0 2081.78 450.66
  Q 2081.90 435.39 2081.90 420.29
  Q 2081.89 405.19 2081.78 389.93
  A 0.52 0.51 89.7 0 0 2081.26 389.41
  L 1955.46 389.45
  A 0.59 0.58 90.0 0 1 1954.88 388.86
  L 1954.87 355.04
  A 0.39 0.39 0.0 0 1 1955.26 354.65
  L 2137.09 354.60
  A 0.65 0.65 0.0 0 0 2137.74 353.95
  L 2137.73 293.19
  Q 2137.73 292.79 2137.34 292.79
  L 1893.93 292.85
  A 0.64 0.64 0.0 0 0 1893.29 293.50
  Q 1893.29 322.15 1893.30 420.32"
/>
<path stroke="#b2d9df" vector-effect="non-scaling-stroke" d="
  M 2418.68 435.04
  Q 2418.25 435.25 2417.99 434.83
  Q 2417.73 434.41 2295.56 293.82
  A 2.83 2.81 -20.3 0 0 2293.43 292.85
  L 2235.41 292.85
  Q 2235.12 292.85 2235.12 293.14
  L 2235.12 546.96
  A 0.83 0.82 -0.0 0 0 2235.95 547.78
  L 2293.44 547.78
  A 0.45 0.45 0.0 0 0 2293.89 547.33
  Q 2293.93 490.77 2293.90 404.26
  Q 2293.90 403.58 2294.17 403.24
  A 0.41 0.40 -45.5 0 1 2294.79 403.23
  L 2418.23 546.60
  A 3.41 3.41 0.0 0 0 2420.81 547.78
  L 2478.98 547.78
  A 0.52 0.51 0.0 0 0 2479.50 547.27
  L 2479.50 294.89
  A 0.57 0.57 0.0 0 0 2478.93 294.32
  L 2419.30 294.32
  Q 2418.89 294.32 2418.89 294.72
  L 2418.89 434.69
  A 0.40 0.39 76.4 0 1 2418.68 435.04"
/>
<path stroke="#b2d9df" vector-effect="non-scaling-stroke" d="
  M 2762.78 435.05
  Q 2762.35 435.26 2762.09 434.84
  Q 2761.83 434.42 2639.65 293.81
  A 2.83 2.81 -20.3 0 0 2637.52 292.84
  L 2579.49 292.84
  Q 2579.20 292.84 2579.20 293.13
  L 2579.19 546.97
  A 0.83 0.82 0.0 0 0 2580.02 547.79
  L 2637.52 547.80
  A 0.45 0.45 0.0 0 0 2637.97 547.35
  Q 2638.01 490.78 2637.98 404.26
  Q 2637.98 403.58 2638.25 403.24
  A 0.41 0.40 -45.5 0 1 2638.87 403.23
  L 2762.32 546.62
  A 3.41 3.41 0.0 0 0 2764.90 547.80
  L 2823.08 547.81
  A 0.52 0.51 0.0 0 0 2823.60 547.30
  L 2823.61 294.89
  A 0.57 0.57 0.0 0 0 2823.04 294.32
  L 2763.40 294.32
  Q 2762.99 294.32 2762.99 294.72
  L 2762.99 434.70
  A 0.40 0.39 76.4 0 1 2762.78 435.05"
/>
<path stroke="#b2d9df" vector-effect="non-scaling-stroke" d="
  M 3165.66 547.80
  A 0.54 0.54 0.0 0 0 3166.20 547.26
  L 3166.20 486.51
  A 0.54 0.54 0.0 0 0 3165.66 485.97
  L 2984.88 485.97
  A 0.54 0.54 0.0 0 1 2984.34 485.43
  L 2984.34 451.67
  A 0.54 0.54 0.0 0 1 2984.88 451.13
  L 3110.56 451.13
  A 0.54 0.54 0.0 0 0 3111.10 450.59
  L 3111.10 389.94
  A 0.54 0.54 0.0 0 0 3110.56 389.40
  L 2984.47 389.40
  A 0.54 0.54 0.0 0 1 2983.93 388.86
  L 2983.93 355.17
  A 0.54 0.54 0.0 0 1 2984.47 354.63
  L 3165.67 354.63
  A 0.54 0.54 0.0 0 0 3166.21 354.09
  L 3166.21 293.38
  A 0.54 0.54 0.0 0 0 3165.67 292.84
  L 2923.09 292.84
  A 0.54 0.54 0.0 0 0 2922.55 293.38
  L 2922.55 547.26
  A 0.54 0.54 0.0 0 0 2923.09 547.80
  L 3165.66 547.80"
/>
<path stroke="#b2d9df" vector-effect="non-scaling-stroke" d="
  M 81.74 757.74
  Q 81.49 757.49 81.49 756.97
  Q 81.47 695.52 81.42 636.72
  Q 81.41 635.64 80.34 635.65
  L 76.55 635.65
  Q 75.51 635.65 75.51 636.69
  Q 75.63 701.95 75.55 763.42
  Q 75.55 763.62 75.73 763.80
  Q 75.89 763.96 76.08 763.95
  Q 137.56 763.80 202.82 763.84
  Q 203.86 763.84 203.86 762.80
  L 203.86 759.01
  Q 203.86 757.94 202.79 757.94
  Q 143.99 757.96 82.53 758.01
  Q 82.01 758.01 81.74 757.74"
/>
<path stroke="#b2d9df" vector-effect="non-scaling-stroke" d="
  M 3703.39 757.68
  Q 3703.12 757.95 3702.60 757.95
  Q 3641.16 757.95 3582.37 757.99
  Q 3581.30 757.99 3581.30 759.06
  L 3581.30 762.85
  Q 3581.30 763.89 3582.34 763.89
  Q 3647.59 763.79 3709.05 763.89
  Q 3709.25 763.89 3709.41 763.73
  Q 3709.59 763.55 3709.58 763.36
  Q 3709.45 701.89 3709.51 636.65
  Q 3709.51 635.60 3708.47 635.61
  L 3704.68 635.61
  Q 3703.61 635.61 3703.61 636.68
  Q 3703.61 695.46 3703.64 756.91
  Q 3703.64 757.43 3703.39 757.68"
/>
</g>
<path fill="#64b2be" d="
  M 3785.00 0.00
  L 3785.00 830.00
  L 0.00 830.00
  L 0.00 0.00
  L 3785.00 0.00
  Z
  M 81.71 72.25
  Q 81.98 71.98 82.50 71.98
  Q 143.96 72.00 202.76 71.98
  Q 203.83 71.98 203.83 70.91
  L 203.83 67.12
  Q 203.83 66.08 202.79 66.08
  Q 137.52 66.15 76.05 66.04
  Q 75.86 66.04 75.70 66.20
  Q 75.52 66.38 75.52 66.57
  Q 75.63 128.04 75.55 193.31
  Q 75.55 194.35 76.59 194.35
  L 80.39 194.35
  Q 81.46 194.35 81.46 193.28
  Q 81.47 134.48 81.46 73.02
  Q 81.46 72.50 81.71 72.25
  Z
  M 3703.40 72.26
  Q 3703.65 72.51 3703.65 73.03
  Q 3703.63 134.46 3703.64 193.24
  Q 3703.64 194.31 3704.71 194.31
  L 3708.50 194.31
  Q 3709.54 194.31 3709.54 193.27
  Q 3709.47 128.03 3709.59 66.58
  Q 3709.59 66.39 3709.41 66.21
  Q 3709.25 66.05 3709.06 66.05
  Q 3647.61 66.15 3582.37 66.07
  Q 3581.33 66.07 3581.33 67.11
  L 3581.33 70.90
  Q 3581.33 71.97 3582.40 71.97
  Q 3641.18 71.99 3702.61 71.99
  Q 3703.13 71.99 3703.40 72.26
  Z
  M 618.82 420.30
  Q 618.82 519.26 618.87 547.20
  A 0.58 0.58 0.0 0 0 619.45 547.78
  L 865.86 547.78
  A 0.37 0.37 0.0 0 0 866.23 547.41
  L 866.23 462.06
  A 0.22 0.22 0.0 0 0 866.01 461.84
  L 794.19 461.84
  A 0.33 0.33 0.0 0 0 793.86 462.17
  L 793.86 485.37
  A 0.61 0.61 0.0 0 1 793.25 485.98
  L 681.29 485.98
  A 0.48 0.47 -0.3 0 1 680.81 485.51
  C 680.57 470.13 680.57 453.07 680.57 420.31
  C 680.58 387.54 680.58 370.48 680.82 355.10
  A 0.48 0.47 0.3 0 1 681.29 354.63
  L 793.25 354.64
  A 0.61 0.61 0.0 0 1 793.86 355.25
  L 793.86 378.45
  A 0.33 0.33 0.0 0 0 794.19 378.78
  L 866.01 378.79
  A 0.22 0.22 0.0 0 0 866.23 378.57
  L 866.24 293.22
  A 0.37 0.37 0.0 0 0 865.87 292.85
  L 619.46 292.83
  A 0.58 0.58 0.0 0 0 618.88 293.41
  Q 618.83 321.35 618.82 420.30
  Z
  M 950.82 420.29
  Q 950.81 540.06 950.84 547.39
  A 0.39 0.38 89.7 0 0 951.22 547.77
  L 1012.05 547.77
  Q 1012.61 547.77 1012.61 547.21
  L 1012.61 451.59
  A 0.37 0.37 0.0 0 1 1012.97 451.22
  Q 1042.59 451.17 1072.27 451.17
  Q 1101.95 451.17 1131.56 451.23
  A 0.37 0.37 0.0 0 1 1131.92 451.59
  L 1131.92 547.21
  Q 1131.92 547.77 1132.48 547.77
  L 1193.31 547.78
  A 0.39 0.38 -89.7 0 0 1193.69 547.39
  Q 1193.71 540.07 1193.72 420.30
  Q 1193.72 300.53 1193.70 293.20
  A 0.39 0.38 89.7 0 0 1193.31 292.82
  L 1132.48 292.82
  Q 1131.92 292.82 1131.92 293.38
  L 1131.92 389.00
  A 0.37 0.37 0.0 0 1 1131.56 389.36
  Q 1101.95 389.42 1072.27 389.42
  Q 1042.59 389.42 1012.98 389.36
  A 0.37 0.37 0.0 0 1 1012.61 389.00
  L 1012.62 293.38
  Q 1012.62 292.82 1012.06 292.82
  L 951.23 292.81
  A 0.39 0.38 -89.7 0 0 950.84 293.19
  Q 950.82 300.52 950.82 420.29
  Z
  M 1344.78 389.39
  A 0.55 0.55 0.0 0 1 1344.23 388.84
  L 1344.23 355.18
  A 0.55 0.55 0.0 0 1 1344.78 354.63
  L 1526.72 354.63
  A 0.55 0.55 0.0 0 0 1527.27 354.08
  L 1527.27 293.39
  A 0.55 0.55 0.0 0 0 1526.72 292.84
  L 1283.41 292.84
  A 0.55 0.55 0.0 0 0 1282.86 293.39
  L 1282.86 547.25
  A 0.55 0.55 0.0 0 0 1283.41 547.80
  L 1526.72 547.80
  A 0.55 0.55 0.0 0 0 1527.27 547.25
  L 1527.27 486.52
  A 0.55 0.55 0.0 0 0 1526.72 485.97
  L 1345.17 485.97
  A 0.55 0.55 0.0 0 1 1344.62 485.42
  L 1344.62 451.68
  A 0.55 0.55 0.0 0 1 1345.17 451.13
  L 1470.85 451.13
  A 0.55 0.55 0.0 0 0 1471.40 450.58
  L 1471.40 389.94
  A 0.55 0.55 0.0 0 0 1470.85 389.39
  L 1344.78 389.39
  Z
  M 1709.11 396.86
  L 1647.10 293.90
  A 2.20 2.19 -15.5 0 0 1645.22 292.84
  L 1586.00 292.84
  A 0.67 0.67 0.0 0 0 1585.42 293.86
  Q 1631.74 371.63 1668.96 432.82
  Q 1675.94 444.31 1677.60 456.87
  Q 1679.00 467.59 1679.23 477.01
  Q 1680.01 509.31 1679.72 547.02
  Q 1679.71 547.81 1680.50 547.81
  L 1737.58 547.81
  A 1.01 1.01 0.0 0 0 1738.59 546.79
  Q 1738.31 512.24 1738.99 476.23
  Q 1739.46 450.84 1753.88 427.44
  Q 1788.42 371.38 1834.24 293.92
  A 0.67 0.67 0.0 0 0 1833.67 292.91
  L 1774.94 292.91
  A 1.61 1.60 18.2 0 0 1773.65 293.56
  Q 1765.48 304.49 1758.55 316.05
  Q 1726.39 369.70 1710.16 396.86
  A 0.61 0.61 0.0 0 1 1709.11 396.86
  Z
  M 1893.30 420.32
  Q 1893.32 518.49 1893.32 547.14
  A 0.64 0.64 0.0 0 0 1893.96 547.78
  L 2137.37 547.78
  Q 2137.76 547.78 2137.76 547.38
  L 2137.76 486.62
  A 0.65 0.65 0.0 0 0 2137.11 485.97
  L 1955.28 485.97
  A 0.39 0.39 0.0 0 1 1954.89 485.58
  L 1954.89 451.76
  A 0.59 0.58 -90.0 0 1 1955.47 451.17
  L 2081.27 451.17
  A 0.52 0.51 -89.7 0 0 2081.78 450.66
  Q 2081.90 435.39 2081.90 420.29
  Q 2081.89 405.19 2081.78 389.93
  A 0.52 0.51 89.7 0 0 2081.26 389.41
  L 1955.46 389.45
  A 0.59 0.58 90.0 0 1 1954.88 388.86
  L 1954.87 355.04
  A 0.39 0.39 0.0 0 1 1955.26 354.65
  L 2137.09 354.60
  A 0.65 0.65 0.0 0 0 2137.74 353.95
  L 2137.73 293.19
  Q 2137.73 292.79 2137.34 292.79
  L 1893.93 292.85
  A 0.64 0.64 0.0 0 0 1893.29 293.50
  Q 1893.29 322.15 1893.30 420.32
  Z
  M 2418.68 435.04
  Q 2418.25 435.25 2417.99 434.83
  Q 2417.73 434.41 2295.56 293.82
  A 2.83 2.81 -20.3 0 0 2293.43 292.85
  L 2235.41 292.85
  Q 2235.12 292.85 2235.12 293.14
  L 2235.12 546.96
  A 0.83 0.82 -0.0 0 0 2235.95 547.78
  L 2293.44 547.78
  A 0.45 0.45 0.0 0 0 2293.89 547.33
  Q 2293.93 490.77 2293.90 404.26
  Q 2293.90 403.58 2294.17 403.24
  A 0.41 0.40 -45.5 0 1 2294.79 403.23
  L 2418.23 546.60
  A 3.41 3.41 0.0 0 0 2420.81 547.78
  L 2478.98 547.78
  A 0.52 0.51 0.0 0 0 2479.50 547.27
  L 2479.50 294.89
  A 0.57 0.57 0.0 0 0 2478.93 294.32
  L 2419.30 294.32
  Q 2418.89 294.32 2418.89 294.72
  L 2418.89 434.69
  A 0.40 0.39 76.4 0 1 2418.68 435.04
  Z
  M 2762.78 435.05
  Q 2762.35 435.26 2762.09 434.84
  Q 2761.83 434.42 2639.65 293.81
  A 2.83 2.81 -20.3 0 0 2637.52 292.84
  L 2579.49 292.84
  Q 2579.20 292.84 2579.20 293.13
  L 2579.19 546.97
  A 0.83 0.82 0.0 0 0 2580.02 547.79
  L 2637.52 547.80
  A 0.45 0.45 0.0 0 0 2637.97 547.35
  Q 2638.01 490.78 2637.98 404.26
  Q 2637.98 403.58 2638.25 403.24
  A 0.41 0.40 -45.5 0 1 2638.87 403.23
  L 2762.32 546.62
  A 3.41 3.41 0.0 0 0 2764.90 547.80
  L 2823.08 547.81
  A 0.52 0.51 0.0 0 0 2823.60 547.30
  L 2823.61 294.89
  A 0.57 0.57 0.0 0 0 2823.04 294.32
  L 2763.40 294.32
  Q 2762.99 294.32 2762.99 294.72
  L 2762.99 434.70
  A 0.40 0.39 76.4 0 1 2762.78 435.05
  Z
  M 3165.66 547.80
  A 0.54 0.54 0.0 0 0 3166.20 547.26
  L 3166.20 486.51
  A 0.54 0.54 0.0 0 0 3165.66 485.97
  L 2984.88 485.97
  A 0.54 0.54 0.0 0 1 2984.34 485.43
  L 2984.34 451.67
  A 0.54 0.54 0.0 0 1 2984.88 451.13
  L 3110.56 451.13
  A 0.54 0.54 0.0 0 0 3111.10 450.59
  L 3111.10 389.94
  A 0.54 0.54 0.0 0 0 3110.56 389.40
  L 2984.47 389.40
  A 0.54 0.54 0.0 0 1 2983.93 388.86
  L 2983.93 355.17
  A 0.54 0.54 0.0 0 1 2984.47 354.63
  L 3165.67 354.63
  A 0.54 0.54 0.0 0 0 3166.21 354.09
  L 3166.21 293.38
  A 0.54 0.54 0.0 0 0 3165.67 292.84
  L 2923.09 292.84
  A 0.54 0.54 0.0 0 0 2922.55 293.38
  L 2922.55 547.26
  A 0.54 0.54 0.0 0 0 2923.09 547.80
  L 3165.66 547.80
  Z
  M 81.74 757.74
  Q 81.49 757.49 81.49 756.97
  Q 81.47 695.52 81.42 636.72
  Q 81.41 635.64 80.34 635.65
  L 76.55 635.65
  Q 75.51 635.65 75.51 636.69
  Q 75.63 701.95 75.55 763.42
  Q 75.55 763.62 75.73 763.80
  Q 75.89 763.96 76.08 763.95
  Q 137.56 763.80 202.82 763.84
  Q 203.86 763.84 203.86 762.80
  L 203.86 759.01
  Q 203.86 757.94 202.79 757.94
  Q 143.99 757.96 82.53 758.01
  Q 82.01 758.01 81.74 757.74
  Z
  M 3703.39 757.68
  Q 3703.12 757.95 3702.60 757.95
  Q 3641.16 757.95 3582.37 757.99
  Q 3581.30 757.99 3581.30 759.06
  L 3581.30 762.85
  Q 3581.30 763.89 3582.34 763.89
  Q 3647.59 763.79 3709.05 763.89
  Q 3709.25 763.89 3709.41 763.73
  Q 3709.59 763.55 3709.58 763.36
  Q 3709.45 701.89 3709.51 636.65
  Q 3709.51 635.60 3708.47 635.61
  L 3704.68 635.61
  Q 3703.61 635.61 3703.61 636.68
  Q 3703.61 695.46 3703.64 756.91
  Q 3703.64 757.43 3703.39 757.68
  Z"
/>
<path fill="#ffffff" d="
  M 81.71 72.25
  Q 81.46 72.50 81.46 73.02
  Q 81.47 134.48 81.46 193.28
  Q 81.46 194.35 80.39 194.35
  L 76.59 194.35
  Q 75.55 194.35 75.55 193.31
  Q 75.63 128.04 75.52 66.57
  Q 75.52 66.38 75.70 66.20
  Q 75.86 66.04 76.05 66.04
  Q 137.52 66.15 202.79 66.08
  Q 203.83 66.08 203.83 67.12
  L 203.83 70.91
  Q 203.83 71.98 202.76 71.98
  Q 143.96 72.00 82.50 71.98
  Q 81.98 71.98 81.71 72.25
  Z"
/>
<path fill="#ffffff" d="
  M 3709.41 66.21
  Q 3709.59 66.39 3709.59 66.58
  Q 3709.47 128.03 3709.54 193.27
  Q 3709.54 194.31 3708.50 194.31
  L 3704.71 194.31
  Q 3703.64 194.31 3703.64 193.24
  Q 3703.63 134.46 3703.65 73.03
  Q 3703.65 72.51 3703.40 72.26
  Q 3703.13 71.99 3702.61 71.99
  Q 3641.18 71.99 3582.40 71.97
  Q 3581.33 71.97 3581.33 70.90
  L 3581.33 67.11
  Q 3581.33 66.07 3582.37 66.07
  Q 3647.61 66.15 3709.06 66.05
  Q 3709.25 66.05 3709.41 66.21
  Z"
/>
<path fill="#ffffff" d="
  M 680.57 420.31
  C 680.57 453.07 680.57 470.13 680.81 485.51
  A 0.48 0.47 -0.3 0 0 681.29 485.98
  L 793.25 485.98
  A 0.61 0.61 0.0 0 0 793.86 485.37
  L 793.86 462.17
  A 0.33 0.33 0.0 0 1 794.19 461.84
  L 866.01 461.84
  A 0.22 0.22 0.0 0 1 866.23 462.06
  L 866.23 547.41
  A 0.37 0.37 0.0 0 1 865.86 547.78
  L 619.45 547.78
  A 0.58 0.58 0.0 0 1 618.87 547.20
  Q 618.82 519.26 618.82 420.30
  Q 618.83 321.35 618.88 293.41
  A 0.58 0.58 0.0 0 1 619.46 292.83
  L 865.87 292.85
  A 0.37 0.37 0.0 0 1 866.24 293.22
  L 866.23 378.57
  A 0.22 0.22 0.0 0 1 866.01 378.79
  L 794.19 378.78
  A 0.33 0.33 0.0 0 1 793.86 378.45
  L 793.86 355.25
  A 0.61 0.61 0.0 0 0 793.25 354.64
  L 681.29 354.63
  A 0.48 0.47 0.3 0 0 680.82 355.10
  C 680.58 370.48 680.58 387.54 680.57 420.31
  Z"
/>
<path fill="#ffffff" d="
  M 1072.27 389.42
  Q 1101.95 389.42 1131.56 389.36
  A 0.37 0.37 0.0 0 0 1131.92 389.00
  L 1131.92 293.38
  Q 1131.92 292.82 1132.48 292.82
  L 1193.31 292.82
  A 0.39 0.38 89.7 0 1 1193.70 293.20
  Q 1193.72 300.53 1193.72 420.30
  Q 1193.71 540.07 1193.69 547.39
  A 0.39 0.38 -89.7 0 1 1193.31 547.78
  L 1132.48 547.77
  Q 1131.92 547.77 1131.92 547.21
  L 1131.92 451.59
  A 0.37 0.37 0.0 0 0 1131.56 451.23
  Q 1101.95 451.17 1072.27 451.17
  Q 1042.59 451.17 1012.97 451.22
  A 0.37 0.37 0.0 0 0 1012.61 451.59
  L 1012.61 547.21
  Q 1012.61 547.77 1012.05 547.77
  L 951.22 547.77
  A 0.39 0.38 89.7 0 1 950.84 547.39
  Q 950.81 540.06 950.82 420.29
  Q 950.82 300.52 950.84 293.19
  A 0.39 0.38 -89.7 0 1 951.23 292.81
  L 1012.06 292.82
  Q 1012.62 292.82 1012.62 293.38
  L 1012.61 389.00
  A 0.37 0.37 0.0 0 0 1012.98 389.36
  Q 1042.59 389.42 1072.27 389.42
  Z"
/>
<path fill="#ffffff" d="
  M 1344.78 389.39
  L 1470.85 389.39
  A 0.55 0.55 0.0 0 1 1471.40 389.94
  L 1471.40 450.58
  A 0.55 0.55 0.0 0 1 1470.85 451.13
  L 1345.17 451.13
  A 0.55 0.55 0.0 0 0 1344.62 451.68
  L 1344.62 485.42
  A 0.55 0.55 0.0 0 0 1345.17 485.97
  L 1526.72 485.97
  A 0.55 0.55 0.0 0 1 1527.27 486.52
  L 1527.27 547.25
  A 0.55 0.55 0.0 0 1 1526.72 547.80
  L 1283.41 547.80
  A 0.55 0.55 0.0 0 1 1282.86 547.25
  L 1282.86 293.39
  A 0.55 0.55 0.0 0 1 1283.41 292.84
  L 1526.72 292.84
  A 0.55 0.55 0.0 0 1 1527.27 293.39
  L 1527.27 354.08
  A 0.55 0.55 0.0 0 1 1526.72 354.63
  L 1344.78 354.63
  A 0.55 0.55 0.0 0 0 1344.23 355.18
  L 1344.23 388.84
  A 0.55 0.55 0.0 0 0 1344.78 389.39
  Z"
/>
<path fill="#ffffff" d="
  M 1709.11 396.86
  A 0.61 0.61 0.0 0 0 1710.16 396.86
  Q 1726.39 369.70 1758.55 316.05
  Q 1765.48 304.49 1773.65 293.56
  A 1.61 1.60 18.2 0 1 1774.94 292.91
  L 1833.67 292.91
  A 0.67 0.67 0.0 0 1 1834.24 293.92
  Q 1788.42 371.38 1753.88 427.44
  Q 1739.46 450.84 1738.99 476.23
  Q 1738.31 512.24 1738.59 546.79
  A 1.01 1.01 0.0 0 1 1737.58 547.81
  L 1680.50 547.81
  Q 1679.71 547.81 1679.72 547.02
  Q 1680.01 509.31 1679.23 477.01
  Q 1679.00 467.59 1677.60 456.87
  Q 1675.94 444.31 1668.96 432.82
  Q 1631.74 371.63 1585.42 293.86
  A 0.67 0.67 0.0 0 1 1586.00 292.84
  L 1645.22 292.84
  A 2.20 2.19 -15.5 0 1 1647.10 293.90
  L 1709.11 396.86
  Z"
/>
<path fill="#ffffff" d="
  M 2081.90 420.29
  Q 2081.90 435.39 2081.78 450.66
  A 0.52 0.51 -89.7 0 1 2081.27 451.17
  L 1955.47 451.17
  A 0.59 0.58 90.0 0 0 1954.89 451.76
  L 1954.89 485.58
  A 0.39 0.39 0.0 0 0 1955.28 485.97
  L 2137.11 485.97
  A 0.65 0.65 0.0 0 1 2137.76 486.62
  L 2137.76 547.38
  Q 2137.76 547.78 2137.37 547.78
  L 1893.96 547.78
  A 0.64 0.64 0.0 0 1 1893.32 547.14
  Q 1893.32 518.49 1893.30 420.32
  Q 1893.29 322.15 1893.29 293.50
  A 0.64 0.64 0.0 0 1 1893.93 292.85
  L 2137.34 292.79
  Q 2137.73 292.79 2137.73 293.19
  L 2137.74 353.95
  A 0.65 0.65 0.0 0 1 2137.09 354.60
  L 1955.26 354.65
  A 0.39 0.39 0.0 0 0 1954.87 355.04
  L 1954.88 388.86
  A 0.59 0.58 90.0 0 0 1955.46 389.45
  L 2081.26 389.41
  A 0.52 0.51 89.7 0 1 2081.78 389.93
  Q 2081.89 405.19 2081.90 420.29
  Z"
/>
<path fill="#ffffff" d="
  M 2418.68 435.04
  A 0.40 0.39 76.4 0 0 2418.89 434.69
  L 2418.89 294.72
  Q 2418.89 294.32 2419.30 294.32
  L 2478.93 294.32
  A 0.57 0.57 0.0 0 1 2479.50 294.89
  L 2479.50 547.27
  A 0.52 0.51 0.0 0 1 2478.98 547.78
  L 2420.81 547.78
  A 3.41 3.41 0.0 0 1 2418.23 546.60
  L 2294.79 403.23
  A 0.41 0.40 -45.5 0 0 2294.17 403.24
  Q 2293.90 403.58 2293.90 404.26
  Q 2293.93 490.77 2293.89 547.33
  A 0.45 0.45 0.0 0 1 2293.44 547.78
  L 2235.95 547.78
  A 0.83 0.82 -0.0 0 1 2235.12 546.96
  L 2235.12 293.14
  Q 2235.12 292.85 2235.41 292.85
  L 2293.43 292.85
  A 2.83 2.81 -20.3 0 1 2295.56 293.82
  Q 2417.73 434.41 2417.99 434.83
  Q 2418.25 435.25 2418.68 435.04
  Z"
/>
<path fill="#ffffff" d="
  M 2762.78 435.05
  A 0.40 0.39 76.4 0 0 2762.99 434.70
  L 2762.99 294.72
  Q 2762.99 294.32 2763.40 294.32
  L 2823.04 294.32
  A 0.57 0.57 0.0 0 1 2823.61 294.89
  L 2823.60 547.30
  A 0.52 0.51 0.0 0 1 2823.08 547.81
  L 2764.90 547.80
  A 3.41 3.41 0.0 0 1 2762.32 546.62
  L 2638.87 403.23
  A 0.41 0.40 -45.5 0 0 2638.25 403.24
  Q 2637.98 403.58 2637.98 404.26
  Q 2638.01 490.78 2637.97 547.35
  A 0.45 0.45 0.0 0 1 2637.52 547.80
  L 2580.02 547.79
  A 0.83 0.82 0.0 0 1 2579.19 546.97
  L 2579.20 293.13
  Q 2579.20 292.84 2579.49 292.84
  L 2637.52 292.84
  A 2.83 2.81 -20.3 0 1 2639.65 293.81
  Q 2761.83 434.42 2762.09 434.84
  Q 2762.35 435.26 2762.78 435.05
  Z"
/>
<path fill="#ffffff" d="
  M 3165.66 547.80
  L 2923.09 547.80
  A 0.54 0.54 0.0 0 1 2922.55 547.26
  L 2922.55 293.38
  A 0.54 0.54 0.0 0 1 2923.09 292.84
  L 3165.67 292.84
  A 0.54 0.54 0.0 0 1 3166.21 293.38
  L 3166.21 354.09
  A 0.54 0.54 0.0 0 1 3165.67 354.63
  L 2984.47 354.63
  A 0.54 0.54 0.0 0 0 2983.93 355.17
  L 2983.93 388.86
  A 0.54 0.54 0.0 0 0 2984.47 389.40
  L 3110.56 389.40
  A 0.54 0.54 0.0 0 1 3111.10 389.94
  L 3111.10 450.59
  A 0.54 0.54 0.0 0 1 3110.56 451.13
  L 2984.88 451.13
  A 0.54 0.54 0.0 0 0 2984.34 451.67
  L 2984.34 485.43
  A 0.54 0.54 0.0 0 0 2984.88 485.97
  L 3165.66 485.97
  A 0.54 0.54 0.0 0 1 3166.20 486.51
  L 3166.20 547.26
  A 0.54 0.54 0.0 0 1 3165.66 547.80
  Z"
/>
<path fill="#ffffff" d="
  M 81.74 757.74
  Q 82.01 758.01 82.53 758.01
  Q 143.99 757.96 202.79 757.94
  Q 203.86 757.94 203.86 759.01
  L 203.86 762.80
  Q 203.86 763.84 202.82 763.84
  Q 137.56 763.80 76.08 763.95
  Q 75.89 763.96 75.73 763.80
  Q 75.55 763.62 75.55 763.42
  Q 75.63 701.95 75.51 636.69
  Q 75.51 635.65 76.55 635.65
  L 80.34 635.65
  Q 81.41 635.64 81.42 636.72
  Q 81.47 695.52 81.49 756.97
  Q 81.49 757.49 81.74 757.74
  Z"
/>
<path fill="#ffffff" d="
  M 3703.39 757.68
  Q 3703.64 757.43 3703.64 756.91
  Q 3703.61 695.46 3703.61 636.68
  Q 3703.61 635.61 3704.68 635.61
  L 3708.47 635.61
  Q 3709.51 635.60 3709.51 636.65
  Q 3709.45 701.89 3709.58 763.36
  Q 3709.59 763.55 3709.41 763.73
  Q 3709.25 763.89 3709.05 763.89
  Q 3647.59 763.79 3582.34 763.89
  Q 3581.30 763.89 3581.30 762.85
  L 3581.30 759.06
  Q 3581.30 757.99 3582.37 757.99
  Q 3641.16 757.95 3702.60 757.95
  Q 3703.12 757.95 3703.39 757.68
  Z"
/>
</svg>
