<?xml version="1.0" encoding="UTF-8" standalone="no"?>
<!DOCTYPE svg PUBLIC "-//W3C//DTD SVG 1.1//EN" "http://www.w3.org/Graphics/SVG/1.1/DTD/svg11.dtd">
<svg xmlns="http://www.w3.org/2000/svg" version="1.1" viewBox="0.00 0.00 100.00 90.00">
<path fill="#07080a" d="
  M 98.60 15.42
  C 98.60 17.20 97.93 18.08 95.98 17.94
  Q 95.58 17.91 90.62 18.09
  Q 90.11 18.11 90.01 18.61
  Q 89.35 22.02 87.04 23.80
  Q 79.35 29.75 71.99 24.14
  C 70.17 22.75 69.14 20.59 68.39 18.58
  Q 68.18 18.02 67.58 18.02
  L 4.51 18.06
  A 2.72 2.68 76.2 0 1 2.09 16.57
  Q 2.03 16.46 2.03 15.49
  Q 2.03 14.53 2.09 14.42
  A 2.72 2.68 -76.3 0 1 4.51 12.93
  L 67.58 12.86
  Q 68.18 12.86 68.38 12.30
  C 69.13 10.29 70.16 8.13 71.98 6.74
  Q 79.33 1.11 87.03 7.05
  Q 89.34 8.83 90.00 12.24
  Q 90.11 12.74 90.62 12.76
  Q 95.58 12.93 95.98 12.90
  C 97.93 12.75 98.60 13.63 98.60 15.42
  Z
  M 85.65 15.44
  A 6.36 6.36 0.0 0 0 79.29 9.08
  A 6.36 6.36 0.0 0 0 72.93 15.44
  A 6.36 6.36 0.0 0 0 79.29 21.80
  A 6.36 6.36 0.0 0 0 85.65 15.44
  Z"
/>
<path fill="#07080a" d="
  M 98.61 44.83
  Q 98.61 45.99 98.20 46.68
  Q 97.91 47.16 97.35 47.16
  L 34.36 47.16
  A 0.67 0.67 0.0 0 0 33.73 47.60
  C 30.43 56.91 20.16 59.51 13.70 51.78
  C 12.83 50.75 12.17 48.57 11.06 47.42
  Q 10.75 47.10 10.31 47.10
  L 3.46 47.10
  A 0.52 0.52 0.0 0 1 3.23 47.05
  Q 2.02 46.49 2.02 44.78
  Q 2.02 43.07 3.23 42.51
  A 0.52 0.52 0.0 0 1 3.46 42.46
  L 10.31 42.47
  Q 10.75 42.47 11.06 42.15
  C 12.17 41.00 12.84 38.82 13.71 37.79
  C 20.18 30.07 30.44 32.68 33.73 42.00
  A 0.67 0.67 0.0 0 0 34.36 42.44
  L 97.35 42.51
  Q 97.91 42.51 98.20 42.99
  Q 98.61 43.68 98.61 44.83
  Z
  M 29.05 44.83
  A 6.34 6.34 0.0 0 0 22.71 38.49
  A 6.34 6.34 0.0 0 0 16.37 44.83
  A 6.34 6.34 0.0 0 0 22.71 51.17
  A 6.34 6.34 0.0 0 0 29.05 44.83
  Z"
/>
<path fill="#07080a" d="
  M 98.60 74.19
  Q 98.60 75.50 98.24 76.16
  Q 97.94 76.70 97.32 76.70
  L 70.68 76.70
  Q 70.09 76.70 69.91 77.26
  C 68.29 82.34 64.21 85.58 58.72 85.49
  Q 50.73 85.35 47.89 77.14
  A 0.61 0.60 80.5 0 0 47.32 76.73
  L 4.37 76.70
  A 2.60 2.50 75.5 0 1 2.13 75.32
  Q 2.05 75.17 2.05 74.20
  Q 2.05 73.23 2.13 73.09
  A 2.60 2.50 -75.6 0 1 4.37 71.71
  L 47.32 71.67
  A 0.61 0.60 -80.5 0 0 47.89 71.26
  Q 50.73 63.04 58.72 62.90
  C 64.21 62.81 68.29 66.05 69.91 71.13
  Q 70.09 71.69 70.68 71.69
  L 97.32 71.68
  Q 97.94 71.68 98.24 72.23
  Q 98.60 72.89 98.60 74.19
  Z
  M 65.18 74.22
  A 6.34 6.34 0.0 0 0 58.84 67.88
  A 6.34 6.34 0.0 0 0 52.50 74.22
  A 6.34 6.34 0.0 0 0 58.84 80.56
  A 6.34 6.34 0.0 0 0 65.18 74.22
  Z"
/>
</svg>
