<?xml version="1.0" encoding="UTF-8" standalone="no"?>
<!DOCTYPE svg PUBLIC "-//W3C//DTD SVG 1.1//EN" "http://www.w3.org/Graphics/SVG/1.1/DTD/svg11.dtd">
<svg xmlns="http://www.w3.org/2000/svg" version="1.1" viewBox="0.00 0.00 100.00 100.00">
<path fill="#000000" d="
  M 43.92 24.52
  A 19.37 19.37 0.0 0 1 24.55 43.89
  A 19.37 19.37 0.0 0 1 5.18 24.52
  A 19.37 19.37 0.0 0 1 24.55 5.15
  A 19.37 19.37 0.0 0 1 43.92 24.52
  Z
  M 39.52 24.52
  A 14.95 14.95 0.0 0 0 24.57 9.57
  A 14.95 14.95 0.0 0 0 9.62 24.52
  A 14.95 14.95 0.0 0 0 24.57 39.47
  A 14.95 14.95 0.0 0 0 39.52 24.52
  Z"
/>
<path fill="#000000" d="
  M 94.84 24.53
  A 19.36 19.36 0.0 0 1 75.48 43.89
  A 19.36 19.36 0.0 0 1 56.12 24.53
  A 19.36 19.36 0.0 0 1 75.48 5.17
  A 19.36 19.36 0.0 0 1 94.84 24.53
  Z
  M 90.43 24.52
  A 14.95 14.95 0.0 0 0 75.48 9.57
  A 14.95 14.95 0.0 0 0 60.53 24.52
  A 14.95 14.95 0.0 0 0 75.48 39.47
  A 14.95 14.95 0.0 0 0 90.43 24.52
  Z"
/>
<path fill="#000000" d="
  M 43.92 75.48
  A 19.37 19.37 0.0 0 1 24.55 94.85
  A 19.37 19.37 0.0 0 1 5.18 75.48
  A 19.37 19.37 0.0 0 1 24.55 56.11
  A 19.37 19.37 0.0 0 1 43.92 75.48
  Z
  M 39.52 75.48
  A 14.95 14.95 0.0 0 0 24.57 60.53
  A 14.95 14.95 0.0 0 0 9.62 75.48
  A 14.95 14.95 0.0 0 0 24.57 90.43
  A 14.95 14.95 0.0 0 0 39.52 75.48
  Z"
/>
<path fill="#000000" d="
  M 94.84 75.47
  A 19.36 19.36 0.0 0 1 75.48 94.83
  A 19.36 19.36 0.0 0 1 56.12 75.47
  A 19.36 19.36 0.0 0 1 75.48 56.11
  A 19.36 19.36 0.0 0 1 94.84 75.47
  Z
  M 90.43 75.48
  A 14.95 14.95 0.0 0 0 75.48 60.53
  A 14.95 14.95 0.0 0 0 60.53 75.48
  A 14.95 14.95 0.0 0 0 75.48 90.43
  A 14.95 14.95 0.0 0 0 90.43 75.48
  Z"
/>
</svg>
