<?xml version="1.0" encoding="UTF-8" standalone="no"?>
<!DOCTYPE svg PUBLIC "-//W3C//DTD SVG 1.1//EN" "http://www.w3.org/Graphics/SVG/1.1/DTD/svg11.dtd">
<svg xmlns="http://www.w3.org/2000/svg" version="1.1" viewBox="0.00 0.00 100.00 100.00">
<path fill="#000000" d="
  M 42.1671 80.8208
  A 12.36 12.36 0.0 0 1 29.7426 93.1160
  L 23.4226 93.0829
  A 12.36 12.36 0.0 0 1 11.1275 80.6583
  L 11.4529 18.5192
  A 12.36 12.36 0.0 0 1 23.8774 6.2240
  L 30.1974 6.2571
  A 12.36 12.36 0.0 0 1 42.4925 18.6817
  L 42.1671 80.8208
  Z
  M 37.7850 18.0788
  A 8.40 8.40 0.0 0 0 29.3997 9.6642
  L 24.6797 9.6559
  A 8.40 8.40 0.0 0 0 16.2650 18.0413
  L 16.1550 81.0812
  A 8.40 8.40 0.0 0 0 24.5403 89.4958
  L 29.2603 89.5041
  A 8.40 8.40 0.0 0 0 37.6750 81.1187
  L 37.7850 18.0788
  Z"
/>
<path fill="#000000" d="
  M 88.6015 80.8056
  A 12.51 12.51 0.0 0 1 76.0479 93.2718
  L 69.1279 93.2477
  A 12.51 12.51 0.0 0 1 56.6617 80.6941
  L 56.8785 18.5744
  A 12.51 12.51 0.0 0 1 69.4321 6.1082
  L 76.3521 6.1323
  A 12.51 12.51 0.0 0 1 88.8183 18.6859
  L 88.6015 80.8056
  Z
  M 83.2854 17.8380
  A 7.96 7.96 0.0 0 0 75.3393 9.8641
  L 70.7193 9.8560
  A 7.96 7.96 0.0 0 0 62.7454 17.8021
  L 62.6346 81.3220
  A 7.96 7.96 0.0 0 0 70.5807 89.2959
  L 75.2007 89.3040
  A 7.96 7.96 0.0 0 0 83.1746 81.3579
  L 83.2854 17.8380
  Z"
/>
</svg>
