<?xml version="1.0" encoding="UTF-8" standalone="no"?>
<!DOCTYPE svg PUBLIC "-//W3C//DTD SVG 1.1//EN" "http://www.w3.org/Graphics/SVG/1.1/DTD/svg11.dtd">
<svg xmlns="http://www.w3.org/2000/svg" version="1.1" viewBox="0.00 0.00 264.00 264.00">
<path fill="#919191" d="
  M 264.00 0.00
  L 264.00 264.00
  L 0.00 264.00
  L 0.00 0.00
  L 264.00 0.00
  Z
  M 122.00 20.70
  A 0.70 0.70 0.0 0 0 121.30 20.00
  L 20.70 20.00
  A 0.70 0.70 0.0 0 0 20.00 20.70
  L 20.00 243.30
  A 0.70 0.70 0.0 0 0 20.70 244.00
  L 121.30 244.00
  A 0.70 0.70 0.0 0 0 122.00 243.30
  L 122.00 20.70
  Z
  M 244.00 20.83
  A 0.84 0.84 0.0 0 0 243.16 19.99
  L 142.84 19.99
  A 0.84 0.84 0.0 0 0 142.00 20.83
  L 142.00 243.15
  A 0.84 0.84 0.0 0 0 142.84 243.99
  L 243.16 243.99
  A 0.84 0.84 0.0 0 0 244.00 243.15
  L 244.00 20.83
  Z"
/>
</svg>
