<?xml version="1.0" encoding="UTF-8" standalone="no"?>
<!DOCTYPE svg PUBLIC "-//W3C//DTD SVG 1.1//EN" "http://www.w3.org/Graphics/SVG/1.1/DTD/svg11.dtd">
<svg xmlns="http://www.w3.org/2000/svg" version="1.1" viewBox="0.00 0.00 1651.00 1650.00">
<path fill="#000000" d="
  M 723.75 381.88
  C 724.05 382.52 724.42 383.49 724.46 384.32
  Q 725.42 404.04 724.53 423.75
  Q 724.45 425.38 724.08 426.53
  A 0.89 0.01 -71.8 0 0 723.82 427.35
  Q 724.01 432.05 723.53 439.37
  C 723.37 441.71 722.51 443.45 722.63 445.67
  Q 722.67 446.46 721.97 449.76
  C 721.51 451.89 721.64 454.05 720.86 456.03
  Q 720.67 456.50 720.73 457.00
  Q 720.94 458.83 720.01 462.03
  Q 719.81 462.71 718.61 469.42
  C 717.89 473.48 716.02 478.40 715.70 481.83
  Q 715.37 485.23 713.98 488.82
  Q 713.87 489.11 712.08 495.85
  C 711.31 498.77 708.73 505.21 707.29 510.59
  C 706.66 512.96 705.32 514.92 704.72 517.22
  Q 704.27 518.97 704.04 519.53
  Q 701.01 526.68 698.16 533.60
  C 696.29 538.13 693.34 543.38 691.56 547.66
  Q 691.28 548.33 690.14 550.12
  C 689.43 551.22 689.19 552.54 688.54 553.62
  Q 685.77 558.18 683.22 563.36
  C 682.74 564.34 681.87 565.13 681.32 566.10
  Q 673.83 579.22 670.88 583.13
  Q 669.71 584.68 663.25 593.53
  Q 655.18 604.59 651.63 608.65
  C 647.58 613.29 643.86 617.91 641.03 620.53
  C 640.30 621.21 639.98 622.12 639.30 622.81
  Q 630.75 631.54 622.41 639.66
  C 621.85 640.21 621.01 640.39 620.36 641.05
  Q 617.04 644.44 612.97 647.98
  Q 612.68 648.23 611.89 648.52
  Q 611.42 648.69 611.09 649.07
  Q 608.56 652.03 606.33 653.32
  C 604.65 654.29 603.22 656.31 601.82 656.95
  C 600.30 657.64 599.30 659.14 597.78 660.12
  Q 596.45 660.97 596.05 661.28
  Q 587.78 667.66 577.67 673.90
  Q 576.59 674.56 575.67 675.41
  C 574.28 676.69 572.42 677.15 570.93 678.27
  Q 569.61 679.26 568.37 679.95
  Q 558.87 685.17 549.79 690.06
  Q 549.19 690.39 545.17 692.27
  Q 543.31 693.14 540.62 694.60
  Q 539.78 695.05 534.29 697.32
  Q 531.24 698.59 527.95 699.96
  Q 517.77 704.21 512.61 705.96
  Q 510.42 706.70 509.74 706.86
  Q 507.73 707.31 503.31 708.98
  Q 500.24 710.14 498.52 710.56
  C 496.43 711.08 494.29 712.08 492.02 712.51
  Q 487.94 713.28 481.82 715.36
  C 480.68 715.75 478.88 715.55 477.41 715.97
  Q 472.67 717.34 458.34 719.90
  Q 453.99 720.67 453.66 720.72
  Q 449.26 721.32 448.97 721.37
  C 446.97 721.74 444.63 721.54 442.41 722.13
  Q 439.89 722.80 435.78 722.72
  C 433.98 722.68 432.73 723.50 431.05 723.56
  Q 408.75 724.36 381.00 723.60
  C 378.76 723.54 376.89 722.63 374.99 722.70
  Q 371.45 722.82 368.58 722.10
  Q 366.85 721.66 365.39 721.65
  Q 362.99 721.64 362.18 721.32
  Q 361.29 720.97 360.03 720.91
  Q 358.03 720.83 357.99 720.82
  Q 357.30 720.69 355.53 720.34
  Q 353.26 719.89 346.25 718.78
  C 341.66 718.05 336.47 716.39 332.72 715.81
  C 326.89 714.90 323.30 713.57 316.79 711.81
  Q 311.57 710.39 305.42 708.08
  C 303.99 707.55 302.49 707.48 301.18 706.95
  Q 299.03 706.08 291.78 703.48
  Q 280.24 699.33 267.02 692.71
  C 266.05 692.22 264.28 691.88 263.62 691.38
  Q 262.29 690.38 260.67 689.62
  C 257.96 688.36 255.46 686.91 251.82 684.96
  Q 240.74 679.03 225.80 669.06
  Q 219.09 664.59 205.41 654.02
  Q 203.03 652.18 201.47 650.63
  C 200.73 649.89 200.17 649.67 199.39 649.15
  Q 198.97 648.87 198.79 648.39
  Q 198.52 647.71 197.83 647.31
  C 194.81 645.56 192.97 642.92 190.35 641.01
  Q 189.07 640.08 188.07 638.80
  C 186.99 637.43 185.69 636.78 184.19 635.31
  Q 180.35 631.57 176.16 627.36
  Q 173.50 624.68 172.15 622.98
  Q 170.60 621.04 167.98 618.37
  Q 165.92 616.28 163.52 613.24
  Q 161.12 610.20 159.04 608.14
  Q 157.12 606.25 156.50 605.01
  C 155.66 603.36 154.05 602.40 152.97 600.71
  Q 150.67 597.14 146.42 591.75
  C 144.22 588.96 142.70 585.94 140.44 583.43
  C 139.61 582.51 139.21 581.07 138.58 580.17
  Q 133.39 572.74 128.89 564.88
  Q 117.28 544.58 108.78 523.76
  Q 105.73 516.29 100.04 499.25
  Q 99.43 497.43 99.07 495.42
  C 98.78 493.83 97.76 491.92 97.54 490.37
  C 96.91 485.96 94.93 481.49 94.30 477.27
  Q 94.15 476.26 93.27 472.93
  Q 92.73 470.89 92.37 468.58
  Q 91.55 463.33 89.90 455.59
  Q 89.25 452.52 89.28 450.04
  Q 89.30 447.55 88.63 445.16
  Q 88.40 444.32 88.33 441.73
  Q 88.29 440.17 87.92 438.36
  Q 86.98 433.69 87.20 428.89
  C 87.25 427.88 86.61 427.13 86.57 426.38
  Q 85.43 405.03 86.53 383.68
  Q 86.55 383.35 86.99 381.30
  Q 87.24 380.14 87.18 378.85
  Q 87.04 375.73 87.77 371.59
  Q 88.43 367.81 88.43 366.47
  Q 88.43 364.43 88.87 362.98
  C 89.75 360.09 89.04 356.25 89.88 353.69
  C 90.46 351.95 90.49 350.16 91.06 348.05
  Q 91.37 346.93 92.55 339.72
  C 93.02 336.89 94.03 333.98 94.47 331.52
  Q 95.10 327.98 97.11 321.63
  C 97.45 320.58 97.39 319.48 97.66 318.48
  Q 100.83 307.02 103.93 298.84
  Q 104.12 298.34 104.90 295.59
  C 105.30 294.17 106.15 292.57 106.60 291.39
  Q 112.25 276.52 119.78 261.34
  Q 126.88 247.02 134.64 235.16
  C 135.77 233.42 136.60 231.43 137.76 230.18
  Q 138.48 229.40 139.71 227.20
  Q 140.48 225.82 141.69 224.38
  Q 142.77 223.10 143.75 221.63
  Q 154.02 206.31 163.13 196.62
  Q 163.74 195.97 164.55 194.88
  Q 165.67 193.35 165.69 193.34
  Q 178.35 179.36 190.12 168.61
  Q 208.76 151.57 228.10 138.85
  Q 232.59 135.90 233.30 135.40
  Q 236.38 133.26 238.56 132.02
  Q 245.32 128.20 247.41 126.88
  Q 251.68 124.18 256.57 121.77
  Q 259.66 120.24 265.91 117.01
  Q 266.33 116.80 269.47 115.54
  C 271.19 114.85 272.38 113.70 274.08 113.14
  Q 274.63 112.96 278.86 111.10
  Q 287.57 107.26 295.51 104.51
  Q 301.25 102.53 306.85 100.44
  C 309.22 99.56 311.60 99.29 313.97 98.36
  Q 315.41 97.79 316.82 97.53
  Q 321.59 96.65 326.37 94.87
  C 327.54 94.44 329.21 94.56 330.21 94.20
  Q 333.94 92.84 338.90 91.97
  Q 339.39 91.88 348.85 90.08
  Q 353.53 89.19 354.23 89.24
  Q 356.24 89.39 358.19 88.72
  C 359.66 88.21 361.80 88.50 363.56 87.96
  Q 365.00 87.51 367.88 87.36
  Q 370.14 87.25 372.12 86.85
  Q 376.68 85.95 383.16 86.14
  Q 383.95 86.16 384.33 86.01
  Q 384.74 85.85 385.08 85.75
  Q 385.65 85.57 385.82 85.56
  Q 405.81 84.38 425.76 85.59
  Q 425.87 85.60 427.66 85.99
  Q 428.71 86.21 429.97 86.11
  Q 432.30 85.93 437.65 86.66
  Q 441.38 87.16 442.72 87.29
  Q 446.99 87.70 447.74 87.99
  C 449.34 88.61 451.39 88.23 452.94 88.75
  C 455.51 89.61 457.79 89.04 460.60 89.66
  Q 463.20 90.23 474.22 92.61
  Q 494.88 97.08 509.03 102.14
  C 518.23 105.44 523.28 107.12 529.93 110.13
  Q 534.16 112.04 535.75 112.65
  Q 537.94 113.48 541.54 115.25
  Q 545.75 117.31 555.43 122.22
  C 558.98 124.02 562.97 126.56 566.89 128.50
  C 568.44 129.27 569.86 130.68 571.77 131.50
  Q 573.51 132.25 576.56 134.55
  C 580.05 137.18 584.36 139.40 587.31 141.64
  Q 591.03 144.45 595.31 147.44
  Q 598.94 149.98 601.73 152.34
  Q 602.00 152.56 607.95 157.32
  Q 607.98 157.34 608.42 157.93
  A 2.96 2.73 0.2 0 0 609.12 158.58
  Q 612.23 160.63 614.93 163.47
  C 616.05 164.64 617.47 165.38 618.89 166.67
  Q 627.96 174.93 638.94 186.30
  Q 644.01 191.56 645.18 193.34
  C 646.17 194.86 647.57 195.59 648.80 197.20
  Q 650.37 199.24 651.42 200.26
  C 652.89 201.69 653.48 203.03 655.00 204.84
  Q 661.00 211.98 671.91 227.84
  Q 673.76 230.51 674.43 231.82
  C 675.01 232.95 675.66 233.42 676.19 234.30
  Q 686.71 251.84 689.04 256.72
  Q 692.17 263.31 695.57 269.95
  Q 697.13 272.99 697.39 273.98
  C 697.89 275.91 698.94 277.39 699.78 279.43
  Q 708.51 300.50 714.56 322.51
  Q 715.10 324.46 716.26 330.06
  C 716.88 333.09 718.08 336.77 718.63 340.14
  Q 719.34 344.45 720.56 349.25
  Q 720.77 350.08 720.86 352.32
  Q 720.91 353.45 721.36 355.33
  C 721.75 356.94 721.50 358.60 722.01 360.19
  Q 722.82 362.74 722.66 365.92
  A 2.19 2.18 34.5 0 0 722.84 366.88
  Q 723.36 368.04 723.46 369.29
  Q 723.86 374.24 723.93 380.49
  Q 723.94 380.78 723.79 381.03
  Q 723.54 381.44 723.75 381.88
  Z
  M 249.89 212.92
  C 248.74 214.43 246.74 214.89 245.47 216.33
  Q 243.32 218.80 240.37 221.02
  C 235.20 224.93 231.60 229.31 226.06 234.75
  Q 223.31 237.45 221.84 239.60
  Q 220.19 242.01 217.46 244.32
  C 216.09 245.47 215.36 247.64 214.24 248.63
  Q 212.34 250.30 211.63 251.67
  Q 211.36 252.19 203.65 262.28
  C 202.17 264.22 200.80 266.56 199.40 268.47
  Q 197.94 270.45 196.36 273.22
  C 193.83 277.66 190.93 282.02 188.53 286.80
  Q 182.51 298.82 178.57 306.80
  Q 177.02 309.93 169.74 330.85
  C 168.70 333.86 167.95 338.02 167.15 340.44
  Q 165.87 344.34 164.60 350.41
  Q 164.32 351.77 163.63 353.49
  Q 162.79 355.57 162.89 356.67
  C 163.12 359.26 162.23 361.53 161.72 364.73
  Q 159.57 378.29 158.22 396.97
  C 157.35 408.92 158.52 417.08 160.13 432.84
  C 160.37 435.27 161.01 437.72 161.03 440.23
  C 161.05 444.12 162.77 448.17 163.03 451.71
  Q 163.16 453.41 163.80 455.63
  C 164.84 459.24 164.94 461.86 166.14 465.38
  Q 167.22 468.58 167.69 471.42
  C 168.36 475.60 170.62 479.36 171.18 483.58
  Q 171.42 485.37 172.51 487.38
  Q 173.66 489.50 174.03 490.87
  Q 174.61 493.03 175.74 495.60
  Q 178.17 501.05 179.28 503.99
  C 181.17 508.99 183.74 513.47 186.65 519.39
  C 188.86 523.89 191.76 528.19 194.06 532.25
  C 195.83 535.36 198.29 538.31 199.69 541.44
  C 200.23 542.66 201.62 543.51 202.22 544.56
  Q 203.88 547.48 205.67 549.70
  C 208.25 552.90 210.06 556.45 213.27 559.40
  C 214.65 560.67 215.12 562.54 216.69 563.85
  Q 218.47 565.35 219.45 567.04
  Q 220.34 568.60 222.52 570.73
  Q 226.69 574.80 239.33 587.51
  Q 240.19 588.38 242.33 589.87
  C 244.71 591.53 246.50 594.20 248.85 595.64
  C 250.79 596.83 251.99 598.50 254.13 599.65
  Q 254.92 600.07 256.32 601.49
  C 258.08 603.28 260.66 604.53 262.67 606.10
  C 266.32 608.95 270.13 611.37 275.02 614.78
  C 275.50 615.12 276.30 615.16 276.89 615.54
  Q 277.98 616.23 282.05 618.75
  C 287.62 622.20 296.12 626.05 299.02 627.55
  Q 303.92 630.09 309.53 632.30
  Q 315.60 634.70 320.26 636.63
  C 323.07 637.79 325.89 638.08 328.14 639.18
  Q 329.96 640.06 333.92 641.14
  Q 342.85 643.57 346.04 644.61
  Q 346.97 644.91 348.14 644.99
  C 350.62 645.17 352.21 645.76 356.83 646.86
  Q 360.24 647.66 363.45 648.18
  Q 372.79 649.68 381.77 650.76
  Q 397.36 652.65 418.76 651.77
  Q 427.91 651.40 453.24 647.17
  C 455.90 646.73 458.68 645.87 461.44 645.32
  C 467.59 644.11 471.73 642.67 479.67 640.35
  C 482.08 639.65 483.86 638.37 486.31 638.05
  Q 487.91 637.83 491.30 636.40
  C 495.28 634.72 499.31 633.22 503.26 631.45
  Q 504.81 630.75 507.14 629.85
  Q 511.66 628.10 524.33 621.02
  C 527.03 619.51 531.22 617.79 533.23 616.25
  Q 535.99 614.13 539.56 612.21
  Q 541.62 611.10 545.02 608.60
  Q 549.29 605.46 550.29 604.73
  Q 561.86 596.36 562.99 595.24
  Q 565.05 593.19 566.59 591.96
  Q 569.62 589.55 570.29 588.88
  Q 572.96 586.19 575.65 583.51
  C 577.42 581.75 580.07 580.56 581.79 578.22
  Q 584.24 574.91 584.84 574.31
  C 587.99 571.15 589.71 569.86 591.78 566.70
  Q 592.92 564.95 595.93 562.27
  C 597.11 561.21 598.02 559.81 598.83 558.78
  Q 599.38 558.09 600.62 555.92
  C 601.56 554.27 603.16 553.19 604.13 551.72
  C 606.49 548.14 608.16 545.35 610.45 542.54
  Q 612.53 539.99 614.25 536.59
  C 614.94 535.23 616.16 533.64 617.24 532.06
  Q 618.05 530.87 619.29 528.55
  Q 620.38 526.50 622.74 522.27
  Q 631.07 507.33 637.95 489.21
  C 638.36 488.11 638.21 486.58 638.88 485.31
  Q 640.39 482.44 640.91 479.89
  C 641.61 476.43 642.86 473.44 644.09 469.65
  Q 644.47 468.49 645.15 464.86
  Q 645.92 460.76 647.35 457.12
  Q 647.57 456.56 648.11 451.56
  C 648.32 449.57 649.11 448.12 649.05 446.44
  Q 649.01 445.41 649.77 442.64
  C 650.27 440.84 650.48 439.05 650.92 437.23
  Q 651.22 436.03 651.01 434.77
  C 650.58 432.23 652.18 428.94 652.04 426.12
  Q 651.72 419.94 652.48 415.64
  C 653.22 411.47 652.89 408.53 652.87 403.00
  Q 652.86 397.82 652.49 393.51
  Q 652.23 390.40 651.73 382.45
  Q 651.30 375.71 648.70 360.66
  Q 648.04 356.84 646.21 349.32
  Q 645.51 346.42 643.68 338.09
  C 643.25 336.13 642.19 334.00 641.63 332.02
  Q 640.46 327.95 640.28 327.44
  Q 635.22 312.72 628.60 298.25
  Q 624.64 289.58 619.73 281.78
  Q 618.39 279.65 616.51 275.76
  Q 615.02 272.69 612.98 269.99
  Q 608.98 264.68 608.80 264.42
  Q 601.59 254.05 596.22 247.24
  C 594.78 245.41 592.44 243.68 591.34 242.02
  Q 589.62 239.41 587.65 237.45
  Q 577.51 227.38 573.33 223.17
  C 571.02 220.85 567.84 218.91 565.37 216.17
  C 564.22 214.91 562.60 214.36 561.28 213.15
  Q 559.09 211.15 558.46 210.71
  Q 554.91 208.17 551.08 205.20
  Q 546.88 201.94 543.56 199.80
  Q 540.18 197.62 528.18 190.10
  Q 527.85 189.89 524.30 188.04
  Q 522.62 187.17 520.55 185.76
  Q 518.92 184.65 514.15 182.81
  C 510.37 181.34 506.29 178.84 502.24 177.42
  C 499.94 176.61 497.81 175.19 495.11 174.40
  Q 493.29 173.86 492.09 173.36
  Q 488.50 171.84 487.68 171.57
  C 482.98 169.98 478.46 168.45 473.51 167.28
  Q 469.89 166.43 468.34 165.82
  C 465.90 164.86 463.72 164.93 460.87 164.00
  Q 458.20 163.13 455.31 162.62
  Q 448.02 161.34 435.48 159.27
  Q 434.19 159.06 432.00 158.95
  C 428.99 158.80 426.09 157.90 423.32 158.01
  Q 421.19 158.09 417.26 157.51
  Q 414.26 157.06 411.23 157.05
  Q 397.16 157.02 379.52 158.81
  Q 376.21 159.14 376.05 159.16
  Q 372.19 159.68 366.55 160.89
  C 365.48 161.12 364.21 160.89 363.18 161.13
  Q 359.76 161.95 353.73 163.02
  C 351.37 163.44 349.35 164.45 347.32 164.71
  Q 344.60 165.07 342.51 165.89
  Q 341.59 166.26 335.29 167.78
  Q 331.63 168.66 318.28 173.47
  Q 316.06 174.27 308.72 177.45
  Q 302.09 180.32 299.84 181.55
  C 298.51 182.27 296.91 182.47 295.52 183.34
  Q 292.61 185.17 292.59 185.18
  C 287.88 187.53 285.19 188.69 281.66 190.93
  Q 278.59 192.88 272.24 196.49
  Q 270.12 197.70 260.46 204.84
  Q 257.20 207.25 255.97 208.07
  Q 252.92 210.09 251.45 211.27
  Q 250.68 211.88 249.89 212.92
  Z"
/>
<path fill="#000000" d="
  M 1564.13 374.33
  Q 1564.86 377.37 1565.03 383.60
  C 1565.06 384.88 1564.35 385.41 1565.14 386.84
  Q 1565.38 387.27 1565.41 387.76
  Q 1566.45 404.29 1565.45 420.79
  Q 1565.45 420.85 1565.02 422.70
  Q 1564.80 423.65 1565.03 424.99
  Q 1565.26 426.41 1564.21 435.17
  A 1.35 1.26 -24.7 0 1 1563.95 435.81
  Q 1563.46 436.45 1563.87 437.11
  Q 1563.99 441.06 1563.19 444.87
  Q 1562.62 447.60 1562.57 449.17
  C 1562.50 451.48 1561.66 452.90 1561.74 454.98
  Q 1561.82 457.31 1561.01 460.76
  Q 1560.27 463.91 1558.52 473.11
  C 1557.93 476.20 1556.82 479.04 1556.42 481.83
  Q 1556.27 482.94 1555.51 485.27
  Q 1555.32 485.88 1552.96 494.98
  Q 1551.72 499.76 1546.04 515.34
  Q 1546.03 515.38 1545.22 517.81
  Q 1544.88 518.81 1543.30 522.54
  Q 1533.51 545.74 1529.61 552.79
  Q 1529.50 553.00 1528.01 555.40
  C 1527.31 556.54 1526.93 557.99 1526.21 559.11
  Q 1524.15 562.31 1522.74 564.91
  Q 1520.61 568.83 1519.38 570.79
  Q 1512.97 580.95 1510.32 584.82
  Q 1502.27 596.53 1499.31 599.83
  Q 1498.44 600.79 1497.67 601.83
  C 1495.65 604.58 1494.03 606.04 1492.64 608.24
  C 1491.85 609.50 1490.70 610.28 1489.55 611.69
  Q 1481.25 621.82 1472.90 629.90
  Q 1460.35 642.06 1458.43 643.68
  Q 1453.99 647.43 1449.50 651.51
  C 1448.66 652.27 1447.48 652.54 1446.57 653.56
  C 1445.39 654.91 1443.98 655.27 1442.76 656.47
  Q 1441.29 657.92 1440.36 658.35
  C 1438.53 659.20 1437.61 660.80 1435.79 662.03
  Q 1432.89 663.98 1430.08 666.05
  Q 1422.23 671.83 1413.57 676.98
  Q 1413.48 677.04 1411.14 678.78
  C 1410.02 679.61 1408.53 679.98 1407.47 680.61
  Q 1385.58 693.51 1362.25 702.60
  Q 1362.20 702.61 1356.58 704.55
  C 1353.89 705.48 1351.64 706.74 1348.93 707.40
  Q 1346.38 708.03 1340.90 710.03
  C 1339.41 710.58 1337.65 710.70 1336.11 711.46
  Q 1334.64 712.19 1332.82 712.43
  C 1328.46 713.01 1325.26 714.94 1321.28 715.48
  Q 1317.03 716.06 1313.15 717.14
  Q 1309.65 718.11 1305.53 718.78
  Q 1302.83 719.22 1297.87 720.10
  Q 1293.97 720.79 1293.46 720.82
  Q 1290.47 721.01 1289.15 721.34
  C 1287.39 721.78 1285.38 721.54 1283.35 722.07
  Q 1280.49 722.82 1276.84 722.69
  C 1275.22 722.63 1273.79 723.49 1272.50 723.53
  Q 1248.42 724.39 1220.29 723.58
  C 1219.15 723.55 1217.74 722.64 1216.24 722.71
  Q 1212.36 722.88 1208.62 722.05
  Q 1207.23 721.74 1205.34 721.65
  C 1202.99 721.53 1201.31 720.64 1199.41 720.87
  Q 1198.44 720.99 1196.81 720.61
  Q 1194.56 720.09 1186.06 718.59
  Q 1180.58 717.61 1174.13 715.91
  C 1172.88 715.58 1171.35 715.63 1170.01 715.28
  Q 1150.49 710.14 1131.49 703.17
  Q 1131.07 703.02 1127.72 701.51
  C 1126.06 700.76 1124.07 700.38 1122.53 699.69
  Q 1107.18 692.77 1100.14 689.10
  Q 1077.44 677.29 1058.26 663.15
  Q 1051.99 658.53 1050.93 657.81
  Q 1048.97 656.46 1048.22 655.66
  C 1046.32 653.64 1043.92 652.61 1042.09 650.55
  C 1041.07 649.41 1039.45 648.47 1037.95 647.18
  Q 1025.04 636.04 1010.40 620.60
  C 1008.64 618.74 1007.40 616.73 1005.90 615.18
  Q 1002.82 612.03 1002.12 610.95
  Q 1001.39 609.83 999.67 608.11
  C 998.37 606.81 997.56 605.25 996.50 604.07
  C 995.30 602.75 993.83 601.03 992.53 599.03
  C 991.89 598.05 990.97 597.35 990.35 596.47
  Q 986.58 591.03 983.21 586.49
  Q 981.79 584.58 980.10 581.79
  Q 977.80 577.98 977.00 577.05
  C 975.22 574.94 974.30 572.59 972.48 569.65
  Q 960.76 550.70 951.76 529.34
  Q 951.71 529.21 949.95 524.57
  C 949.19 522.56 948.03 520.36 947.29 518.28
  Q 945.21 512.38 943.79 508.62
  Q 943.01 506.56 942.02 502.79
  C 941.45 500.65 940.12 497.49 939.44 495.03
  Q 937.84 489.27 935.65 480.91
  Q 934.81 477.67 933.81 472.06
  Q 933.08 467.98 931.81 463.20
  C 931.30 461.27 931.53 459.29 930.93 457.36
  Q 930.39 455.62 930.21 452.19
  Q 930.09 449.94 929.59 448.18
  C 929.16 446.66 929.51 444.57 929.00 442.73
  Q 928.07 439.41 928.33 435.03
  A 2.10 2.08 -55.0 0 0 928.17 434.09
  Q 927.49 432.50 927.45 431.25
  Q 926.53 404.41 927.47 377.50
  C 927.51 376.21 928.37 374.84 928.32 373.19
  Q 928.22 369.55 928.89 366.91
  Q 929.30 365.29 929.38 363.55
  Q 929.50 361.15 929.83 360.11
  Q 930.21 358.88 930.18 357.37
  Q 930.14 355.74 930.42 354.49
  Q 930.99 351.91 931.28 349.84
  C 931.82 345.97 932.68 342.35 933.33 339.71
  Q 933.92 337.31 934.36 334.17
  Q 934.75 331.35 936.04 327.09
  Q 936.84 324.44 937.87 320.05
  C 939.13 314.67 941.36 309.23 942.82 303.62
  C 943.42 301.29 944.62 298.95 945.38 296.50
  Q 945.57 295.88 946.27 294.01
  Q 953.31 275.23 962.09 257.84
  Q 964.13 253.79 971.62 240.91
  Q 974.26 236.37 977.69 231.26
  Q 982.94 223.45 983.98 221.71
  Q 984.97 220.04 987.25 217.46
  Q 988.69 215.82 990.36 213.07
  Q 991.56 211.09 992.51 210.27
  C 993.90 209.08 994.41 207.74 995.42 206.49
  Q 1002.18 198.19 1010.35 188.93
  Q 1010.43 188.84 1011.96 187.41
  C 1012.76 186.66 1013.24 185.60 1013.98 184.84
  Q 1021.21 177.51 1025.68 173.18
  C 1026.89 172.02 1028.15 171.42 1029.34 170.16
  Q 1033.44 165.82 1036.10 163.78
  C 1039.52 161.16 1042.25 158.29 1045.79 155.69
  Q 1046.56 155.12 1048.62 153.21
  C 1049.89 152.03 1051.62 151.19 1052.81 150.27
  Q 1073.71 134.19 1095.02 123.09
  Q 1107.57 116.55 1112.05 114.35
  Q 1113.42 113.68 1116.27 112.59
  C 1118.25 111.84 1120.18 110.80 1121.87 110.11
  Q 1131.77 106.08 1134.27 105.03
  C 1135.45 104.54 1136.88 104.47 1138.16 103.94
  Q 1144.89 101.11 1152.85 98.81
  Q 1155.88 97.94 1167.88 94.82
  Q 1179.60 91.77 1192.74 89.43
  C 1194.74 89.08 1196.84 89.51 1198.71 88.82
  C 1200.55 88.13 1202.73 88.63 1204.71 87.88
  Q 1205.82 87.46 1208.91 87.35
  Q 1210.48 87.29 1213.11 86.84
  Q 1218.32 85.94 1222.07 86.13
  Q 1223.26 86.19 1224.41 85.97
  Q 1226.48 85.56 1226.58 85.55
  Q 1251.66 84.25 1266.35 85.81
  Q 1266.93 85.87 1267.55 86.02
  Q 1268.08 86.14 1268.67 86.14
  Q 1276.98 86.16 1279.54 86.70
  Q 1282.09 87.24 1283.89 87.36
  C 1286.62 87.54 1288.16 88.35 1290.33 88.34
  Q 1290.99 88.34 1295.12 89.05
  Q 1296.68 89.32 1298.37 89.38
  Q 1300.34 89.45 1301.60 89.72
  Q 1309.49 91.37 1312.63 92.14
  C 1313.70 92.40 1314.96 92.31 1316.12 92.65
  Q 1319.43 93.61 1325.73 95.19
  Q 1327.33 95.59 1332.28 96.87
  Q 1340.42 98.98 1346.51 101.14
  C 1347.87 101.62 1349.23 101.75 1350.33 102.25
  Q 1353.78 103.82 1355.19 104.14
  C 1358.48 104.88 1360.70 106.38 1364.16 107.57
  Q 1366.80 108.49 1368.29 109.16
  Q 1373.10 111.30 1383.01 115.72
  Q 1384.87 116.55 1385.87 117.21
  C 1386.92 117.90 1388.08 117.94 1388.86 118.45
  Q 1391.59 120.26 1394.39 121.59
  Q 1399.07 123.83 1400.05 124.38
  Q 1416.02 133.45 1422.17 137.84
  Q 1428.21 142.16 1430.98 143.94
  Q 1433.51 145.56 1434.80 146.65
  C 1436.65 148.22 1438.50 148.91 1439.96 150.47
  Q 1440.25 150.78 1445.29 154.61
  Q 1449.28 157.64 1457.38 164.83
  Q 1457.43 164.87 1458.51 166.12
  C 1459.06 166.76 1460.00 167.04 1460.60 167.60
  Q 1471.82 177.94 1482.03 188.84
  C 1482.68 189.53 1483.45 190.96 1484.48 191.85
  Q 1485.30 192.56 1485.68 193.01
  Q 1490.35 198.53 1491.13 199.39
  Q 1495.05 203.73 1496.91 206.23
  Q 1497.88 207.54 1503.79 215.50
  Q 1516.60 232.78 1528.45 254.32
  Q 1529.98 257.10 1530.07 257.39
  C 1530.86 259.86 1532.36 261.12 1532.93 263.25
  Q 1533.27 264.52 1534.41 266.07
  C 1535.20 267.15 1535.57 268.97 1536.09 270.10
  Q 1541.79 282.59 1543.58 287.15
  Q 1546.63 294.93 1552.05 311.25
  Q 1553.21 314.73 1553.69 317.27
  C 1554.36 320.78 1555.93 324.01 1556.44 327.41
  Q 1556.65 328.77 1557.41 331.50
  Q 1558.26 334.50 1558.80 337.63
  Q 1558.98 338.67 1559.55 341.79
  Q 1559.91 343.81 1560.45 345.87
  Q 1561.74 350.80 1561.81 355.12
  Q 1561.82 356.27 1562.38 358.51
  C 1562.73 359.95 1562.55 361.64 1562.96 363.13
  Q 1563.91 366.50 1563.83 371.62
  Q 1563.81 372.99 1564.13 374.33
  Z
  M 1388.80 606.33
  C 1391.46 604.72 1394.32 603.40 1395.81 601.39
  Q 1396.60 600.33 1397.83 599.69
  C 1400.45 598.33 1402.07 595.56 1404.46 594.28
  Q 1406.00 593.45 1406.99 592.14
  Q 1407.39 591.59 1409.55 590.00
  Q 1412.03 588.16 1413.34 586.84
  Q 1420.69 579.45 1428.01 572.14
  Q 1429.84 570.32 1431.28 568.17
  Q 1431.77 567.44 1433.83 565.25
  Q 1434.24 564.82 1436.18 562.30
  Q 1437.17 561.01 1438.75 559.49
  Q 1440.40 557.90 1443.60 552.91
  Q 1444.22 551.94 1444.76 551.42
  C 1446.06 550.16 1446.51 548.77 1447.59 547.59
  C 1450.40 544.56 1452.29 540.25 1454.76 536.72
  Q 1460.45 528.58 1466.45 516.20
  C 1466.92 515.23 1468.00 514.18 1468.49 512.98
  Q 1469.20 511.23 1476.33 494.51
  C 1477.90 490.82 1478.99 486.66 1480.75 482.34
  C 1482.86 477.19 1483.64 471.39 1485.25 467.18
  C 1486.15 464.83 1485.94 462.82 1486.84 460.40
  C 1488.26 456.57 1488.81 450.57 1489.58 448.07
  Q 1490.09 446.39 1490.10 444.06
  C 1490.12 441.84 1491.05 440.17 1490.99 438.23
  C 1490.92 435.72 1492.15 432.93 1492.01 430.56
  C 1491.79 426.51 1493.09 423.07 1493.00 419.33
  C 1492.90 415.38 1493.99 409.92 1493.90 405.58
  Q 1493.75 398.34 1492.83 389.55
  Q 1492.07 382.32 1491.98 379.93
  C 1491.85 376.56 1491.19 374.04 1491.00 371.36
  C 1490.87 369.47 1490.01 367.01 1490.02 364.79
  Q 1490.04 361.86 1489.33 359.92
  Q 1489.14 359.41 1487.70 352.52
  Q 1484.39 336.71 1476.20 314.29
  Q 1474.80 310.48 1473.00 306.90
  Q 1471.55 304.01 1469.63 299.55
  Q 1465.44 289.85 1459.58 280.13
  Q 1455.05 272.61 1448.86 263.22
  Q 1446.78 260.08 1444.18 256.73
  Q 1442.77 254.93 1439.33 250.40
  Q 1438.15 248.84 1437.26 248.09
  Q 1435.71 246.78 1435.03 245.62
  C 1433.38 242.85 1430.49 240.79 1428.90 238.44
  C 1426.26 234.50 1422.94 231.82 1418.71 227.54
  C 1417.21 226.02 1415.68 225.18 1414.55 224.25
  C 1412.11 222.27 1409.31 218.44 1405.92 216.39
  Q 1404.63 215.61 1403.55 214.46
  Q 1401.40 212.18 1400.24 211.37
  Q 1396.14 208.53 1395.13 207.73
  C 1393.92 206.77 1393.03 205.77 1391.89 205.01
  Q 1381.85 198.28 1374.95 193.61
  Q 1372.97 192.27 1369.94 190.92
  C 1368.32 190.20 1367.17 189.04 1365.47 188.20
  C 1359.71 185.34 1353.43 182.03 1347.04 179.27
  Q 1344.98 178.38 1341.88 176.86
  Q 1339.60 175.73 1323.48 169.91
  C 1320.05 168.68 1316.41 168.11 1312.39 166.80
  Q 1307.88 165.33 1304.08 164.55
  Q 1300.88 163.90 1294.60 162.47
  Q 1289.72 161.36 1285.06 160.71
  Q 1277.39 159.64 1271.44 158.68
  Q 1267.06 157.97 1264.75 157.99
  C 1259.02 158.03 1253.62 157.08 1247.97 157.13
  Q 1230.79 157.28 1216.19 159.44
  Q 1205.82 160.98 1205.62 161.00
  Q 1202.14 161.24 1199.17 162.09
  Q 1198.07 162.41 1192.76 163.57
  Q 1168.29 168.93 1146.36 178.71
  C 1144.80 179.40 1142.63 179.93 1140.90 180.89
  C 1137.11 182.99 1133.21 184.86 1129.19 186.87
  C 1126.75 188.10 1124.92 189.69 1122.54 190.70
  Q 1119.63 191.94 1117.60 193.59
  Q 1116.80 194.24 1106.87 200.86
  Q 1105.42 201.83 1101.36 204.91
  Q 1098.00 207.45 1095.62 208.70
  C 1093.66 209.73 1092.34 212.00 1090.87 212.87
  C 1087.83 214.66 1086.32 216.57 1083.19 219.08
  Q 1080.88 220.95 1079.34 222.47
  Q 1071.94 229.76 1064.68 237.18
  Q 1061.63 240.29 1060.84 241.52
  C 1059.65 243.37 1058.43 244.41 1056.87 245.94
  Q 1055.99 246.79 1054.06 249.40
  Q 1051.98 252.22 1048.12 257.09
  Q 1042.75 263.89 1036.47 274.18
  Q 1031.64 282.08 1031.62 282.12
  C 1029.87 284.96 1028.51 287.94 1026.91 291.13
  C 1026.29 292.36 1025.20 293.55 1024.65 295.04
  C 1023.23 298.88 1021.19 302.34 1019.67 306.16
  Q 1014.93 318.05 1013.78 321.20
  C 1012.27 325.35 1011.24 328.74 1009.82 332.13
  Q 1009.23 333.52 1008.91 335.10
  Q 1008.22 338.45 1007.89 339.54
  Q 1005.62 346.99 1005.06 351.07
  C 1004.44 355.64 1003.15 359.46 1002.21 364.04
  Q 1001.90 365.55 1001.87 367.48
  Q 1001.85 369.26 1001.31 370.95
  Q 1000.91 372.21 1000.98 373.46
  Q 1001.07 375.31 1000.87 376.05
  Q 1000.00 379.31 999.80 381.98
  Q 997.57 412.12 1001.16 435.94
  Q 1002.03 441.72 1002.83 447.63
  Q 1003.00 448.83 1003.95 453.30
  Q 1004.42 455.53 1004.97 459.00
  Q 1005.59 462.92 1011.09 480.37
  Q 1011.12 480.45 1012.20 484.19
  Q 1012.97 486.85 1014.63 490.40
  Q 1015.00 491.18 1017.08 497.26
  Q 1018.27 500.72 1019.82 503.73
  Q 1020.53 505.10 1022.61 510.12
  C 1024.86 515.53 1028.37 520.78 1031.00 525.94
  Q 1032.85 529.55 1035.27 533.20
  C 1036.34 534.80 1037.26 536.89 1038.10 538.17
  Q 1041.18 542.85 1042.98 545.13
  Q 1045.51 548.34 1046.39 549.96
  C 1047.29 551.61 1048.80 552.65 1049.51 554.11
  C 1050.38 555.91 1052.52 557.30 1053.64 559.34
  C 1054.76 561.37 1056.46 562.25 1057.67 564.39
  C 1059.18 567.07 1062.50 569.29 1064.06 571.51
  Q 1066.31 574.71 1067.87 576.08
  C 1070.21 578.13 1073.44 581.86 1076.57 584.27
  Q 1080.44 587.25 1084.36 591.59
  C 1085.78 593.16 1087.83 593.70 1089.19 595.38
  Q 1089.50 595.77 1092.18 597.77
  Q 1093.46 598.72 1095.13 600.37
  Q 1096.44 601.66 1106.39 608.13
  C 1107.93 609.13 1109.33 610.58 1111.03 611.57
  Q 1114.55 613.61 1114.75 613.74
  Q 1122.07 618.66 1129.97 622.57
  C 1132.91 624.03 1136.22 626.46 1139.73 627.82
  Q 1143.40 629.24 1144.74 629.91
  C 1148.53 631.80 1150.18 632.80 1153.30 633.72
  Q 1155.24 634.29 1156.95 635.06
  C 1161.83 637.24 1168.71 638.94 1172.09 640.37
  Q 1175.02 641.60 1178.57 642.30
  Q 1179.92 642.56 1185.07 644.14
  Q 1188.90 645.31 1212.37 649.70
  Q 1214.08 650.02 1215.68 650.08
  C 1218.37 650.17 1221.13 650.81 1223.89 651.07
  Q 1237.12 652.35 1255.06 651.96
  Q 1261.71 651.82 1270.50 650.70
  Q 1282.52 649.17 1285.86 648.58
  Q 1293.97 647.17 1302.30 645.22
  C 1303.20 645.01 1304.09 645.08 1304.89 644.86
  Q 1315.27 642.05 1324.16 638.90
  C 1326.45 638.08 1329.23 637.75 1331.76 636.67
  Q 1344.13 631.42 1346.63 630.45
  C 1350.99 628.77 1353.73 627.17 1359.27 624.39
  C 1362.32 622.85 1364.94 620.82 1368.11 619.51
  C 1371.12 618.26 1374.66 615.29 1378.04 613.45
  C 1380.61 612.05 1382.74 610.09 1385.48 608.93
  Q 1386.73 608.40 1388.31 607.24
  Q 1388.38 607.19 1388.40 607.11
  L 1388.53 606.69
  Q 1388.60 606.45 1388.80 606.33
  Z"
/>
<path fill="#000000" d="
  M 194.46 1485.25
  Q 193.38 1484.52 192.81 1484.00
  Q 168.37 1461.61 149.90 1437.23
  Q 149.88 1437.21 148.00 1434.42
  C 147.00 1432.93 145.55 1431.84 144.68 1430.26
  Q 142.90 1427.01 140.05 1423.70
  C 139.34 1422.87 139.05 1421.28 138.18 1420.31
  C 136.42 1418.37 135.74 1416.19 134.08 1414.03
  C 132.17 1411.53 130.96 1408.87 129.28 1406.30
  C 127.70 1403.90 126.89 1401.72 124.95 1398.49
  Q 123.43 1395.97 122.07 1393.12
  Q 119.88 1388.50 117.28 1383.76
  C 115.92 1381.29 115.65 1378.96 114.17 1377.08
  C 113.10 1375.73 112.83 1373.54 112.17 1372.09
  Q 108.51 1364.07 107.33 1360.46
  Q 106.59 1358.18 105.67 1356.48
  C 104.69 1354.67 104.60 1352.89 103.89 1350.99
  Q 100.38 1341.62 97.46 1330.75
  C 97.35 1330.34 97.46 1329.68 97.30 1329.16
  Q 94.00 1317.86 92.44 1309.23
  Q 92.33 1308.62 92.20 1308.03
  Q 91.06 1302.67 90.13 1297.11
  Q 89.25 1291.86 89.25 1291.44
  Q 89.23 1288.44 88.69 1286.16
  Q 88.50 1285.40 88.36 1282.60
  Q 88.27 1280.77 87.90 1279.05
  Q 87.09 1275.28 87.24 1270.25
  C 87.28 1268.84 86.63 1268.07 86.56 1266.83
  Q 85.44 1245.70 86.52 1224.66
  Q 86.54 1224.35 86.98 1222.28
  Q 87.24 1221.07 87.17 1219.79
  Q 86.99 1216.69 87.91 1211.68
  Q 88.27 1209.69 88.33 1208.33
  Q 88.44 1205.83 88.65 1204.94
  Q 89.20 1202.65 89.29 1200.02
  C 89.40 1196.37 90.04 1194.43 90.46 1191.59
  C 90.94 1188.29 91.77 1185.33 92.28 1182.17
  Q 92.87 1178.48 93.58 1175.91
  C 94.43 1172.83 94.50 1170.37 95.53 1167.59
  Q 96.50 1164.94 97.29 1160.86
  Q 97.94 1157.47 99.02 1154.16
  Q 104.47 1137.44 105.37 1135.11
  Q 112.99 1115.56 115.86 1109.89
  Q 120.34 1101.06 124.70 1092.31
  Q 125.82 1090.06 126.73 1089.00
  C 127.79 1087.75 128.19 1086.07 129.20 1084.42
  Q 132.68 1078.76 139.72 1067.55
  C 140.44 1066.40 141.53 1065.30 142.43 1063.93
  Q 146.56 1057.58 153.42 1049.22
  Q 153.62 1048.98 153.85 1048.42
  C 154.31 1047.31 155.70 1046.28 156.38 1045.14
  C 157.86 1042.65 160.47 1040.55 161.79 1038.79
  Q 166.11 1033.07 170.66 1028.90
  C 171.30 1028.32 171.83 1027.47 172.44 1026.69
  Q 173.77 1024.96 183.65 1015.14
  Q 185.44 1013.36 186.57 1012.60
  C 187.78 1011.79 188.73 1010.39 190.32 1009.00
  Q 198.58 1001.73 207.01 994.76
  C 210.22 992.11 213.66 989.79 216.55 987.43
  C 219.44 985.07 223.57 982.56 226.21 980.73
  Q 244.30 968.21 265.60 957.88
  Q 269.48 956.00 278.49 951.80
  C 281.00 950.63 283.19 950.24 285.74 949.01
  Q 290.66 946.63 296.35 944.85
  Q 296.99 944.65 300.38 943.25
  C 302.28 942.47 304.27 942.39 306.02 941.64
  Q 308.68 940.51 319.82 937.36
  Q 328.52 934.91 330.71 934.49
  Q 333.80 933.90 335.41 933.48
  Q 338.18 932.76 340.12 932.43
  Q 340.22 932.42 343.11 931.67
  C 344.61 931.29 346.08 931.49 347.57 930.95
  Q 348.69 930.55 351.92 930.27
  Q 353.99 930.09 355.57 929.67
  C 357.17 929.24 358.64 929.51 360.45 928.97
  Q 363.00 928.20 365.95 928.35
  A 2.44 2.32 34.5 0 0 366.89 928.20
  Q 368.01 927.77 368.03 927.77
  Q 377.07 926.76 380.01 927.15
  Q 381.08 927.29 382.38 926.99
  Q 384.36 926.55 384.62 926.53
  Q 405.10 925.41 426.49 926.58
  C 427.85 926.65 428.88 927.27 430.19 927.20
  Q 437.16 926.84 443.46 927.95
  Q 446.11 928.42 447.12 928.41
  Q 448.90 928.40 450.76 929.01
  C 452.29 929.51 454.96 929.21 456.11 929.78
  Q 457.19 930.31 458.50 930.12
  Q 458.75 930.09 461.00 930.50
  Q 472.30 932.61 473.76 932.97
  Q 476.77 933.72 478.73 934.12
  Q 482.72 934.94 483.70 935.20
  Q 493.09 937.71 498.10 939.20
  Q 502.87 940.62 504.11 941.19
  C 506.74 942.41 509.00 942.65 512.14 943.84
  C 517.73 945.93 521.19 947.19 526.00 949.33
  Q 528.51 950.45 529.37 950.67
  Q 531.38 951.18 532.76 951.91
  Q 535.13 953.17 540.23 955.22
  Q 541.05 955.55 542.91 956.73
  C 544.14 957.51 545.68 957.86 546.76 958.37
  Q 551.95 960.84 555.70 963.07
  C 559.39 965.27 563.39 967.07 567.12 969.37
  Q 575.33 974.42 586.64 981.86
  Q 586.69 981.89 588.97 983.57
  C 589.94 984.29 591.32 984.95 592.52 985.93
  Q 595.41 988.29 596.90 989.29
  Q 598.72 990.52 601.11 992.49
  Q 606.82 997.19 608.03 997.99
  Q 609.48 998.94 611.22 1000.95
  C 612.36 1002.27 614.55 1003.14 615.90 1004.62
  Q 617.82 1006.75 620.94 1009.23
  Q 623.16 1010.99 625.89 1013.69
  Q 632.21 1019.94 637.59 1025.46
  Q 638.86 1026.77 639.39 1027.98
  Q 639.55 1028.35 640.11 1028.49
  Q 640.38 1028.56 641.35 1029.62
  C 644.06 1032.58 647.46 1036.10 650.29 1039.57
  Q 660.16 1051.67 670.16 1065.88
  Q 674.09 1071.47 676.71 1075.81
  Q 677.76 1077.55 682.54 1085.77
  Q 686.47 1092.52 689.01 1097.65
  Q 689.59 1098.82 689.65 1098.95
  C 690.28 1100.29 691.27 1101.28 691.80 1102.63
  Q 692.70 1104.91 692.90 1105.29
  Q 698.90 1116.81 704.52 1132.19
  Q 704.53 1132.24 706.35 1136.59
  C 707.22 1138.67 707.58 1140.99 708.23 1142.84
  Q 709.92 1147.68 711.52 1152.56
  Q 711.92 1153.79 713.18 1158.52
  C 713.86 1161.06 715.25 1163.97 715.46 1166.51
  Q 715.69 1169.25 717.18 1174.16
  Q 718.03 1176.96 718.71 1181.32
  C 719.24 1184.72 720.40 1188.28 720.68 1191.98
  Q 720.79 1193.35 721.26 1195.45
  C 721.63 1197.08 721.50 1198.78 722.04 1200.47
  Q 722.65 1202.38 722.64 1205.90
  C 722.63 1206.78 723.21 1207.57 723.30 1208.36
  Q 723.96 1214.02 723.81 1221.32
  Q 723.78 1223.00 724.24 1224.14
  Q 724.43 1224.60 724.46 1225.09
  Q 725.46 1245.08 724.44 1265.49
  Q 724.38 1266.74 723.95 1267.82
  Q 723.76 1268.28 723.78 1268.78
  Q 724.16 1276.98 723.05 1282.53
  Q 722.71 1284.28 722.63 1286.02
  Q 722.53 1288.44 722.09 1289.55
  C 721.40 1291.27 721.85 1292.91 721.35 1294.58
  Q 720.93 1295.97 720.85 1297.76
  Q 720.73 1300.18 720.51 1301.00
  Q 719.50 1304.76 718.89 1308.37
  Q 718.22 1312.37 717.41 1315.26
  Q 716.15 1319.76 715.78 1322.12
  Q 715.13 1326.34 714.03 1329.05
  C 712.97 1331.67 712.62 1335.04 711.50 1338.28
  Q 709.16 1345.07 708.19 1348.12
  Q 706.58 1353.18 704.78 1357.95
  Q 694.78 1384.48 680.09 1409.11
  Q 677.35 1413.71 671.81 1422.13
  Q 666.50 1430.21 662.95 1434.76
  Q 659.78 1438.83 653.38 1447.17
  Q 650.43 1451.02 647.35 1454.40
  Q 647.29 1454.47 643.63 1458.57
  Q 641.57 1460.88 638.03 1464.52
  Q 623.56 1479.39 616.75 1485.31
  Q 616.44 1485.58 614.81 1486.65
  C 613.87 1487.26 613.27 1488.26 612.50 1488.88
  Q 595.78 1502.45 592.21 1504.96
  Q 585.14 1509.93 579.26 1513.50
  C 577.49 1514.58 576.42 1515.85 574.78 1516.63
  Q 570.92 1518.46 568.04 1520.84
  C 567.22 1521.52 565.94 1521.85 564.90 1522.43
  Q 543.94 1534.08 538.63 1536.13
  Q 532.69 1538.43 528.12 1540.58
  C 525.05 1542.02 522.76 1542.71 519.64 1544.03
  Q 518.52 1544.50 514.35 1545.81
  C 511.98 1546.56 509.59 1547.74 507.34 1548.43
  Q 499.78 1550.74 491.64 1553.39
  C 490.82 1553.66 489.76 1553.52 488.87 1553.78
  Q 477.26 1557.16 468.99 1558.64
  Q 460.64 1560.13 454.73 1561.43
  Q 454.24 1561.53 449.91 1561.73
  Q 447.16 1561.86 445.16 1562.35
  Q 444.17 1562.59 441.73 1562.70
  Q 440.45 1562.75 438.32 1563.11
  Q 431.97 1564.18 425.28 1563.91
  C 423.78 1563.85 423.12 1564.34 421.65 1564.43
  Q 404.90 1565.49 388.95 1564.39
  C 387.98 1564.32 387.12 1563.80 386.03 1563.87
  Q 379.76 1564.24 373.56 1563.23
  Q 370.23 1562.68 368.40 1562.62
  Q 366.18 1562.54 364.94 1562.17
  Q 363.51 1561.75 361.51 1561.74
  Q 357.17 1561.73 354.05 1561.06
  Q 346.78 1559.49 346.51 1559.43
  Q 343.84 1558.78 343.07 1558.74
  Q 340.79 1558.62 339.62 1558.26
  Q 337.56 1557.63 329.56 1555.84
  C 326.76 1555.21 324.03 1554.07 321.16 1553.60
  Q 319.38 1553.30 317.77 1552.82
  Q 304.00 1548.70 290.07 1543.45
  Q 285.28 1541.64 279.81 1539.11
  Q 277.59 1538.09 272.99 1536.20
  C 267.43 1533.93 262.80 1531.33 257.88 1528.94
  Q 255.04 1527.57 249.72 1524.41
  Q 230.64 1513.06 228.49 1511.51
  Q 224.12 1508.35 219.60 1505.35
  Q 218.92 1504.90 217.70 1504.00
  Q 211.16 1499.17 203.18 1492.85
  Q 202.80 1492.55 202.66 1492.26
  Q 202.58 1492.09 202.55 1492.03
  Q 202.45 1491.80 202.32 1491.72
  Q 200.06 1490.33 196.12 1486.61
  Q 195.22 1485.76 194.46 1485.25
  Z
  M 268.70 1040.03
  Q 266.26 1041.18 264.11 1042.76
  Q 260.39 1045.50 260.30 1045.57
  Q 249.60 1053.23 247.52 1055.26
  Q 244.84 1057.87 242.90 1059.50
  Q 239.35 1062.48 238.21 1063.63
  C 236.23 1065.64 234.29 1067.77 232.04 1069.47
  C 230.67 1070.51 229.38 1072.47 228.59 1073.25
  Q 224.50 1077.33 220.42 1081.42
  C 219.64 1082.19 219.21 1083.78 218.25 1084.63
  Q 215.31 1087.25 213.81 1089.66
  C 212.72 1091.41 210.76 1092.71 209.80 1094.30
  Q 207.55 1098.00 206.06 1099.77
  C 204.51 1101.63 203.25 1103.96 201.90 1105.63
  Q 199.87 1108.13 198.89 1110.07
  C 197.65 1112.53 195.72 1114.77 194.36 1117.27
  Q 193.55 1118.75 190.43 1123.86
  Q 188.26 1127.41 186.68 1130.57
  C 182.81 1138.28 180.82 1142.02 178.40 1148.20
  Q 174.02 1159.36 172.69 1162.47
  Q 171.91 1164.30 171.01 1167.54
  C 169.68 1172.26 168.32 1175.91 166.96 1181.87
  C 166.46 1184.09 165.45 1186.33 165.07 1188.59
  C 164.49 1192.05 163.19 1195.56 162.96 1198.53
  C 162.65 1202.28 161.12 1206.01 160.98 1209.80
  C 160.90 1211.86 160.17 1214.44 160.06 1216.11
  Q 159.76 1220.56 159.72 1220.88
  Q 157.81 1235.12 158.25 1251.24
  Q 158.50 1260.08 160.63 1277.01
  Q 161.92 1287.21 162.47 1289.38
  C 163.09 1291.77 162.98 1293.90 163.83 1296.28
  Q 164.54 1298.23 165.06 1301.21
  C 165.71 1304.95 167.18 1309.17 168.00 1312.37
  Q 170.80 1323.35 172.78 1328.24
  Q 174.95 1333.59 175.07 1334.03
  C 176.02 1337.49 177.95 1340.37 179.04 1343.73
  C 180.05 1346.81 181.87 1349.28 182.86 1352.48
  C 183.22 1353.64 184.39 1354.63 184.88 1355.66
  Q 190.69 1367.88 192.44 1370.51
  Q 196.98 1377.33 204.41 1389.12
  C 205.51 1390.86 207.44 1392.23 208.34 1393.68
  Q 210.95 1397.83 214.94 1402.48
  Q 216.52 1404.31 216.87 1404.73
  Q 219.87 1408.23 222.04 1410.20
  Q 222.76 1410.86 223.48 1412.05
  C 225.40 1415.23 230.35 1419.48 236.93 1426.09
  C 238.14 1427.31 239.68 1427.71 240.85 1428.99
  Q 245.88 1434.50 251.95 1438.51
  Q 253.12 1439.28 254.08 1440.28
  C 255.83 1442.10 257.64 1442.71 259.31 1444.47
  C 261.42 1446.69 263.85 1447.14 266.18 1449.13
  Q 269.39 1451.87 271.22 1452.75
  C 275.20 1454.66 278.31 1457.43 282.57 1459.29
  C 283.53 1459.71 284.50 1460.79 285.30 1461.20
  Q 291.09 1464.12 293.85 1465.85
  Q 295.92 1467.15 298.19 1468.00
  Q 302.01 1469.44 302.63 1469.81
  Q 304.25 1470.81 306.06 1471.32
  C 308.91 1472.13 311.46 1473.89 314.31 1474.91
  Q 319.14 1476.66 321.14 1477.65
  C 323.98 1479.05 327.58 1478.92 330.21 1480.68
  Q 331.63 1481.63 333.56 1481.98
  Q 334.00 1482.06 337.03 1483.15
  Q 337.50 1483.32 337.98 1483.21
  Q 339.13 1482.97 340.17 1483.36
  Q 343.25 1484.52 350.43 1486.18
  Q 369.80 1490.66 389.25 1491.96
  Q 392.85 1492.20 395.94 1492.49
  Q 401.08 1492.97 402.62 1492.99
  Q 409.16 1493.05 411.76 1492.79
  Q 420.70 1491.90 422.75 1491.92
  C 425.74 1491.95 428.09 1491.11 430.82 1491.04
  Q 431.86 1491.01 436.01 1490.49
  Q 438.07 1490.23 441.25 1490.01
  Q 442.65 1489.91 454.39 1487.52
  Q 454.44 1487.51 462.23 1485.80
  Q 466.67 1484.83 471.04 1483.30
  C 471.96 1482.98 473.19 1483.10 474.29 1482.74
  C 479.19 1481.15 486.54 1478.94 492.49 1476.48
  C 500.23 1473.28 504.90 1471.85 509.56 1469.24
  C 510.77 1468.57 512.29 1468.40 513.59 1467.56
  Q 515.76 1466.15 516.30 1465.90
  Q 524.45 1461.99 526.58 1460.58
  C 529.00 1458.99 531.70 1457.78 533.59 1456.54
  C 536.78 1454.44 539.59 1452.36 542.81 1450.59
  C 546.50 1448.56 549.21 1445.94 552.89 1443.70
  C 555.39 1442.17 557.11 1439.66 559.41 1438.39
  C 561.00 1437.50 562.06 1435.95 563.81 1434.74
  Q 566.43 1432.92 567.11 1432.09
  C 568.81 1429.97 571.02 1429.17 573.09 1427.08
  Q 585.06 1415.01 586.74 1413.48
  Q 588.04 1412.30 589.63 1409.92
  C 591.41 1407.27 594.06 1405.69 595.62 1402.91
  C 596.68 1401.03 599.10 1399.56 600.39 1397.33
  Q 601.21 1395.91 601.84 1395.21
  Q 602.17 1394.85 602.61 1394.64
  C 603.49 1394.22 603.59 1393.54 604.02 1393.03
  C 605.16 1391.67 605.83 1390.42 607.11 1388.76
  Q 607.76 1387.92 608.22 1386.74
  Q 608.81 1385.22 611.28 1382.16
  Q 613.13 1379.88 614.36 1377.61
  Q 615.48 1375.54 617.81 1371.89
  Q 619.03 1369.98 620.99 1366.08
  Q 621.71 1364.65 624.42 1360.19
  Q 627.16 1355.69 633.93 1339.40
  C 634.63 1337.71 635.63 1336.03 636.16 1334.42
  C 638.19 1328.22 640.69 1321.58 642.34 1315.81
  Q 643.15 1313.00 644.91 1307.30
  C 645.09 1306.72 645.01 1305.35 645.18 1304.64
  Q 648.80 1290.27 648.98 1288.25
  Q 649.17 1286.11 649.47 1284.67
  Q 650.00 1282.16 650.05 1281.17
  C 650.17 1279.00 651.05 1277.42 650.99 1275.53
  C 650.90 1272.69 652.07 1269.70 652.00 1266.94
  Q 651.84 1260.76 652.47 1256.82
  C 653.18 1252.31 652.88 1249.34 652.91 1243.52
  C 652.95 1238.36 652.05 1232.08 652.03 1226.53
  Q 652.01 1222.73 651.56 1219.52
  Q 648.85 1200.50 646.53 1190.73
  Q 645.32 1185.65 645.32 1185.64
  C 644.99 1181.94 643.71 1179.22 641.99 1174.06
  C 641.23 1171.77 640.54 1167.81 638.96 1164.83
  C 638.04 1163.07 638.10 1161.34 637.38 1159.62
  Q 635.46 1155.06 634.16 1151.47
  Q 632.50 1146.88 630.76 1143.41
  Q 623.98 1129.90 622.28 1126.50
  C 621.87 1125.67 620.89 1124.83 620.59 1124.14
  C 618.57 1119.60 615.83 1116.16 613.40 1111.89
  Q 611.33 1108.24 609.87 1106.73
  C 608.35 1105.16 607.71 1103.05 606.20 1101.19
  Q 603.49 1097.85 603.44 1097.79
  Q 592.78 1083.57 590.85 1081.66
  Q 586.10 1076.98 580.10 1070.94
  C 578.93 1069.76 578.30 1068.21 576.80 1067.05
  Q 574.12 1064.98 573.88 1064.73
  Q 569.50 1060.31 569.45 1060.26
  C 568.12 1058.77 566.25 1058.39 565.04 1056.87
  Q 563.98 1055.55 561.90 1054.38
  C 560.09 1053.36 558.81 1051.42 556.98 1050.08
  Q 551.75 1046.24 550.83 1045.65
  Q 550.61 1045.51 550.52 1045.23
  Q 550.51 1045.19 550.43 1044.98
  Q 550.34 1044.77 550.11 1044.63
  Q 532.13 1032.98 527.42 1030.31
  Q 523.10 1027.87 506.42 1019.73
  C 503.71 1018.41 501.05 1017.92 498.37 1016.64
  Q 489.79 1012.55 478.71 1009.40
  C 474.32 1008.16 468.19 1005.96 462.81 1004.96
  Q 460.70 1004.57 458.16 1003.94
  Q 456.96 1003.64 453.50 1002.95
  Q 427.33 997.68 401.75 998.23
  Q 382.98 998.64 372.71 1000.29
  Q 365.97 1001.38 358.28 1002.74
  C 354.54 1003.40 351.62 1004.38 348.01 1004.99
  C 343.51 1005.75 337.56 1007.90 332.64 1009.27
  Q 324.09 1011.64 313.14 1016.29
  C 311.06 1017.17 308.45 1017.75 306.40 1018.78
  C 293.87 1025.05 288.42 1027.13 279.97 1032.66
  Q 275.45 1035.62 269.96 1038.48
  Q 269.53 1038.70 269.47 1039.18
  Q 269.45 1039.35 269.38 1039.51
  Q 269.26 1039.77 268.70 1040.03
  Z"
/>
<path fill="#000000" d="
  M 1564.68 1225.63
  C 1564.84 1226.26 1565.34 1227.17 1565.40 1228.13
  Q 1566.47 1245.01 1565.43 1261.91
  Q 1565.43 1261.97 1565.07 1263.58
  Q 1564.80 1264.82 1564.93 1265.99
  Q 1565.23 1268.57 1564.40 1273.64
  Q 1563.94 1276.45 1563.81 1279.89
  Q 1563.66 1283.90 1563.12 1286.22
  Q 1562.54 1288.70 1562.57 1289.85
  Q 1562.60 1290.98 1562.15 1292.32
  C 1561.34 1294.71 1561.77 1298.43 1561.37 1300.14
  Q 1559.56 1307.76 1558.04 1315.65
  Q 1557.50 1318.48 1553.78 1332.59
  Q 1553.54 1333.51 1553.28 1334.39
  Q 1552.34 1337.69 1549.21 1347.27
  Q 1548.25 1350.23 1547.05 1353.12
  C 1545.93 1355.79 1545.32 1358.47 1544.30 1360.99
  Q 1541.61 1367.59 1535.07 1382.38
  Q 1534.33 1384.05 1532.36 1387.67
  Q 1530.29 1391.48 1529.80 1393.08
  Q 1529.43 1394.30 1528.15 1396.04
  C 1527.35 1397.12 1526.88 1398.92 1526.04 1400.10
  C 1525.15 1401.37 1522.97 1404.98 1521.70 1407.59
  C 1521.08 1408.86 1520.15 1409.84 1519.53 1410.90
  C 1516.81 1415.57 1513.18 1421.08 1510.79 1424.59
  Q 1509.12 1427.04 1506.36 1430.87
  Q 1500.98 1438.33 1499.54 1440.24
  Q 1494.97 1446.33 1486.93 1455.45
  C 1486.26 1456.20 1485.93 1457.18 1485.19 1457.94
  Q 1463.73 1479.96 1460.16 1482.92
  L 1455.05 1487.17
  Q 1453.61 1488.80 1450.65 1490.94
  C 1448.74 1492.32 1447.01 1494.01 1445.08 1495.54
  Q 1421.25 1514.45 1394.68 1528.44
  Q 1393.03 1529.32 1391.74 1529.90
  C 1387.89 1531.65 1384.56 1533.82 1380.69 1535.41
  Q 1373.55 1538.33 1367.93 1540.97
  C 1364.78 1542.45 1361.61 1543.08 1358.22 1544.98
  C 1357.45 1545.41 1355.94 1545.46 1354.97 1545.83
  Q 1347.46 1548.70 1336.69 1552.04
  Q 1332.41 1553.36 1330.75 1553.64
  C 1326.55 1554.34 1323.10 1555.69 1318.32 1556.70
  C 1314.89 1557.43 1312.70 1558.30 1309.66 1558.64
  Q 1306.11 1559.04 1301.97 1560.20
  C 1300.44 1560.62 1298.40 1560.49 1296.70 1561.05
  Q 1294.63 1561.72 1291.28 1561.72
  Q 1288.83 1561.73 1286.28 1562.31
  Q 1284.56 1562.70 1281.17 1562.72
  C 1280.20 1562.72 1279.52 1563.14 1278.55 1563.27
  Q 1272.21 1564.12 1265.82 1563.91
  C 1264.68 1563.87 1263.85 1564.38 1262.94 1564.43
  Q 1246.85 1565.39 1230.75 1564.48
  Q 1229.75 1564.42 1228.73 1564.14
  Q 1227.64 1563.84 1226.75 1563.89
  Q 1220.38 1564.20 1214.57 1563.28
  Q 1211.11 1562.73 1209.40 1562.65
  Q 1207.03 1562.54 1205.94 1562.20
  Q 1204.57 1561.77 1202.52 1561.79
  Q 1198.51 1561.82 1195.24 1561.02
  Q 1194.20 1560.76 1185.38 1559.18
  Q 1175.63 1557.43 1164.39 1554.19
  C 1162.26 1553.58 1160.59 1553.67 1158.74 1552.95
  C 1154.65 1551.35 1149.72 1550.39 1146.08 1549.00
  C 1140.54 1546.88 1135.74 1545.52 1131.47 1543.77
  Q 1121.43 1539.65 1114.09 1536.51
  C 1108.69 1534.20 1103.47 1531.29 1097.63 1528.40
  C 1092.99 1526.11 1089.58 1523.94 1085.54 1521.69
  Q 1085.48 1521.65 1070.99 1512.63
  Q 1065.64 1509.29 1059.83 1504.92
  Q 1054.99 1501.28 1048.93 1496.80
  Q 1048.57 1496.54 1047.10 1495.44
  Q 1046.11 1494.71 1041.47 1490.67
  Q 1037.95 1487.60 1035.74 1485.88
  Q 1032.76 1483.56 1028.53 1479.06
  C 1027.84 1478.32 1027.03 1478.08 1026.45 1477.52
  Q 1020.39 1471.67 1014.54 1465.65
  A 6.28 0.22 50.3 0 1 1012.66 1463.54
  Q 1011.24 1461.87 1004.22 1454.14
  Q 1003.96 1453.85 1003.79 1453.42
  Q 1003.58 1452.89 1003.44 1452.76
  Q 1001.02 1450.56 999.03 1447.82
  Q 997.78 1446.09 996.59 1444.87
  Q 995.03 1443.25 994.38 1441.93
  C 993.81 1440.78 992.69 1439.94 991.92 1438.96
  Q 985.08 1430.15 979.75 1421.76
  Q 976.80 1417.13 975.63 1415.63
  C 974.36 1414.03 973.82 1412.23 972.52 1410.52
  Q 971.86 1409.64 971.21 1408.52
  Q 970.06 1406.55 962.38 1392.61
  Q 958.73 1385.98 957.15 1381.56
  C 956.89 1380.82 955.95 1379.90 955.57 1378.97
  Q 950.71 1367.10 945.82 1355.25
  C 945.40 1354.22 945.33 1352.86 944.95 1352.05
  Q 943.21 1348.42 942.38 1344.68
  C 941.90 1342.49 940.87 1340.37 940.24 1338.27
  Q 938.00 1330.89 934.64 1317.61
  C 934.29 1316.22 934.44 1314.57 934.08 1313.38
  Q 932.70 1308.83 930.87 1298.03
  Q 930.77 1297.41 930.33 1293.45
  Q 930.09 1291.29 929.67 1289.15
  C 929.30 1287.30 929.50 1285.34 928.96 1283.38
  Q 928.22 1280.71 928.32 1276.98
  C 928.37 1275.17 927.55 1273.78 927.49 1272.28
  Q 926.58 1251.31 927.33 1221.75
  Q 927.41 1218.91 927.75 1217.40
  Q 928.32 1214.95 928.33 1213.12
  Q 928.35 1209.42 928.80 1208.01
  C 929.50 1205.82 929.07 1203.32 929.71 1201.23
  Q 930.13 1199.87 930.15 1198.58
  Q 930.21 1195.20 930.93 1192.64
  Q 931.23 1191.54 931.34 1190.25
  Q 931.40 1189.56 931.74 1187.84
  Q 933.92 1177.02 934.27 1175.13
  Q 935.09 1170.67 936.00 1167.85
  C 936.98 1164.81 937.48 1161.44 938.52 1158.13
  Q 942.00 1147.04 942.67 1144.87
  Q 945.84 1134.72 950.45 1124.42
  C 950.66 1123.93 950.61 1123.36 950.84 1122.82
  Q 958.48 1104.56 967.53 1088.52
  Q 971.32 1081.79 981.20 1066.34
  Q 982.22 1064.75 984.04 1062.36
  C 985.28 1060.75 986.54 1058.72 987.84 1057.03
  Q 992.03 1051.60 992.55 1050.74
  Q 993.36 1049.38 995.01 1047.76
  C 996.83 1045.97 998.33 1043.00 1000.18 1041.34
  C 1001.66 1040.01 1002.31 1038.42 1003.90 1036.86
  C 1006.22 1034.60 1008.02 1031.93 1010.08 1029.76
  Q 1021.13 1018.12 1032.97 1006.97
  C 1034.02 1005.98 1035.19 1005.60 1036.19 1004.50
  Q 1038.49 1001.97 1041.07 1000.38
  Q 1041.35 1000.21 1041.65 999.84
  C 1042.65 998.64 1043.91 998.06 1045.04 996.88
  Q 1046.17 995.70 1047.82 994.50
  Q 1053.78 990.19 1059.67 985.69
  Q 1062.27 983.71 1074.29 975.72
  Q 1076.06 974.54 1078.24 973.39
  C 1080.07 972.43 1081.41 971.30 1083.46 970.12
  Q 1103.27 958.77 1110.98 955.49
  Q 1117.36 952.78 1119.53 951.88
  Q 1125.79 949.29 1132.22 946.58
  C 1135.07 945.39 1138.64 944.33 1141.79 943.02
  C 1142.93 942.54 1144.20 942.48 1145.23 942.11
  Q 1156.18 938.14 1170.60 934.58
  C 1171.66 934.31 1172.82 934.45 1173.74 934.18
  Q 1177.63 933.04 1188.04 931.04
  Q 1192.67 930.15 1193.13 930.14
  Q 1194.45 930.13 1196.54 929.62
  C 1198.05 929.26 1199.66 929.53 1201.14 929.02
  Q 1203.41 928.24 1207.01 928.33
  A 2.08 2.01 33.1 0 0 1207.94 928.15
  Q 1209.19 927.58 1210.02 927.53
  Q 1219.56 926.98 1221.01 927.04
  Q 1222.44 927.11 1223.39 926.93
  Q 1225.51 926.52 1225.52 926.52
  Q 1246.56 925.42 1267.59 926.56
  Q 1267.60 926.56 1269.44 926.88
  Q 1270.37 927.03 1271.99 927.06
  Q 1278.44 927.19 1282.75 927.58
  C 1284.08 927.70 1285.30 928.41 1286.83 928.38
  C 1289.61 928.33 1291.83 929.22 1294.61 929.46
  C 1296.57 929.62 1297.94 930.34 1299.55 930.24
  Q 1301.32 930.13 1303.42 930.78
  C 1305.30 931.35 1307.42 931.30 1309.03 931.75
  Q 1315.54 933.58 1320.43 934.32
  Q 1323.76 934.83 1326.36 935.76
  C 1329.77 936.98 1333.34 937.33 1336.90 938.71
  C 1339.08 939.56 1341.06 939.60 1343.02 940.55
  Q 1344.90 941.46 1347.49 942.17
  Q 1350.19 942.90 1352.01 943.54
  Q 1360.65 946.56 1376.55 953.42
  Q 1381.27 955.46 1383.41 956.61
  C 1384.92 957.42 1385.95 957.79 1387.34 958.27
  C 1388.80 958.78 1389.92 959.86 1391.36 960.51
  Q 1393.40 961.43 1393.97 961.75
  Q 1396.25 963.01 1402.34 966.50
  Q 1421.47 977.48 1429.15 983.10
  Q 1440.64 991.52 1447.12 996.87
  C 1448.01 997.61 1449.18 998.09 1450.10 999.00
  Q 1452.07 1000.96 1457.74 1005.81
  Q 1462.60 1009.98 1465.33 1012.66
  Q 1471.64 1018.85 1477.87 1025.13
  C 1480.08 1027.36 1482.21 1029.90 1484.56 1032.18
  C 1485.63 1033.23 1486.37 1034.56 1487.24 1035.55
  Q 1498.48 1048.29 1508.25 1062.11
  Q 1510.96 1065.94 1514.53 1071.68
  Q 1519.81 1080.17 1520.76 1081.64
  Q 1526.45 1090.52 1534.11 1106.25
  Q 1538.79 1115.87 1545.19 1132.07
  Q 1545.29 1132.32 1545.72 1133.46
  Q 1549.78 1144.13 1552.77 1154.86
  Q 1555.28 1163.84 1556.22 1167.00
  C 1556.52 1168.03 1556.47 1169.25 1556.78 1170.20
  Q 1558.28 1174.67 1558.68 1177.62
  C 1559.14 1181.01 1560.02 1183.84 1560.59 1187.10
  C 1560.91 1188.91 1561.68 1191.66 1561.69 1194.32
  Q 1561.70 1197.01 1562.29 1198.59
  C 1562.81 1199.98 1562.59 1202.39 1563.05 1204.42
  Q 1563.99 1208.64 1563.90 1213.00
  Q 1563.45 1213.64 1563.92 1214.31
  Q 1564.21 1214.71 1564.27 1215.20
  C 1564.64 1217.83 1565.48 1222.72 1564.91 1224.97
  Q 1564.88 1225.10 1564.77 1225.18
  Q 1564.60 1225.30 1564.68 1225.63
  Z
  M 1102.07 1044.87
  Q 1099.88 1045.94 1099.11 1046.75
  Q 1097.95 1047.98 1096.75 1048.58
  C 1095.00 1049.46 1093.91 1051.39 1092.01 1052.41
  Q 1090.44 1053.24 1090.02 1053.77
  Q 1088.90 1055.14 1086.42 1057.07
  Q 1083.48 1059.35 1082.71 1060.12
  Q 1080.59 1062.28 1078.43 1064.39
  C 1077.53 1065.27 1076.10 1065.72 1075.41 1066.42
  C 1070.69 1071.16 1067.82 1073.59 1064.52 1078.11
  Q 1063.10 1080.05 1059.89 1082.90
  Q 1057.82 1084.73 1055.74 1087.65
  Q 1052.11 1092.76 1052.06 1092.83
  C 1051.51 1093.47 1050.98 1093.51 1050.48 1094.22
  Q 1046.68 1099.57 1045.61 1101.28
  Q 1045.52 1101.42 1045.37 1101.47
  Q 1045.26 1101.51 1045.06 1101.48
  Q 1044.79 1101.44 1044.66 1101.69
  C 1043.94 1103.11 1042.83 1104.16 1042.18 1105.61
  Q 1040.59 1109.09 1039.39 1110.39
  C 1037.73 1112.19 1036.53 1114.94 1035.50 1116.42
  Q 1034.57 1117.76 1033.63 1119.12
  C 1031.86 1121.69 1030.74 1124.75 1029.15 1127.26
  C 1026.38 1131.62 1025.02 1134.92 1022.23 1140.47
  C 1021.66 1141.59 1021.51 1143.09 1020.88 1144.20
  C 1018.70 1148.06 1017.89 1152.10 1015.90 1156.24
  Q 1012.74 1162.84 1011.39 1168.96
  C 1011.23 1169.67 1010.63 1170.18 1010.46 1170.90
  Q 1009.36 1175.76 1008.18 1179.41
  Q 1006.95 1183.21 1005.89 1187.91
  Q 1004.18 1195.49 1003.05 1201.51
  Q 997.60 1230.65 999.34 1260.58
  C 999.48 1263.00 1000.00 1266.10 1000.04 1269.23
  Q 1000.05 1270.29 1000.34 1271.58
  Q 1000.47 1272.19 1000.68 1273.94
  Q 1002.14 1285.99 1004.63 1295.87
  Q 1004.82 1296.64 1004.99 1297.98
  Q 1005.17 1299.40 1005.30 1300.08
  Q 1007.55 1311.44 1014.29 1330.67
  Q 1015.31 1333.58 1016.72 1336.64
  C 1018.17 1339.78 1019.60 1344.25 1021.29 1347.67
  C 1022.88 1350.88 1024.23 1352.71 1024.56 1354.93
  Q 1024.71 1356.01 1025.67 1357.24
  Q 1027.06 1359.03 1027.59 1360.21
  Q 1029.10 1363.57 1032.95 1370.05
  Q 1039.98 1381.86 1045.39 1389.38
  Q 1045.90 1390.08 1046.45 1390.61
  C 1047.41 1391.54 1047.72 1392.75 1048.72 1393.78
  Q 1050.82 1395.95 1054.35 1400.97
  C 1056.28 1403.73 1059.17 1405.90 1060.90 1408.32
  Q 1062.79 1410.97 1065.34 1413.50
  Q 1077.24 1425.35 1079.61 1427.80
  C 1081.90 1430.16 1084.33 1431.16 1086.59 1433.76
  Q 1088.20 1435.62 1091.78 1438.26
  Q 1099.62 1444.05 1104.98 1448.07
  Q 1109.79 1451.67 1112.98 1453.50
  Q 1116.70 1455.63 1118.07 1456.62
  C 1121.29 1458.93 1124.33 1460.02 1127.84 1462.18
  C 1132.82 1465.24 1139.71 1468.50 1142.78 1469.53
  C 1144.66 1470.17 1146.32 1471.31 1148.19 1472.00
  C 1152.20 1473.48 1155.37 1475.35 1159.40 1476.39
  C 1160.70 1476.73 1162.13 1477.69 1163.57 1478.16
  Q 1177.67 1482.85 1178.02 1482.91
  C 1179.35 1483.14 1180.39 1483.06 1181.69 1483.53
  Q 1189.80 1486.47 1198.63 1487.88
  Q 1199.31 1487.99 1206.42 1489.22
  Q 1209.59 1489.77 1214.26 1490.34
  Q 1225.20 1491.66 1237.63 1492.48
  Q 1244.16 1492.91 1251.41 1492.59
  Q 1252.14 1492.56 1265.22 1491.87
  C 1267.94 1491.72 1269.91 1490.83 1272.35 1491.08
  C 1275.31 1491.38 1278.65 1489.92 1281.69 1490.00
  Q 1283.98 1490.06 1286.15 1489.35
  Q 1287.61 1488.87 1292.58 1488.09
  C 1294.93 1487.72 1297.02 1487.10 1299.39 1486.49
  C 1300.95 1486.09 1302.89 1486.00 1304.64 1485.44
  C 1309.96 1483.78 1315.34 1482.50 1321.24 1480.76
  C 1322.53 1480.38 1323.63 1479.61 1325.03 1479.32
  Q 1326.74 1478.97 1327.92 1478.50
  Q 1344.73 1471.88 1351.36 1468.85
  Q 1354.97 1467.20 1362.22 1463.42
  Q 1367.40 1460.72 1372.74 1457.38
  Q 1381.45 1451.92 1384.72 1449.83
  C 1386.51 1448.69 1388.05 1446.80 1389.67 1446.20
  Q 1391.45 1445.54 1393.43 1443.72
  Q 1395.92 1441.41 1401.09 1438.06
  Q 1401.96 1437.49 1402.84 1436.35
  C 1404.16 1434.65 1406.16 1434.14 1407.63 1432.56
  Q 1408.23 1431.91 1412.34 1427.82
  Q 1413.79 1426.38 1417.41 1423.51
  Q 1422.10 1419.79 1425.52 1414.76
  Q 1426.76 1412.95 1432.97 1407.37
  Q 1433.83 1406.59 1438.27 1400.39
  C 1440.07 1397.87 1442.51 1395.92 1444.12 1393.61
  Q 1450.00 1385.20 1458.08 1372.07
  Q 1464.88 1361.01 1469.48 1350.81
  Q 1472.01 1345.18 1472.46 1344.27
  Q 1474.49 1340.10 1475.37 1337.72
  Q 1481.16 1322.01 1482.24 1318.25
  Q 1484.33 1310.98 1484.35 1310.91
  Q 1485.48 1307.64 1486.34 1303.54
  Q 1487.78 1296.70 1489.46 1289.55
  Q 1489.89 1287.75 1489.99 1285.39
  Q 1490.12 1282.22 1490.57 1281.13
  C 1491.27 1279.46 1490.91 1277.58 1491.45 1275.57
  C 1492.36 1272.18 1491.76 1268.65 1492.38 1265.59
  Q 1493.07 1262.20 1493.01 1259.83
  C 1492.91 1255.49 1494.04 1249.98 1493.89 1245.42
  Q 1493.58 1236.03 1492.86 1229.56
  Q 1491.94 1221.32 1491.91 1218.76
  C 1491.89 1216.83 1490.92 1214.26 1491.02 1212.79
  Q 1491.17 1210.42 1490.54 1208.39
  C 1490.00 1206.65 1490.13 1204.16 1489.66 1202.27
  Q 1488.29 1196.71 1486.55 1187.98
  Q 1485.94 1184.95 1484.95 1181.92
  Q 1483.61 1177.80 1483.44 1175.90
  Q 1483.20 1173.20 1481.97 1171.68
  Q 1481.60 1171.22 1481.50 1170.65
  C 1480.99 1167.83 1479.51 1164.67 1478.87 1162.72
  Q 1474.52 1149.52 1468.25 1137.28
  Q 1467.60 1136.00 1467.15 1134.51
  C 1466.42 1132.07 1464.50 1130.23 1463.51 1127.99
  Q 1460.31 1120.76 1455.00 1113.76
  C 1454.29 1112.83 1454.04 1111.43 1453.36 1110.40
  Q 1449.91 1105.29 1445.97 1100.17
  Q 1445.87 1100.05 1442.00 1094.46
  Q 1440.00 1091.57 1437.35 1089.21
  C 1435.66 1087.70 1435.20 1085.93 1433.33 1084.22
  Q 1431.96 1082.96 1430.82 1081.31
  Q 1429.34 1079.17 1429.32 1079.15
  Q 1414.54 1064.41 1413.77 1063.57
  Q 1411.70 1061.32 1410.18 1060.54
  C 1408.01 1059.42 1406.16 1056.90 1403.95 1055.13
  Q 1397.99 1050.39 1391.08 1045.14
  Q 1386.64 1041.77 1380.75 1038.21
  Q 1375.09 1034.79 1370.08 1031.76
  Q 1368.83 1031.00 1363.03 1027.50
  Q 1357.82 1024.36 1345.18 1019.11
  Q 1337.49 1015.92 1329.85 1012.61
  C 1328.26 1011.91 1325.96 1011.87 1323.92 1010.85
  C 1320.97 1009.39 1317.64 1008.94 1315.10 1008.08
  Q 1307.52 1005.50 1298.92 1004.02
  C 1296.07 1003.54 1292.62 1002.25 1290.03 1002.08
  C 1286.07 1001.82 1283.83 1001.07 1279.38 1000.23
  Q 1278.31 1000.03 1276.60 999.96
  C 1274.26 999.87 1271.63 999.25 1269.66 999.16
  C 1263.34 998.86 1255.21 998.13 1249.11 998.10
  Q 1224.43 997.97 1200.33 1002.51
  Q 1195.88 1003.35 1191.58 1004.55
  C 1189.73 1005.06 1188.14 1004.79 1186.51 1005.25
  Q 1177.00 1007.94 1164.11 1012.23
  Q 1160.82 1013.33 1156.89 1014.95
  Q 1151.20 1017.29 1149.73 1017.79
  C 1147.16 1018.65 1144.83 1020.27 1142.20 1021.22
  Q 1139.53 1022.19 1136.53 1023.70
  C 1133.56 1025.19 1131.34 1026.09 1128.95 1027.74
  Q 1127.44 1028.78 1125.41 1029.74
  C 1122.51 1031.11 1119.39 1033.71 1116.13 1035.40
  Q 1115.09 1035.94 1108.95 1040.16
  C 1106.67 1041.72 1104.77 1042.19 1102.78 1043.67
  Q 1102.52 1043.86 1102.45 1044.18
  L 1102.38 1044.48
  Q 1102.32 1044.75 1102.07 1044.87
  Z"
/>
</svg>
