<?xml version="1.0" encoding="UTF-8" standalone="no"?>
<!DOCTYPE svg PUBLIC "-//W3C//DTD SVG 1.1//EN" "http://www.w3.org/Graphics/SVG/1.1/DTD/svg11.dtd">
<svg xmlns="http://www.w3.org/2000/svg" version="1.1" viewBox="0.00 0.00 1651.00 1650.00">
<path fill="#000000" d="
  M 588.00 819.11
  Q 588.00 1094.80 588.01 1370.50
  C 588.01 1375.39 588.02 1379.76 587.33 1384.47
  Q 585.98 1393.61 585.28 1398.20
  Q 584.66 1402.21 583.66 1405.21
  C 582.79 1407.82 582.57 1411.13 581.48 1414.52
  Q 576.71 1429.39 572.74 1438.03
  C 547.50 1493.02 495.85 1531.69 435.33 1538.85
  Q 416.92 1541.03 394.32 1539.72
  C 362.48 1537.88 331.24 1527.06 305.08 1508.38
  Q 257.19 1474.20 238.94 1417.51
  Q 237.68 1413.60 237.08 1410.63
  C 236.39 1407.27 235.42 1404.88 234.85 1401.43
  Q 234.06 1396.63 233.77 1394.53
  Q 233.76 1394.44 232.62 1387.96
  Q 232.02 1384.55 232.02 1380.75
  Q 232.00 1229.32 232.00 819.11
  Q 232.00 408.90 232.02 257.46
  Q 232.02 253.66 232.62 250.25
  Q 233.76 243.77 233.77 243.68
  Q 234.06 241.58 234.85 236.78
  C 235.42 233.33 236.39 230.94 237.08 227.58
  Q 237.68 224.61 238.94 220.70
  Q 257.19 164.01 305.08 129.83
  C 331.24 111.15 362.48 100.33 394.32 98.49
  Q 416.92 97.18 435.33 99.36
  C 495.85 106.52 547.50 145.19 572.74 200.18
  Q 576.71 208.82 581.48 223.69
  C 582.57 227.08 582.79 230.39 583.66 233.00
  Q 584.66 236.00 585.28 240.01
  Q 585.98 244.60 587.33 253.74
  C 588.02 258.45 588.01 262.82 588.01 267.72
  Q 588.00 543.41 588.00 819.11
  Z
  M 525.39 770.94
  C 525.39 769.76 526.00 768.67 526.00 767.75
  Q 526.01 294.78 526.03 267.75
  Q 526.04 258.68 524.09 249.19
  Q 517.56 217.42 495.93 194.88
  Q 479.97 178.24 459.91 169.56
  Q 445.42 163.28 431.11 161.43
  Q 420.02 159.99 407.39 160.06
  C 402.06 160.09 397.62 160.82 391.85 161.01
  Q 389.39 161.09 385.29 162.09
  Q 385.11 162.13 378.75 163.50
  Q 362.83 166.92 345.93 177.77
  Q 312.69 199.10 300.11 236.84
  Q 297.25 245.42 295.55 258.18
  Q 295.05 261.93 295.03 265.85
  Q 295.02 267.64 294.89 273.50
  Q 294.77 278.99 294.76 349.00
  C 294.76 350.81 294.00 352.12 294.00 354.11
  Q 294.00 695.11 294.00 1036.10
  C 294.00 1038.26 293.42 1039.87 293.42 1042.35
  Q 293.56 1137.45 293.24 1151.26
  Q 293.19 1153.26 293.16 1155.26
  Q 292.91 1168.43 293.02 1258.75
  Q 293.03 1262.98 292.62 1267.18
  C 292.17 1271.72 292.02 1275.80 292.01 1279.50
  Q 291.97 1295.98 292.05 1355.00
  Q 292.06 1360.99 292.29 1362.75
  C 293.44 1371.69 293.85 1380.15 295.69 1387.75
  Q 304.71 1424.91 333.85 1448.65
  Q 352.22 1463.63 376.04 1469.97
  C 379.10 1470.79 382.04 1471.10 385.02 1471.75
  Q 389.20 1472.66 391.72 1472.75
  Q 410.00 1473.39 427.31 1472.68
  C 428.87 1472.62 430.52 1471.96 432.01 1471.74
  C 443.79 1470.00 455.75 1465.89 466.07 1460.23
  Q 503.84 1439.52 518.66 1398.13
  C 520.00 1394.37 520.66 1390.79 521.72 1386.81
  Q 522.64 1383.36 523.21 1378.13
  C 523.76 1373.02 524.71 1366.62 524.63 1360.95
  C 524.50 1350.82 524.90 1339.82 524.91 1331.01
  Q 525.06 1107.51 525.19 884.00
  Q 525.19 883.25 525.20 881.75
  Q 525.21 870.90 525.39 770.94
  Z"
/>
<path fill="#000000" d="
  M 1423.14 541.10
  A 0.94 0.88 62.8 0 0 1423.00 541.59
  Q 1423.00 795.20 1423.00 1111.75
  C 1423.00 1113.60 1422.60 1115.57 1422.61 1117.49
  Q 1422.65 1153.20 1422.35 1227.25
  Q 1422.34 1229.65 1422.33 1230.26
  Q 1422.13 1323.38 1422.00 1358.19
  C 1421.97 1365.77 1421.46 1373.02 1421.09 1380.42
  Q 1420.85 1385.16 1419.70 1391.98
  L 1417.77 1403.50
  C 1417.41 1405.24 1416.67 1406.17 1416.45 1407.72
  Q 1415.97 1410.91 1413.77 1417.79
  Q 1406.66 1439.93 1393.94 1459.95
  C 1393.49 1460.67 1392.87 1461.04 1392.47 1461.76
  Q 1389.10 1467.78 1384.36 1472.81
  Q 1384.21 1472.97 1384.00 1473.49
  Q 1383.84 1473.86 1383.62 1474.13
  Q 1352.98 1512.03 1307.41 1529.15
  Q 1294.10 1534.15 1280.90 1536.45
  Q 1278.99 1536.78 1278.06 1537.01
  Q 1275.46 1537.65 1275.28 1537.67
  Q 1241.76 1541.78 1208.25 1537.54
  C 1207.11 1537.40 1206.04 1536.77 1205.00 1536.62
  Q 1192.69 1534.82 1177.15 1529.01
  Q 1166.95 1525.20 1161.10 1522.27
  Q 1140.60 1512.00 1124.90 1498.64
  Q 1086.21 1465.71 1070.70 1417.56
  C 1069.95 1415.22 1069.73 1412.90 1068.86 1410.72
  Q 1067.22 1406.61 1064.56 1389.98
  Q 1063.07 1380.75 1063.07 1375.50
  Q 1062.97 1296.36 1063.04 817.50
  C 1063.04 816.23 1063.32 815.00 1063.32 813.83
  Q 1063.32 758.79 1063.32 703.75
  C 1063.32 702.27 1063.82 700.60 1063.82 699.07
  C 1063.82 615.96 1064.01 576.41 1063.99 494.34
  C 1063.99 479.10 1065.02 466.88 1065.01 453.12
  Q 1065.01 426.54 1064.99 260.51
  Q 1064.99 256.78 1065.56 253.27
  C 1066.62 246.74 1067.37 240.92 1068.52 234.79
  C 1068.74 233.63 1069.38 232.65 1069.55 231.31
  Q 1069.88 228.60 1071.81 222.30
  C 1077.75 202.84 1086.86 184.39 1099.04 168.10
  Q 1130.84 125.56 1181.69 107.19
  Q 1181.85 107.13 1185.81 105.90
  Q 1187.19 105.47 1188.53 104.91
  Q 1189.97 104.31 1191.27 104.05
  Q 1195.19 103.26 1198.56 102.35
  Q 1203.39 101.04 1205.66 100.67
  Q 1208.49 100.21 1212.82 99.33
  Q 1217.97 98.29 1227.25 98.07
  Q 1236.24 97.85 1258.00 98.05
  Q 1267.96 98.13 1278.02 99.71
  C 1279.29 99.91 1280.50 100.57 1281.75 100.68
  Q 1285.37 100.99 1288.13 101.87
  C 1291.25 102.85 1293.97 103.22 1296.73 104.02
  Q 1347.94 118.90 1382.56 159.60
  Q 1393.88 172.92 1402.22 188.15
  Q 1419.37 219.47 1423.20 256.04
  Q 1423.97 263.44 1423.97 276.00
  Q 1424.02 406.63 1423.99 427.50
  Q 1423.99 427.80 1423.80 428.15
  Q 1423.57 428.58 1423.57 429.08
  Q 1423.58 484.50 1423.57 539.92
  C 1423.57 540.39 1423.38 540.73 1423.14 541.10
  Z
  M 1297.62 172.14
  Q 1280.83 163.77 1262.78 161.22
  Q 1247.41 159.04 1229.69 160.60
  Q 1221.65 161.31 1212.91 163.69
  Q 1203.46 166.27 1196.68 169.19
  Q 1176.50 177.88 1161.10 193.09
  Q 1138.82 215.08 1130.61 245.34
  Q 1127.02 258.61 1127.01 272.25
  Q 1126.98 351.10 1127.00 487.50
  C 1127.00 488.80 1126.37 490.37 1126.37 491.85
  Q 1126.37 546.67 1126.38 601.49
  C 1126.38 602.69 1126.00 603.91 1126.00 605.00
  Q 1126.00 656.37 1126.00 707.75
  Q 1126.00 712.12 1125.44 721.59
  Q 1125.00 728.99 1125.00 735.41
  Q 1124.99 1036.03 1125.00 1363.27
  C 1125.00 1367.39 1125.02 1371.53 1125.99 1375.27
  C 1126.83 1378.54 1127.17 1382.82 1128.12 1386.59
  Q 1136.00 1417.95 1158.66 1440.62
  Q 1178.26 1460.24 1205.18 1468.98
  C 1209.18 1470.27 1212.44 1470.79 1215.50 1471.67
  Q 1219.12 1472.71 1223.25 1473.12
  Q 1242.48 1475.03 1262.02 1473.01
  Q 1264.98 1472.71 1268.31 1471.78
  Q 1273.59 1470.31 1274.50 1470.10
  Q 1289.74 1466.58 1305.60 1456.60
  C 1321.06 1446.86 1334.44 1433.22 1343.90 1416.94
  Q 1353.39 1400.59 1357.18 1381.49
  Q 1358.97 1372.48 1358.98 1363.27
  Q 1359.02 1338.50 1359.00 1220.04
  C 1359.00 1218.67 1359.58 1217.27 1359.58 1216.00
  Q 1359.53 1160.75 1359.58 1105.50
  C 1359.58 1104.39 1359.99 1103.23 1359.99 1102.00
  Q 1359.94 1057.49 1360.07 993.85
  Q 1360.08 992.02 1360.61 987.20
  Q 1360.93 984.29 1360.93 980.50
  Q 1361.06 643.59 1360.99 270.00
  C 1360.98 266.58 1360.87 261.93 1360.03 258.41
  C 1359.23 255.05 1358.96 251.98 1358.09 248.29
  Q 1352.07 222.96 1335.56 202.70
  Q 1319.59 183.10 1297.62 172.14
  Z"
/>
</svg>
