<?xml version="1.0" encoding="UTF-8" standalone="no"?>
<!DOCTYPE svg PUBLIC "-//W3C//DTD SVG 1.1//EN" "http://www.w3.org/Graphics/SVG/1.1/DTD/svg11.dtd">
<svg xmlns="http://www.w3.org/2000/svg" version="1.1" viewBox="0.00 0.00 1651.00 1650.00">
<path fill="#000000" d="
  M 588.00 819.11
  Q 588.00 1094.80 588.01 1370.50
  C 588.01 1375.32 588.03 1379.80 587.33 1384.48
  Q 586.17 1392.31 585.26 1398.20
  Q 584.65 1402.16 583.70 1405.22
  Q 583.09 1407.17 582.69 1409.91
  Q 582.45 1411.49 581.48 1414.52
  Q 576.71 1429.39 572.74 1438.03
  C 547.41 1493.20 495.91 1531.52 435.31 1538.86
  Q 417.39 1541.03 394.26 1539.71
  C 362.53 1537.91 331.20 1527.04 305.09 1508.40
  Q 257.20 1474.20 238.94 1417.51
  Q 237.74 1413.81 237.09 1410.65
  C 236.42 1407.40 235.39 1404.82 234.84 1401.41
  Q 234.05 1396.57 233.77 1394.53
  Q 233.76 1394.44 232.62 1387.96
  Q 232.02 1384.55 232.02 1380.75
  Q 232.00 1229.32 232.00 819.11
  Q 232.00 408.90 232.02 257.46
  Q 232.02 253.66 232.62 250.25
  Q 233.76 243.77 233.77 243.68
  Q 234.05 241.64 234.84 236.80
  C 235.39 233.39 236.42 230.81 237.09 227.56
  Q 237.74 224.40 238.94 220.70
  Q 257.20 164.01 305.09 129.81
  C 331.20 111.17 362.53 100.30 394.26 98.50
  Q 417.39 97.18 435.31 99.35
  C 495.91 106.69 547.41 145.01 572.74 200.18
  Q 576.71 208.82 581.48 223.69
  Q 582.45 226.72 582.69 228.30
  Q 583.09 231.04 583.70 232.99
  Q 584.65 236.05 585.26 240.01
  Q 586.17 245.90 587.33 253.73
  C 588.03 258.41 588.01 262.89 588.01 267.71
  Q 588.00 543.41 588.00 819.11
  Z"
/>
<path fill="#000000" d="
  M 1423.14 541.10
  A 0.94 0.88 62.8 0 0 1423.00 541.59
  Q 1423.00 795.20 1423.00 1111.75
  C 1423.00 1113.60 1422.60 1115.57 1422.61 1117.49
  Q 1422.65 1153.20 1422.35 1227.25
  Q 1422.34 1229.65 1422.33 1230.26
  Q 1422.13 1323.38 1422.00 1358.19
  C 1421.97 1365.77 1421.46 1373.02 1421.09 1380.42
  Q 1420.85 1385.16 1419.70 1391.98
  L 1417.77 1403.50
  C 1417.41 1405.24 1416.67 1406.17 1416.45 1407.72
  Q 1415.97 1410.91 1413.77 1417.79
  Q 1406.66 1439.93 1393.94 1459.95
  C 1393.49 1460.67 1392.87 1461.04 1392.47 1461.76
  Q 1389.10 1467.78 1384.36 1472.81
  Q 1384.21 1472.97 1384.00 1473.49
  Q 1383.84 1473.86 1383.62 1474.13
  Q 1352.98 1512.03 1307.41 1529.15
  Q 1294.10 1534.15 1280.90 1536.45
  Q 1278.99 1536.78 1278.06 1537.01
  Q 1275.46 1537.65 1275.28 1537.67
  Q 1241.76 1541.78 1208.25 1537.54
  C 1207.11 1537.40 1206.04 1536.77 1205.00 1536.62
  Q 1192.69 1534.82 1177.15 1529.01
  Q 1166.95 1525.20 1161.10 1522.27
  Q 1140.60 1512.00 1124.90 1498.64
  Q 1086.21 1465.71 1070.70 1417.56
  C 1069.95 1415.22 1069.73 1412.90 1068.86 1410.72
  Q 1067.22 1406.61 1064.56 1389.98
  Q 1063.07 1380.75 1063.07 1375.50
  Q 1062.97 1296.36 1063.04 817.50
  C 1063.04 816.23 1063.32 815.00 1063.32 813.83
  Q 1063.32 758.79 1063.32 703.75
  C 1063.32 702.27 1063.82 700.60 1063.82 699.07
  C 1063.82 615.96 1064.01 576.41 1063.99 494.34
  C 1063.99 479.10 1065.02 466.88 1065.01 453.12
  Q 1065.01 426.54 1064.99 260.51
  Q 1064.99 256.78 1065.56 253.27
  C 1066.62 246.74 1067.37 240.92 1068.52 234.79
  C 1068.74 233.63 1069.38 232.65 1069.55 231.31
  Q 1069.88 228.60 1071.81 222.30
  C 1077.75 202.84 1086.86 184.39 1099.04 168.10
  Q 1130.84 125.56 1181.69 107.19
  Q 1181.85 107.13 1185.81 105.90
  Q 1187.16 105.48 1188.53 104.91
  Q 1189.97 104.31 1191.27 104.04
  Q 1196.40 102.96 1198.56 102.33
  Q 1203.12 101.00 1205.67 100.76
  Q 1206.29 100.70 1212.82 99.33
  Q 1217.79 98.29 1227.25 98.10
  Q 1238.57 97.88 1258.00 98.05
  Q 1267.96 98.13 1278.02 99.71
  C 1279.29 99.91 1280.49 100.56 1281.75 100.67
  Q 1285.51 100.99 1288.12 101.87
  C 1291.02 102.86 1294.09 103.25 1296.73 104.02
  Q 1347.94 118.90 1382.55 159.60
  Q 1393.88 172.92 1402.22 188.15
  Q 1419.38 219.47 1423.20 256.04
  Q 1423.97 263.44 1423.97 276.00
  Q 1424.02 406.61 1423.99 427.50
  Q 1423.99 427.80 1423.80 428.15
  Q 1423.57 428.58 1423.57 429.08
  Q 1423.58 484.50 1423.57 539.92
  C 1423.57 540.39 1423.38 540.73 1423.14 541.10
  Z"
/>
</svg>
