<?xml version="1.0" encoding="UTF-8" standalone="no"?>
<!DOCTYPE svg PUBLIC "-//W3C//DTD SVG 1.1//EN" "http://www.w3.org/Graphics/SVG/1.1/DTD/svg11.dtd">
<svg xmlns="http://www.w3.org/2000/svg" version="1.1" viewBox="0.00 0.00 100.00 100.00">
<path fill="#000000" d="
  M 5.68 15.50
  C 5.67 11.47 7.84 7.60 11.47 5.95
  Q 13.33 5.10 17.62 5.02
  Q 26.30 4.87 34.99 5.00
  Q 39.78 5.08 41.86 6.12
  C 45.91 8.14 47.79 12.73 47.82 17.13
  Q 48.16 60.66 47.75 82.49
  Q 47.59 91.01 39.45 94.22
  Q 37.85 94.85 32.51 95.06
  Q 30.11 95.15 21.65 95.15
  C 12.71 95.14 5.54 92.52 5.58 82.50
  Q 5.75 37.62 5.68 15.50
  Z
  M 38.9522 16.4382
  A 3.39 3.39 0.0 0 0 35.5563 13.0542
  L 17.3363 13.0860
  A 3.39 3.39 0.0 0 0 13.9523 16.4819
  L 14.0678 82.6618
  A 3.39 3.39 0.0 0 0 17.4637 86.0458
  L 35.6837 86.0140
  A 3.39 3.39 0.0 0 0 39.0677 82.6181
  L 38.9522 16.4382
  Z"
/>
<path fill="#000000" d="
  M 59.74 6.05
  Q 61.59 5.21 65.87 5.13
  Q 74.52 4.98 83.19 5.11
  Q 87.96 5.19 90.04 6.23
  C 94.08 8.24 95.95 12.82 95.98 17.21
  Q 96.31 60.61 95.90 82.38
  Q 95.74 90.87 87.62 94.07
  Q 86.03 94.70 80.70 94.91
  Q 78.31 95.00 69.87 95.00
  C 60.96 94.99 53.81 92.37 53.85 82.38
  Q 54.03 37.63 53.96 15.58
  C 53.95 11.56 56.12 7.70 59.74 6.05
  Z
  M 87.00 83.21
  L 87.00 15.89
  A 2.85 2.85 0.0 0 0 84.15 13.04
  L 66.78 13.04
  A 5.18 4.78 90.0 0 0 62.00 18.22
  L 62.00 80.88
  A 5.18 4.78 90.0 0 0 66.78 86.06
  L 84.15 86.06
  A 2.85 2.85 0.0 0 0 87.00 83.21
  Z"
/>
</svg>
