<?xml version="1.0" encoding="UTF-8" standalone="no"?>
<!DOCTYPE svg PUBLIC "-//W3C//DTD SVG 1.1//EN" "http://www.w3.org/Graphics/SVG/1.1/DTD/svg11.dtd">
<svg xmlns="http://www.w3.org/2000/svg" version="1.1" viewBox="0.00 0.00 264.00 264.00">
<path fill="#000000" d="
  M 264.00 0.00
  L 264.00 264.00
  L 0.00 264.00
  L 0.00 0.00
  L 264.00 0.00
  Z
  M 122.00 20.71
  A 0.71 0.71 0.0 0 0 121.29 20.00
  L 20.71 20.00
  A 0.71 0.71 0.0 0 0 20.00 20.71
  L 20.00 121.29
  A 0.71 0.71 0.0 0 0 20.71 122.00
  L 121.29 122.00
  A 0.71 0.71 0.0 0 0 122.00 121.29
  L 122.00 20.71
  Z
  M 244.00 20.82
  A 0.82 0.82 0.0 0 0 243.18 20.00
  L 142.82 20.00
  A 0.82 0.82 0.0 0 0 142.00 20.82
  L 142.00 121.18
  A 0.82 0.82 0.0 0 0 142.82 122.00
  L 243.18 122.00
  A 0.82 0.82 0.0 0 0 244.00 121.18
  L 244.00 20.82
  Z
  M 122.00 142.72
  A 0.72 0.72 0.0 0 0 121.28 142.00
  L 20.72 142.00
  A 0.72 0.72 0.0 0 0 20.00 142.72
  L 20.00 243.28
  A 0.72 0.72 0.0 0 0 20.72 244.00
  L 121.28 244.00
  A 0.72 0.72 0.0 0 0 122.00 243.28
  L 122.00 142.72
  Z
  M 244.00 142.90
  A 0.90 0.90 0.0 0 0 243.10 142.00
  L 142.90 142.00
  A 0.90 0.90 0.0 0 0 142.00 142.90
  L 142.00 243.10
  A 0.90 0.90 0.0 0 0 142.90 244.00
  L 243.10 244.00
  A 0.90 0.90 0.0 0 0 244.00 243.10
  L 244.00 142.90
  Z"
/>
</svg>
