<?xml version="1.0" encoding="UTF-8" standalone="no"?>
<!DOCTYPE svg PUBLIC "-//W3C//DTD SVG 1.1//EN" "http://www.w3.org/Graphics/SVG/1.1/DTD/svg11.dtd">
<svg xmlns="http://www.w3.org/2000/svg" version="1.1" viewBox="0.00 0.00 264.00 264.00">
<path fill="#919191" d="
  M 264.00 0.00
  L 264.00 264.00
  L 0.00 264.00
  L 0.00 0.00
  L 264.00 0.00
  Z
  M 120.00 24.88
  A 0.88 0.88 0.0 0 0 119.12 24.00
  L 24.88 24.00
  A 0.88 0.88 0.0 0 0 24.00 24.88
  L 24.00 119.12
  A 0.88 0.88 0.0 0 0 24.88 120.00
  L 119.12 120.00
  A 0.88 0.88 0.0 0 0 120.00 119.12
  L 120.00 24.88
  Z
  M 240.00 24.92
  A 0.92 0.92 0.0 0 0 239.08 24.00
  L 144.92 24.00
  A 0.92 0.92 0.0 0 0 144.00 24.92
  L 144.00 119.08
  A 0.92 0.92 0.0 0 0 144.92 120.00
  L 239.08 120.00
  A 0.92 0.92 0.0 0 0 240.00 119.08
  L 240.00 24.92
  Z
  M 120.00 144.88
  A 0.88 0.88 0.0 0 0 119.12 144.00
  L 24.88 144.00
  A 0.88 0.88 0.0 0 0 24.00 144.88
  L 24.00 239.12
  A 0.88 0.88 0.0 0 0 24.88 240.00
  L 119.12 240.00
  A 0.88 0.88 0.0 0 0 120.00 239.12
  L 120.00 144.88
  Z
  M 240.00 144.93
  A 0.93 0.93 0.0 0 0 239.07 144.00
  L 144.93 144.00
  A 0.93 0.93 0.0 0 0 144.00 144.93
  L 144.00 239.07
  A 0.93 0.93 0.0 0 0 144.93 240.00
  L 239.07 240.00
  A 0.93 0.93 0.0 0 0 240.00 239.07
  L 240.00 144.93
  Z"
/>
</svg>
