<?xml version="1.0" encoding="UTF-8" standalone="no"?>
<!DOCTYPE svg PUBLIC "-//W3C//DTD SVG 1.1//EN" "http://www.w3.org/Graphics/SVG/1.1/DTD/svg11.dtd">
<svg xmlns="http://www.w3.org/2000/svg" version="1.1" viewBox="0.00 0.00 100.00 100.00">
<path fill="#000000" d="
  M 47.0010 36.0197
  A 11.34 11.34 0.0 0 1 35.6215 47.3200
  L 18.3616 47.2598
  A 11.34 11.34 0.0 0 1 7.0613 35.8802
  L 7.1190 19.3403
  A 11.34 11.34 0.0 0 1 18.4985 8.0400
  L 35.7584 8.1002
  A 11.34 11.34 0.0 0 1 47.0587 19.4798
  L 47.0010 36.0197
  Z
  M 38.95 36.75
  L 39.07 19.39
  A 3.35 3.35 0.0 0 0 35.74 16.02
  L 19.81 15.91
  A 4.78 4.73 0.4 0 0 15.00 20.61
  L 14.90 35.21
  A 4.78 4.73 0.4 0 0 19.65 39.97
  L 35.58 40.08
  A 3.35 3.35 0.0 0 0 38.95 36.75
  Z"
/>
<path fill="#000000" d="
  M 92.0137 37.0240
  A 10.18 10.18 0.0 0 1 81.8159 47.1863
  L 63.1560 47.1537
  A 10.18 10.18 0.0 0 1 52.9937 36.9559
  L 53.0263 18.2960
  A 10.18 10.18 0.0 0 1 63.2241 8.1337
  L 81.8840 8.1663
  A 10.18 10.18 0.0 0 1 92.0463 18.3641
  L 92.0137 37.0240
  Z
  M 84.0124 18.7102
  A 2.68 2.68 0.0 0 0 81.3418 16.0209
  L 63.7019 15.9593
  A 2.68 2.68 0.0 0 0 61.0125 18.6299
  L 60.9476 37.2298
  A 2.68 2.68 0.0 0 0 63.6182 39.9191
  L 81.2581 39.9807
  A 2.68 2.68 0.0 0 0 83.9475 37.3101
  L 84.0124 18.7102
  Z"
/>
<path fill="#000000" d="
  M 47.0261 81.1148
  A 12.01 12.01 0.0 0 1 34.9952 93.1038
  L 19.0952 93.0761
  A 12.01 12.01 0.0 0 1 7.1062 81.0452
  L 7.1339 65.1652
  A 12.01 12.01 0.0 0 1 19.1648 53.1762
  L 35.0648 53.2039
  A 12.01 12.01 0.0 0 1 47.0538 65.2348
  L 47.0261 81.1148
  Z
  M 39.03 81.68
  L 39.03 64.42
  A 3.39 3.39 0.0 0 0 35.64 61.03
  L 19.62 61.03
  A 4.70 4.63 -90.0 0 0 14.99 65.73
  L 14.99 80.37
  A 4.70 4.63 -90.0 0 0 19.62 85.07
  L 35.64 85.07
  A 3.39 3.39 0.0 0 0 39.03 81.68
  Z"
/>
<path fill="#000000" d="
  M 92.0713 82.0419
  A 10.97 10.97 0.0 0 1 81.1396 93.0501
  L 64.0997 93.1096
  A 10.97 10.97 0.0 0 1 53.0915 82.1780
  L 53.0287 64.1981
  A 10.97 10.97 0.0 0 1 63.9604 53.1899
  L 81.0003 53.1304
  A 10.97 10.97 0.0 0 1 92.0085 64.0620
  L 92.0713 82.0419
  Z
  M 83.9673 63.6799
  A 2.61 2.61 0.0 0 0 81.3482 61.0790
  L 63.5483 61.1411
  A 2.61 2.61 0.0 0 0 60.9474 63.7602
  L 61.0127 82.4601
  A 2.61 2.61 0.0 0 0 63.6318 85.0610
  L 81.4317 84.9989
  A 2.61 2.61 0.0 0 0 84.0326 82.3798
  L 83.9673 63.6799
  Z"
/>
</svg>
