<?xml version="1.0" encoding="UTF-8" standalone="no"?>
<!DOCTYPE svg PUBLIC "-//W3C//DTD SVG 1.1//EN" "http://www.w3.org/Graphics/SVG/1.1/DTD/svg11.dtd">
<svg xmlns="http://www.w3.org/2000/svg" version="1.1" viewBox="0.00 0.00 264.00 264.00">
<path fill="#919191" d="
  M 264.00 0.00
  L 264.00 264.00
  L 0.00 264.00
  L 0.00 0.00
  L 264.00 0.00
  Z
  M 120.00 24.80
  A 0.80 0.80 0.0 0 0 119.20 24.00
  L 24.80 24.00
  A 0.80 0.80 0.0 0 0 24.00 24.80
  L 24.00 239.20
  A 0.80 0.80 0.0 0 0 24.80 240.00
  L 119.20 240.00
  A 0.80 0.80 0.0 0 0 120.00 239.20
  L 120.00 24.80
  Z
  M 240.00 24.82
  A 0.83 0.83 0.0 0 0 239.17 23.99
  L 144.83 23.99
  A 0.83 0.83 0.0 0 0 144.00 24.82
  L 144.00 239.16
  A 0.83 0.83 0.0 0 0 144.83 239.99
  L 239.17 239.99
  A 0.83 0.83 0.0 0 0 240.00 239.16
  L 240.00 24.82
  Z"
/>
</svg>
