<?xml version="1.0" encoding="UTF-8" standalone="no"?>
<!DOCTYPE svg PUBLIC "-//W3C//DTD SVG 1.1//EN" "http://www.w3.org/Graphics/SVG/1.1/DTD/svg11.dtd">
<svg xmlns="http://www.w3.org/2000/svg" version="1.1" viewBox="0.00 0.00 100.00 100.00">
<path fill="#000000" d="
  M 15.27 94.56
  Q 5.83 93.09 5.69 82.86
  Q 5.68 82.04 5.68 15.50
  Q 5.68 9.26 10.44 6.50
  Q 13.01 5.01 18.68 4.98
  Q 27.06 4.94 34.31 5.00
  Q 39.56 5.05 41.70 6.01
  C 46.67 8.26 47.99 14.07 47.99 19.25
  Q 47.96 65.22 47.90 78.75
  C 47.88 84.49 47.16 90.10 41.86 93.21
  Q 39.26 94.73 32.30 95.05
  Q 21.55 95.54 15.27 94.56
  Z"
/>
<path fill="#000000" d="
  M 63.56 94.42
  Q 54.14 92.97 53.99 82.76
  Q 53.98 81.95 53.93 15.59
  Q 53.92 9.37 58.67 6.62
  Q 61.23 5.13 66.88 5.09
  Q 75.24 5.05 82.47 5.10
  Q 87.71 5.15 89.84 6.10
  C 94.80 8.34 96.12 14.13 96.12 19.30
  Q 96.13 65.14 96.08 78.63
  C 96.07 84.36 95.35 89.95 90.07 93.06
  Q 87.48 94.57 80.54 94.90
  Q 69.82 95.40 63.56 94.42
  Z"
/>
</svg>
