<?xml version="1.0" encoding="UTF-8" standalone="no"?>
<!DOCTYPE svg PUBLIC "-//W3C//DTD SVG 1.1//EN" "http://www.w3.org/Graphics/SVG/1.1/DTD/svg11.dtd">
<svg class="icon icon-account" xmlns="http://www.w3.org/2000/svg" version="1.1" viewBox="0.00 0.00 800.00 800.00">
<path fill="currentColor" d="
  M 489.36 394.95
  A 0.28 0.28 0.0 0 0 489.43 395.45
  C 534.47 408.44 577.64 429.92 614.24 459.99
  Q 681.19 514.98 714.05 594.17
  Q 739.13 654.58 740.07 722.51
  Q 740.11 725.35 739.06 729.54
  A 1.54 0.92 64.7 0 0 739.03 729.84
  L 738.98 744.32
  A 0.68 0.68 0.0 0 1 738.30 745.00
  L 706.54 745.00
  A 0.57 0.57 0.0 0 1 705.97 744.43
  C 705.97 740.18 706.10 735.22 705.80 730.19
  Q 704.37 706.58 703.87 700.80
  Q 701.47 673.60 694.20 645.52
  Q 680.33 591.89 648.99 548.25
  Q 617.18 503.96 572.56 472.76
  Q 516.50 433.57 446.46 422.80
  Q 424.84 419.48 412.99 419.21
  Q 390.39 418.70 380.25 417.56
  Q 329.91 411.90 290.68 382.42
  Q 266.89 364.54 249.96 339.99
  C 230.38 311.59 218.95 276.98 218.29 242.25
  Q 217.74 213.52 225.56 187.06
  Q 237.41 146.93 265.15 116.16
  C 296.55 81.34 340.21 60.00 386.99 57.09
  C 438.23 53.91 487.28 71.57 524.13 106.89
  C 568.73 149.64 589.83 212.93 576.63 273.61
  Q 561.31 344.00 503.48 385.50
  Q 496.66 390.39 489.36 394.95
  Z
  M 544.98 237.61
  A 145.80 145.80 0.0 0 0 399.18 91.81
  A 145.80 145.80 0.0 0 0 253.38 237.61
  A 145.80 145.80 0.0 0 0 399.18 383.41
  A 145.80 145.80 0.0 0 0 544.98 237.61
  Z"
/>
<path fill="currentColor" d="
  M 92.23 745.00
  L 59.51 745.00
  A 0.52 0.52 0.0 0 1 58.99 744.48
  Q 59.02 729.56 58.98 727.57
  C 58.95 725.96 58.36 723.63 58.40 721.83
  Q 59.71 664.15 76.23 615.69
  Q 104.57 532.58 168.33 473.82
  Q 190.83 453.08 218.27 435.36
  A 1.08 1.07 -38.8 0 1 219.61 435.50
  L 242.87 458.76
  A 1.15 1.14 41.9 0 1 242.96 460.29
  L 241.97 461.53
  A 3.71 3.69 2.3 0 1 241.10 462.33
  Q 215.96 478.87 198.00 494.49
  Q 161.02 526.66 136.13 568.89
  Q 101.68 627.37 95.24 694.75
  Q 93.07 717.45 92.89 744.35
  A 0.66 0.65 -0.0 0 1 92.23 745.00
  Z"
/>
</svg>
