<?xml version="1.0" encoding="UTF-8"?>
<!DOCTYPE svg PUBLIC "-//W3C//DTD SVG 1.1//EN" "http://www.w3.org/Graphics/SVG/1.1/DTD/svg11.dtd">
<svg xmlns="http://www.w3.org/2000/svg" version="1.1" width="14px" height="14px" viewBox="-0.5 -0.5 140 140" style="shape-rendering:geometricPrecision; text-rendering:geometricPrecision; image-rendering:optimizeQuality; fill-rule:evenodd; clip-rule:evenodd" xmlns:xlink="http://www.w3.org/1999/xlink">
<g><path style="opacity:1" fill="#000000" d="M 59.5,-0.5 C 66.1667,-0.5 72.8333,-0.5 79.5,-0.5C 79.5,19.5 79.5,39.5 79.5,59.5C 99.5,59.5 119.5,59.5 139.5,59.5C 139.5,66.1667 139.5,72.8333 139.5,79.5C 119.5,79.5 99.5,79.5 79.5,79.5C 79.5,99.5 79.5,119.5 79.5,139.5C 72.8333,139.5 66.1667,139.5 59.5,139.5C 59.5,119.5 59.5,99.5 59.5,79.5C 39.5,79.5 19.5,79.5 -0.5,79.5C -0.5,72.8333 -0.5,66.1667 -0.5,59.5C 19.5,59.5 39.5,59.5 59.5,59.5C 59.5,39.5 59.5,19.5 59.5,-0.5 Z"/></g>
</svg>
