<?xml version="1.0" encoding="UTF-8" standalone="no"?>
<!DOCTYPE svg PUBLIC "-//W3C//DTD SVG 1.1//EN" "http://www.w3.org/Graphics/SVG/1.1/DTD/svg11.dtd">
<svg class="icon icon-search" xmlns="http://www.w3.org/2000/svg" version="1.1" viewBox="0.00 0.00 801.00 801.00">
<path fill="currentColor" d="
  M 767.02 767.04
  Q 760.03 774.04 753.08 780.94
  A 0.45 0.45 0.0 0 1 752.44 780.93
  L 571.84 600.34
  A 0.57 0.57 0.0 0 0 571.05 600.31
  Q 564.88 605.65 559.94 609.63
  Q 494.70 662.18 412.77 678.05
  C 373.52 685.66 332.79 685.55 292.82 678.67
  C 172.00 657.88 71.60 569.99 33.73 452.93
  Q 22.92 419.51 19.42 383.36
  Q 10.37 290.13 50.83 206.31
  Q 75.28 155.67 115.20 115.72
  Q 155.12 75.77 205.74 51.28
  Q 289.53 10.76 382.77 19.74
  Q 418.92 23.21 452.35 33.99
  C 569.44 71.78 657.40 172.11 678.28 292.91
  C 685.20 332.88 685.34 373.61 677.76 412.86
  Q 661.95 494.81 609.45 560.09
  Q 605.47 565.03 600.14 571.20
  A 0.57 0.57 0.0 0 0 600.17 571.99
  L 780.89 752.45
  A 0.45 0.45 0.0 0 1 780.90 753.09
  Q 774.01 760.05 767.02 767.04
  Z
  M 643.34 350.98
  A 292.61 292.61 0.0 0 0 350.73 58.37
  A 292.61 292.61 0.0 0 0 58.12 350.98
  A 292.61 292.61 0.0 0 0 350.73 643.59
  A 292.61 292.61 0.0 0 0 643.34 350.98
  Z"
/>
</svg>
