<svg xmlns="http://www.w3.org/2000/svg" xmlns:xlink="http://www.w3.org/1999/xlink" version="1.1" x="0px" y="0px" viewBox="0 0 100 125" enable-background="new 0 0 100 100" xml:space="preserve"><path fill="#000000" d="M79.664,30.392h-13.45v-8.245c0-3.927-2.118-11.449-10.189-11.805H53.1c-0.157,0-0.307,0.032-0.443,0.09  c-1.119,0.131-2.126,0.392-3.006,0.782c-1.113-0.491-2.404-0.806-3.903-0.873h-2.925c-0.157,0-0.307,0.032-0.443,0.09  c-7.288,0.852-9.264,7.937-9.264,11.714v8.245H18.769L13.275,89.02h73.847L79.664,30.392z M53.618,12.606l2.357-0.002  c7.851,0.347,7.973,9.169,7.975,9.543v8.245h-8.013v-8.245c0-2.581-0.929-6.706-3.849-9.338  C52.565,12.706,53.068,12.631,53.618,12.606z M49.666,13.793c3.913,2.494,4.006,8.058,4.008,8.353v8.245h-8.015v-8.243  C45.66,21.852,45.752,16.287,49.666,13.793z M35.381,22.149c0.002-0.376,0.125-9.185,7.96-9.543l2.357-0.002  c0.552,0.024,1.056,0.1,1.534,0.202c-2.908,2.631-3.838,6.759-3.838,9.341v8.245h-8.013V22.149z M15.76,86.756l5.07-54.1h12.287  v6.582c0,0.626,0.506,1.132,1.132,1.132c0.626,0,1.132-0.506,1.132-1.132v-6.582h18.292v6.582c0,0.626,0.506,1.132,1.132,1.132  c0.626,0,1.132-0.506,1.132-1.132v-6.582h13.185l-2.535,27.05l-2.535,27.05H15.76z M68.86,59.706l2.535-27.05h6.275l6.883,54.1  H66.325L68.86,59.706z"/><text x="0" y="115" fill="#000000" font-size="5px" font-weight="bold" font-family="'Helvetica Neue', Helvetica, Arial-Unicode, Arial, Sans-serif">Created by Milky - Digital innovation</text><text x="0" y="120" fill="#000000" font-size="5px" font-weight="bold" font-family="'Helvetica Neue', Helvetica, Arial-Unicode, Arial, Sans-serif">from the Noun Project</text></svg>