<?xml version="1.0" encoding="UTF-8" standalone="no"?>
<!DOCTYPE svg PUBLIC "-//W3C//DTD SVG 1.1//EN" "http://www.w3.org/Graphics/SVG/1.1/DTD/svg11.dtd">
<svg xmlns="http://www.w3.org/2000/svg" version="1.1" viewBox="0.00 0.00 300.00 300.00">
<path fill="currentColor" d="
  M 131.49 0.00
  Q 132.01 0.16 132.44 0.00
  L 133.37 0.00
  Q 139.07 0.54 144.75 1.28
  C 178.04 5.61 204.19 22.84 225.02 48.61
  C 263.36 96.01 259.24 162.49 221.04 208.13
  C 219.56 209.89 218.90 211.03 220.69 212.80
  Q 246.17 238.03 298.58 290.67
  Q 299.63 291.72 299.89 293.40
  A 1.93 1.90 -40.0 0 1 299.80 294.36
  Q 298.23 298.66 293.78 300.00
  Q 293.64 299.99 293.49 300.00
  Q 291.53 299.43 289.04 296.96
  Q 260.01 268.10 212.25 220.50
  Q 210.63 218.89 209.02 220.27
  Q 181.04 244.19 145.51 250.02
  C 113.15 255.33 79.92 248.51 53.65 228.85
  C 21.55 204.82 1.72 173.36 0.00 132.34
  L 0.00 121.63
  C 1.28 85.27 17.47 53.54 44.79 30.05
  Q 78.37 1.19 122.99 0.00
  L 131.49 0.00
  Z
  M 239.71 126.00
  A 113.71 113.71 0.0 0 0 126.00 12.29
  A 113.71 113.71 0.0 0 0 12.29 126.00
  A 113.71 113.71 0.0 0 0 126.00 239.71
  A 113.71 113.71 0.0 0 0 239.71 126.00
  Z"
/>
</svg>
