<svg xmlns="http://www.w3.org/2000/svg" viewBox="0 0 64 64" fill="none">
  <!-- Broad shoulders body type icon -->
  <!-- Head -->
  <circle cx="32" cy="8" r="4" fill="#333" opacity="0.8"/>
  <!-- Shoulders and body -->
  <path d="M32 12 L32 18 M18 18 C18 16, 20 14, 24 14 L40 14 C44 14, 46 16, 46 18 M18 18 L18 28 C18 30, 20 32, 24 32 L24 38 C22 38, 20 40, 20 44 L20 56 C20 58, 24 60, 32 60 C40 60, 44 58, 44 56 L44 44 C44 40, 42 38, 40 38 L40 32 C44 32, 46 30, 46 28 L46 18"
        stroke="#333"
        stroke-width="2"
        fill="#333"
        opacity="0.8"/>
</svg>
