<svg xmlns="http://www.w3.org/2000/svg" viewBox="0 0 64 64" fill="none">
  <!-- Normal shoulders body type icon -->
  <!-- Head -->
  <circle cx="32" cy="8" r="4" fill="#333" opacity="0.8"/>
  <!-- Shoulders and body -->
  <path d="M32 12 L32 18 M22 18 C22 16, 24 14, 28 14 L36 14 C40 14, 42 16, 42 18 M22 18 L22 28 C22 30, 24 32, 28 32 L28 38 C26 38, 24 40, 24 44 L24 56 C24 58, 26 60, 32 60 C38 60, 40 58, 40 56 L40 44 C40 40, 38 38, 36 38 L36 32 C40 32, 42 30, 42 28 L42 18"
        stroke="#333"
        stroke-width="2"
        fill="#333"
        opacity="0.8"/>
</svg>
